<svg width="677" height="444" viewBox="0 0 677 444" fill="none" xmlns="http://www.w3.org/2000/svg">
<rect width="677" height="444" fill="white"/>
<ellipse cx="475" cy="148.5" rx="50" ry="51.5" fill="url(#paint0_linear_1_50)"/>
<circle cx="452.5" cy="338.5" r="46.5" fill="url(#paint1_linear_1_50)"/>
<circle cx="524" cy="281" r="25" fill="url(#paint2_linear_1_50)"/>
<circle cx="225" cy="109" r="63" fill="url(#paint3_linear_1_50)"/>
<ellipse cx="162.5" cy="316" rx="35.5" ry="36" fill="url(#paint4_linear_1_50)"/>
<ellipse cx="276" cy="374.5" rx="59" ry="59.5" fill="url(#paint5_linear_1_50)"/>
<circle cx="433.5" cy="84.5" r="74.5" fill="url(#paint6_linear_1_50)"/>
<g filter="url(#filter0_d_1_50)">
<circle cx="348" cy="223" r="151" fill="white"/>
<circle cx="348" cy="223" r="141" stroke="url(#paint7_linear_1_50)" stroke-width="20"/>
</g>
<path d="M343.794 155.455V250H332.345V167.457H331.791L308.709 182.784V171.151L332.345 155.455H343.794ZM390.744 197.188C386.835 197.188 383.265 196.233 380.033 194.325C376.833 192.417 374.278 189.863 372.37 186.662C370.462 183.43 369.508 179.86 369.508 175.952C369.508 172.043 370.462 168.488 372.37 165.288C374.278 162.056 376.833 159.486 380.033 157.578C383.265 155.67 386.835 154.716 390.744 154.716C394.652 154.716 398.207 155.67 401.408 157.578C404.639 159.486 407.209 162.056 409.117 165.288C411.025 168.488 411.979 172.043 411.979 175.952C411.979 179.86 411.025 183.43 409.117 186.662C407.209 189.863 404.639 192.417 401.408 194.325C398.207 196.233 394.652 197.188 390.744 197.188ZM390.744 187.955C392.96 187.955 394.975 187.416 396.791 186.339C398.607 185.262 400.054 183.815 401.131 181.999C402.208 180.183 402.747 178.168 402.747 175.952C402.747 173.736 402.208 171.72 401.131 169.904C400.054 168.088 398.607 166.642 396.791 165.565C394.975 164.487 392.96 163.949 390.744 163.949C388.528 163.949 386.512 164.487 384.696 165.565C382.88 166.642 381.434 168.088 380.357 169.904C379.279 171.72 378.741 173.736 378.741 175.952C378.741 178.168 379.279 180.183 380.357 181.999C381.434 183.815 382.88 185.262 384.696 186.339C386.512 187.416 388.528 187.955 390.744 187.955Z" fill="black"/>
<path d="M343.794 155.455H346.794V152.455H343.794V155.455ZM343.794 250V253H346.794V250H343.794ZM332.345 250H329.345V253H332.345V250ZM332.345 167.457H335.345V164.457H332.345V167.457ZM331.791 167.457V164.457H330.886L330.132 164.958L331.791 167.457ZM308.709 182.784H305.709V188.377L310.368 185.283L308.709 182.784ZM308.709 171.151L307.049 168.651L305.709 169.542V171.151H308.709ZM332.345 155.455V152.455H331.44L330.686 152.955L332.345 155.455ZM340.794 155.455V250H346.794V155.455H340.794ZM343.794 247H332.345V253H343.794V247ZM335.345 250V167.457H329.345V250H335.345ZM332.345 164.457H331.791V170.457H332.345V164.457ZM330.132 164.958L307.049 180.285L310.368 185.283L333.451 169.957L330.132 164.958ZM311.709 182.784V171.151H305.709V182.784H311.709ZM310.368 173.65L334.005 157.954L330.686 152.955L307.049 168.651L310.368 173.65ZM332.345 158.455H343.794V152.455H332.345V158.455ZM380.033 194.325L378.497 196.902L378.508 196.909L380.033 194.325ZM372.37 186.662L369.787 188.187L369.793 188.198L372.37 186.662ZM372.37 165.288L374.947 166.824L374.953 166.813L372.37 165.288ZM380.033 157.578L378.508 154.995L378.497 155.001L380.033 157.578ZM401.408 157.578L399.872 160.155L399.882 160.161L401.408 157.578ZM409.117 165.288L406.534 166.813L406.54 166.824L409.117 165.288ZM409.117 186.662L411.694 188.198L411.701 188.187L409.117 186.662ZM401.408 194.325L399.882 191.742L399.872 191.748L401.408 194.325ZM396.791 186.339L398.322 188.919L398.322 188.919L396.791 186.339ZM401.131 181.999L403.711 183.53L403.711 183.53L401.131 181.999ZM401.131 169.904L403.711 168.374L403.711 168.374L401.131 169.904ZM396.791 165.565L398.322 162.984L398.322 162.984L396.791 165.565ZM384.696 165.565L383.166 162.984L383.166 162.984L384.696 165.565ZM380.357 169.904L377.776 168.374L377.776 168.374L380.357 169.904ZM380.357 181.999L377.776 183.53L377.776 183.53L380.357 181.999ZM390.744 194.188C387.348 194.188 384.309 193.366 381.559 191.742L378.508 196.909C382.221 199.101 386.322 200.188 390.744 200.188V194.188ZM381.57 191.748C378.797 190.095 376.6 187.899 374.947 185.126L369.793 188.198C371.957 191.827 374.869 194.739 378.497 196.902L381.57 191.748ZM374.953 185.137C373.33 182.387 372.508 179.347 372.508 175.952H366.508C366.508 180.374 367.594 184.474 369.787 188.187L374.953 185.137ZM372.508 175.952C372.508 172.556 373.33 169.537 374.947 166.824L369.793 163.751C367.594 167.44 366.508 171.53 366.508 175.952H372.508ZM374.953 166.813C376.608 164.011 378.804 161.804 381.57 160.155L378.497 155.001C374.862 157.169 371.949 160.101 369.787 163.762L374.953 166.813ZM381.559 160.161C384.309 158.538 387.348 157.716 390.744 157.716V151.716C386.322 151.716 382.221 152.802 378.508 154.995L381.559 160.161ZM390.744 157.716C394.139 157.716 397.159 158.538 399.872 160.155L402.944 155.001C399.255 152.802 395.166 151.716 390.744 151.716V157.716ZM399.882 160.161C402.678 161.812 404.884 164.018 406.534 166.813L411.701 163.762C409.535 160.094 406.601 157.161 402.933 154.995L399.882 160.161ZM406.54 166.824C408.158 169.537 408.979 172.556 408.979 175.952H414.979C414.979 171.53 413.893 167.44 411.694 163.751L406.54 166.824ZM408.979 175.952C408.979 179.347 408.158 182.387 406.534 185.137L411.701 188.187C413.893 184.474 414.979 180.374 414.979 175.952H408.979ZM406.54 185.126C404.891 187.892 402.685 190.087 399.882 191.742L402.933 196.909C406.594 194.747 409.527 191.834 411.694 188.198L406.54 185.126ZM399.872 191.748C397.159 193.366 394.139 194.188 390.744 194.188V200.188C395.166 200.188 399.255 199.101 402.944 196.902L399.872 191.748ZM390.744 190.955C393.47 190.955 396.019 190.285 398.322 188.919L395.261 183.759C393.931 184.547 392.449 184.955 390.744 184.955V190.955ZM398.322 188.919C400.57 187.585 402.377 185.778 403.711 183.53L398.551 180.469C397.73 181.852 396.644 182.938 395.261 183.759L398.322 188.919ZM403.711 183.53C405.077 181.227 405.747 178.678 405.747 175.952H399.747C399.747 177.657 399.339 179.14 398.551 180.469L403.711 183.53ZM405.747 175.952C405.747 173.225 405.077 170.676 403.711 168.374L398.551 171.435C399.339 172.764 399.747 174.247 399.747 175.952H405.747ZM403.711 168.374C402.377 166.125 400.57 164.318 398.322 162.984L395.261 168.145C396.644 168.966 397.73 170.051 398.551 171.435L403.711 168.374ZM398.322 162.984C396.019 161.619 393.47 160.949 390.744 160.949V166.949C392.449 166.949 393.931 167.356 395.261 168.145L398.322 162.984ZM390.744 160.949C388.017 160.949 385.468 161.619 383.166 162.984L386.227 168.145C387.556 167.356 389.039 166.949 390.744 166.949V160.949ZM383.166 162.984C380.917 164.318 379.11 166.125 377.776 168.374L382.937 171.435C383.758 170.051 384.843 168.966 386.227 168.145L383.166 162.984ZM377.776 168.374C376.411 170.676 375.741 173.225 375.741 175.952H381.741C381.741 174.247 382.148 172.764 382.937 171.435L377.776 168.374ZM375.741 175.952C375.741 178.678 376.411 181.227 377.776 183.53L382.937 180.469C382.148 179.14 381.741 177.657 381.741 175.952H375.741ZM377.776 183.53C379.11 185.778 380.917 187.585 383.166 188.919L386.227 183.759C384.843 182.938 383.758 181.852 382.937 180.469L377.776 183.53ZM383.166 188.919C385.468 190.285 388.017 190.955 390.744 190.955V184.955C389.039 184.955 387.556 184.547 386.227 183.759L383.166 188.919Z" fill="black"/>
<path d="M298.851 314H293.311L309.334 270.364H314.789L330.811 314H325.272L312.232 277.267H311.891L298.851 314ZM300.897 296.955H323.226V301.642H300.897V296.955ZM341.955 294.312V314H336.926V281.273H341.784V286.386H342.211C342.978 284.724 344.142 283.389 345.705 282.381C347.267 281.358 349.284 280.847 351.756 280.847C353.972 280.847 355.911 281.301 357.573 282.21C359.235 283.105 360.527 284.469 361.451 286.301C362.374 288.119 362.836 290.42 362.836 293.205V314H357.807V293.545C357.807 290.974 357.14 288.972 355.804 287.537C354.469 286.088 352.637 285.364 350.307 285.364C348.702 285.364 347.267 285.712 346.003 286.408C344.753 287.104 343.766 288.119 343.042 289.455C342.317 290.79 341.955 292.409 341.955 294.312ZM385.32 314.682C382.365 314.682 379.773 313.979 377.543 312.572C375.327 311.166 373.594 309.199 372.344 306.67C371.108 304.142 370.49 301.187 370.49 297.807C370.49 294.398 371.108 291.422 372.344 288.879C373.594 286.337 375.327 284.362 377.543 282.956C379.773 281.55 382.365 280.847 385.32 280.847C388.274 280.847 390.859 281.55 393.075 282.956C395.305 284.362 397.038 286.337 398.274 288.879C399.524 291.422 400.149 294.398 400.149 297.807C400.149 301.187 399.524 304.142 398.274 306.67C397.038 309.199 395.305 311.166 393.075 312.572C390.859 313.979 388.274 314.682 385.32 314.682ZM385.32 310.165C387.564 310.165 389.411 309.589 390.859 308.439C392.308 307.288 393.381 305.776 394.077 303.901C394.773 302.026 395.121 299.994 395.121 297.807C395.121 295.619 394.773 293.581 394.077 291.692C393.381 289.803 392.308 288.276 390.859 287.111C389.411 285.946 387.564 285.364 385.32 285.364C383.075 285.364 381.229 285.946 379.78 287.111C378.331 288.276 377.259 289.803 376.562 291.692C375.866 293.581 375.518 295.619 375.518 297.807C375.518 299.994 375.866 302.026 376.562 303.901C377.259 305.776 378.331 307.288 379.78 308.439C381.229 309.589 383.075 310.165 385.32 310.165Z" fill="black"/>
<path d="M298.851 314V315H299.557L299.794 314.335L298.851 314ZM293.311 314L292.373 313.655L291.879 315H293.311V314ZM309.334 270.364V269.364H308.636L308.395 270.019L309.334 270.364ZM314.789 270.364L315.727 270.019L315.487 269.364H314.789V270.364ZM330.811 314V315H332.244L331.75 313.655L330.811 314ZM325.272 314L324.329 314.335L324.566 315H325.272V314ZM312.232 277.267L313.174 276.933L312.938 276.267H312.232V277.267ZM311.891 277.267V276.267H311.185L310.949 276.933L311.891 277.267ZM300.897 296.955V295.955H299.897V296.955H300.897ZM323.226 296.955H324.226V295.955H323.226V296.955ZM323.226 301.642V302.642H324.226V301.642H323.226ZM300.897 301.642H299.897V302.642H300.897V301.642ZM298.851 313H293.311V315H298.851V313ZM294.25 314.345L310.273 270.708L308.395 270.019L292.373 313.655L294.25 314.345ZM309.334 271.364H314.789V269.364H309.334V271.364ZM313.85 270.708L329.873 314.345L331.75 313.655L315.727 270.019L313.85 270.708ZM330.811 313H325.272V315H330.811V313ZM326.214 313.665L313.174 276.933L311.29 277.602L324.329 314.335L326.214 313.665ZM312.232 276.267H311.891V278.267H312.232V276.267ZM310.949 276.933L297.909 313.665L299.794 314.335L312.833 277.602L310.949 276.933ZM300.897 297.955H323.226V295.955H300.897V297.955ZM322.226 296.955V301.642H324.226V296.955H322.226ZM323.226 300.642H300.897V302.642H323.226V300.642ZM301.897 301.642V296.955H299.897V301.642H301.897ZM341.955 314V315H342.955V314H341.955ZM336.926 314H335.926V315H336.926V314ZM336.926 281.273V280.273H335.926V281.273H336.926ZM341.784 281.273H342.784V280.273H341.784V281.273ZM341.784 286.386H340.784V287.386H341.784V286.386ZM342.211 286.386V287.386H342.85L343.119 286.805L342.211 286.386ZM345.705 282.381L346.247 283.221L346.253 283.217L345.705 282.381ZM357.573 282.21L357.093 283.088L357.099 283.091L357.573 282.21ZM361.451 286.301L360.558 286.751L360.559 286.754L361.451 286.301ZM362.836 314V315H363.836V314H362.836ZM357.807 314H356.807V315H357.807V314ZM355.804 287.537L355.069 288.215L355.072 288.218L355.804 287.537ZM346.003 286.408L345.521 285.532L345.517 285.534L346.003 286.408ZM343.042 289.455L342.163 288.978L342.163 288.978L343.042 289.455ZM340.955 294.312V314H342.955V294.312H340.955ZM341.955 313H336.926V315H341.955V313ZM337.926 314V281.273H335.926V314H337.926ZM336.926 282.273H341.784V280.273H336.926V282.273ZM340.784 281.273V286.386H342.784V281.273H340.784ZM341.784 287.386H342.211V285.386H341.784V287.386ZM343.119 286.805C343.805 285.319 344.841 284.128 346.247 283.221L345.163 281.54C343.443 282.65 342.15 284.13 341.303 285.967L343.119 286.805ZM346.253 283.217C347.607 282.331 349.417 281.847 351.756 281.847V279.847C349.152 279.847 346.927 280.385 345.157 281.544L346.253 283.217ZM351.756 281.847C353.833 281.847 355.601 282.272 357.093 283.088L358.053 281.333C356.22 280.331 354.111 279.847 351.756 279.847V281.847ZM357.099 283.091C358.564 283.88 359.718 285.085 360.558 286.751L362.344 285.851C361.337 283.852 359.905 282.33 358.047 281.33L357.099 283.091ZM360.559 286.754C361.39 288.39 361.836 290.523 361.836 293.205H363.836C363.836 290.318 363.358 287.849 362.342 285.848L360.559 286.754ZM361.836 293.205V314H363.836V293.205H361.836ZM362.836 313H357.807V315H362.836V313ZM358.807 314V293.545H356.807V314H358.807ZM358.807 293.545C358.807 290.803 358.092 288.527 356.536 286.856L355.072 288.218C356.187 289.416 356.807 291.146 356.807 293.545H358.807ZM356.54 286.859C354.981 285.167 352.861 284.364 350.307 284.364V286.364C352.413 286.364 353.958 287.009 355.069 288.215L356.54 286.859ZM350.307 284.364C348.553 284.364 346.949 284.745 345.521 285.532L346.485 287.284C347.586 286.678 348.851 286.364 350.307 286.364V284.364ZM345.517 285.534C344.09 286.328 342.972 287.486 342.163 288.978L343.921 289.931C344.56 288.752 345.416 287.879 346.49 287.281L345.517 285.534ZM342.163 288.978C341.341 290.492 340.955 292.284 340.955 294.312H342.955C342.955 292.534 343.293 291.088 343.921 289.931L342.163 288.978ZM377.543 312.572L377.007 313.417L377.009 313.418L377.543 312.572ZM372.344 306.67L371.445 307.11L371.447 307.114L372.344 306.67ZM372.344 288.879L371.446 288.438L371.444 288.442L372.344 288.879ZM377.543 282.956L377.009 282.11L377.007 282.112L377.543 282.956ZM393.075 282.956L392.539 283.8L392.542 283.802L393.075 282.956ZM398.274 288.879L397.375 289.316L397.377 289.32L398.274 288.879ZM398.274 306.67L397.378 306.227L397.376 306.231L398.274 306.67ZM393.075 312.572L392.542 311.727L392.539 311.728L393.075 312.572ZM390.859 308.439L390.237 307.656L390.237 307.656L390.859 308.439ZM394.077 303.901L395.014 304.249L395.014 304.249L394.077 303.901ZM394.077 291.692L395.015 291.346L395.015 291.346L394.077 291.692ZM390.859 287.111L391.486 286.331L391.486 286.331L390.859 287.111ZM379.78 287.111L379.153 286.331L379.153 286.331L379.78 287.111ZM376.562 291.692L375.624 291.346L375.624 291.346L376.562 291.692ZM376.562 303.901L375.625 304.249L375.625 304.249L376.562 303.901ZM379.78 308.439L380.402 307.656L380.402 307.656L379.78 308.439ZM385.32 313.682C382.53 313.682 380.128 313.02 378.076 311.727L377.009 313.418C379.418 314.937 382.2 315.682 385.32 315.682V313.682ZM378.078 311.728C376.029 310.427 374.415 308.604 373.24 306.227L371.447 307.114C372.772 309.794 374.625 311.905 377.007 313.417L378.078 311.728ZM373.242 306.231C372.085 303.864 371.49 301.066 371.49 297.807H369.49C369.49 301.309 370.131 304.42 371.445 307.11L373.242 306.231ZM371.49 297.807C371.49 294.518 372.086 291.698 373.243 289.316L371.444 288.442C370.13 291.146 369.49 294.277 369.49 297.807H371.49ZM373.241 289.32C374.417 286.929 376.03 285.1 378.078 283.8L377.007 282.112C374.623 283.624 372.771 285.744 371.446 288.438L373.241 289.32ZM378.076 283.802C380.128 282.508 382.53 281.847 385.32 281.847V279.847C382.2 279.847 379.418 280.591 377.009 282.11L378.076 283.802ZM385.32 281.847C388.109 281.847 390.503 282.508 392.539 283.8L393.611 282.112C391.215 280.591 388.439 279.847 385.32 279.847V281.847ZM392.542 283.802C394.603 285.101 396.214 286.929 397.375 289.316L399.174 288.442C397.862 285.744 396.008 283.623 393.609 282.11L392.542 283.802ZM397.377 289.32C398.547 291.701 399.149 294.52 399.149 297.807H401.149C401.149 294.275 400.501 291.143 399.172 288.438L397.377 289.32ZM399.149 297.807C399.149 301.064 398.547 303.861 397.378 306.227L399.171 307.114C400.501 304.423 401.149 301.311 401.149 297.807H399.149ZM397.376 306.231C396.216 308.605 394.604 310.426 392.542 311.727L393.609 313.418C396.007 311.906 397.861 309.793 399.173 307.11L397.376 306.231ZM392.539 311.728C390.503 313.02 388.109 313.682 385.32 313.682V315.682C388.439 315.682 391.215 314.937 393.611 313.417L392.539 311.728ZM385.32 311.165C387.74 311.165 389.82 310.541 391.481 309.222L390.237 307.656C389.001 308.638 387.388 309.165 385.32 309.165V311.165ZM391.481 309.222C393.085 307.949 394.26 306.28 395.014 304.249L393.139 303.553C392.501 305.271 391.532 306.628 390.237 307.656L391.481 309.222ZM395.014 304.249C395.755 302.252 396.121 300.102 396.121 297.807H394.121C394.121 299.887 393.79 301.799 393.139 303.553L395.014 304.249ZM396.121 297.807C396.121 295.512 395.755 293.355 395.015 291.346L393.138 292.037C393.79 293.807 394.121 295.727 394.121 297.807H396.121ZM395.015 291.346C394.262 289.301 393.088 287.619 391.486 286.331L390.233 287.89C391.529 288.932 392.5 290.304 393.138 292.037L395.015 291.346ZM391.486 286.331C389.825 284.996 387.743 284.364 385.32 284.364V286.364C387.385 286.364 388.996 286.896 390.233 287.89L391.486 286.331ZM385.32 284.364C382.896 284.364 380.814 284.996 379.153 286.331L380.406 287.89C381.643 286.896 383.254 286.364 385.32 286.364V284.364ZM379.153 286.331C377.551 287.619 376.377 289.301 375.624 291.346L377.501 292.037C378.14 290.304 379.111 288.932 380.406 287.89L379.153 286.331ZM375.624 291.346C374.884 293.355 374.518 295.512 374.518 297.807H376.518C376.518 295.727 376.849 293.807 377.501 292.037L375.624 291.346ZM374.518 297.807C374.518 300.102 374.884 302.252 375.625 304.249L377.5 303.553C376.849 301.799 376.518 299.887 376.518 297.807H374.518ZM375.625 304.249C376.379 306.28 377.555 307.949 379.158 309.222L380.402 307.656C379.107 306.628 378.138 305.271 377.5 303.553L375.625 304.249ZM379.158 309.222C380.819 310.541 382.899 311.165 385.32 311.165V309.165C383.251 309.165 381.638 308.638 380.402 307.656L379.158 309.222Z" fill="black"/>
<defs>
<filter id="filter0_d_1_50" x="196" y="72" width="312" height="312" filterUnits="userSpaceOnUse" color-interpolation-filters="sRGB">
<feFlood flood-opacity="0" result="BackgroundImageFix"/>
<feColorMatrix in="SourceAlpha" type="matrix" values="0 0 0 0 0 0 0 0 0 0 0 0 0 0 0 0 0 0 127 0" result="hardAlpha"/>
<feOffset dx="4" dy="5"/>
<feGaussianBlur stdDeviation="2.5"/>
<feComposite in2="hardAlpha" operator="out"/>
<feColorMatrix type="matrix" values="0 0 0 0 0 0 0 0 0 0 0 0 0 0 0 0 0 0 1 0"/>
<feBlend mode="normal" in2="BackgroundImageFix" result="effect1_dropShadow_1_50"/>
<feBlend mode="normal" in="SourceGraphic" in2="effect1_dropShadow_1_50" result="shape"/>
</filter>
<linearGradient id="paint0_linear_1_50" x1="450.301" y1="97" x2="519.665" y2="223.115" gradientUnits="userSpaceOnUse">
<stop offset="0.0361446" stop-color="#69D4F5"/>
<stop offset="1" stop-color="#4EABCC" stop-opacity="0"/>
</linearGradient>
<linearGradient id="paint1_linear_1_50" x1="429.53" y1="292" x2="536.352" y2="452.844" gradientUnits="userSpaceOnUse">
<stop offset="0.0361446" stop-color="#69D4F5"/>
<stop offset="1" stop-color="#D5D5D5" stop-opacity="0"/>
</linearGradient>
<linearGradient id="paint2_linear_1_50" x1="511.651" y1="256" x2="573.242" y2="353.727" gradientUnits="userSpaceOnUse">
<stop offset="0.0361446" stop-color="#69D4F5"/>
<stop offset="1" stop-color="white" stop-opacity="0"/>
</linearGradient>
<linearGradient id="paint3_linear_1_50" x1="193.88" y1="46" x2="277.373" y2="202.361" gradientUnits="userSpaceOnUse">
<stop offset="0.0361446" stop-color="#69D4F5"/>
<stop offset="1" stop-color="#4EABCC" stop-opacity="0"/>
</linearGradient>
<linearGradient id="paint4_linear_1_50" x1="144.964" y1="280" x2="193.044" y2="368.791" gradientUnits="userSpaceOnUse">
<stop offset="0.0361446" stop-color="#69D4F5"/>
<stop offset="1" stop-color="#4EABCC" stop-opacity="0"/>
</linearGradient>
<linearGradient id="paint5_linear_1_50" x1="246.855" y1="315" x2="392.603" y2="519.803" gradientUnits="userSpaceOnUse">
<stop offset="0.0361446" stop-color="#69D4F5"/>
<stop offset="1" stop-color="white" stop-opacity="0"/>
</linearGradient>
<linearGradient id="paint6_linear_1_50" x1="396.699" y1="10" x2="495.434" y2="194.904" gradientUnits="userSpaceOnUse">
<stop offset="0.0361446" stop-color="#69D4F5"/>
<stop offset="1" stop-color="white" stop-opacity="0"/>
</linearGradient>
<linearGradient id="paint7_linear_1_50" x1="248.598" y1="106.905" x2="640.136" y2="542.452" gradientUnits="userSpaceOnUse">
<stop stop-color="#69D4F5"/>
<stop offset="1" stop-color="white" stop-opacity="0"/>
</linearGradient>
</defs>
</svg>
