<svg width="677" height="444" viewBox="0 0 677 444" fill="none" xmlns="http://www.w3.org/2000/svg">
<rect width="677" height="444" fill="white"/>
<ellipse cx="475" cy="147.5" rx="50" ry="51.5" fill="url(#paint0_linear_1_105)"/>
<circle cx="462" cy="345" r="46" fill="url(#paint1_linear_1_105)"/>
<circle cx="524" cy="280" r="25" fill="url(#paint2_linear_1_105)"/>
<ellipse cx="225" cy="108.5" rx="63" ry="62.5" fill="url(#paint3_linear_1_105)"/>
<ellipse cx="163" cy="314.5" rx="36" ry="35.5" fill="url(#paint4_linear_1_105)"/>
<circle cx="276" cy="374" r="59" fill="url(#paint5_linear_1_105)"/>
<ellipse cx="433.5" cy="83" rx="74.5" ry="74" fill="url(#paint6_linear_1_105)"/>
<g filter="url(#filter0_d_1_105)">
<ellipse cx="348" cy="222.5" rx="151" ry="150.5" fill="white"/>
<path d="M489 222.5C489 300.065 425.903 363 348 363C270.097 363 207 300.065 207 222.5C207 144.935 270.097 82 348 82C425.903 82 489 144.935 489 222.5Z" stroke="url(#paint7_linear_1_105)" stroke-width="20"/>
</g>
<path d="M301.415 248V239.69L332.622 205.528C336.285 201.527 339.301 198.05 341.671 195.095C344.04 192.11 345.795 189.309 346.933 186.693C348.103 184.046 348.688 181.277 348.688 178.384C348.688 175.06 347.887 172.182 346.287 169.751C344.717 167.319 342.563 165.442 339.824 164.119C337.085 162.795 334.007 162.134 330.591 162.134C326.959 162.134 323.789 162.888 321.081 164.396C318.403 165.873 316.326 167.95 314.849 170.628C313.402 173.305 312.679 176.445 312.679 180.045H301.784C301.784 174.506 303.061 169.643 305.616 165.457C308.17 161.272 311.648 158.009 316.049 155.67C320.481 153.331 325.451 152.162 330.96 152.162C336.5 152.162 341.409 153.331 345.687 155.67C349.965 158.009 353.319 161.164 355.751 165.134C358.182 169.104 359.398 173.521 359.398 178.384C359.398 181.861 358.767 185.262 357.505 188.586C356.274 191.879 354.12 195.557 351.042 199.619C347.995 203.651 343.763 208.575 338.347 214.392L317.111 237.105V237.844H361.06V248H301.415ZM399.884 195.188C395.976 195.188 392.406 194.233 389.174 192.325C385.973 190.417 383.419 187.863 381.511 184.662C379.603 181.43 378.649 177.86 378.649 173.952C378.649 170.043 379.603 166.488 381.511 163.288C383.419 160.056 385.973 157.486 389.174 155.578C392.406 153.67 395.976 152.716 399.884 152.716C403.793 152.716 407.348 153.67 410.548 155.578C413.78 157.486 416.35 160.056 418.258 163.288C420.166 166.488 421.12 170.043 421.12 173.952C421.12 177.86 420.166 181.43 418.258 184.662C416.35 187.863 413.78 190.417 410.548 192.325C407.348 194.233 403.793 195.188 399.884 195.188ZM399.884 185.955C402.1 185.955 404.116 185.416 405.932 184.339C407.748 183.262 409.194 181.815 410.271 179.999C411.349 178.183 411.887 176.168 411.887 173.952C411.887 171.736 411.349 169.72 410.271 167.904C409.194 166.088 407.748 164.642 405.932 163.565C404.116 162.487 402.1 161.949 399.884 161.949C397.668 161.949 395.653 162.487 393.837 163.565C392.021 164.642 390.574 166.088 389.497 167.904C388.42 169.72 387.881 171.736 387.881 173.952C387.881 176.168 388.42 178.183 389.497 179.999C390.574 181.815 392.021 183.262 393.837 184.339C395.653 185.416 397.668 185.955 399.884 185.955Z" fill="black"/>
<path d="M301.415 248H298.415V251H301.415V248ZM301.415 239.69L299.2 237.667L298.415 238.526V239.69H301.415ZM332.622 205.528L330.409 203.503L330.407 203.505L332.622 205.528ZM341.671 195.095L344.011 196.972L344.016 196.966L344.02 196.96L341.671 195.095ZM346.933 186.693L344.189 185.481L344.186 185.488L344.183 185.496L346.933 186.693ZM346.287 169.751L343.767 171.378L343.774 171.389L343.781 171.4L346.287 169.751ZM339.824 164.119L341.129 161.417L341.129 161.417L339.824 164.119ZM321.081 164.396L322.53 167.022L322.541 167.017L321.081 164.396ZM314.849 170.628L312.222 169.179L312.216 169.19L312.209 169.202L314.849 170.628ZM312.679 180.045V183.045H315.679V180.045H312.679ZM301.784 180.045H298.784V183.045H301.784V180.045ZM305.616 165.457L308.177 167.02L308.177 167.02L305.616 165.457ZM316.049 155.67L314.649 153.017L314.641 153.021L316.049 155.67ZM345.687 155.67L347.126 153.038L347.126 153.038L345.687 155.67ZM355.751 165.134L353.192 166.701L355.751 165.134ZM357.505 188.586L354.7 187.521L354.698 187.528L354.695 187.535L357.505 188.586ZM351.042 199.619L348.651 197.808L348.649 197.811L351.042 199.619ZM338.347 214.392L340.538 216.441L340.542 216.437L338.347 214.392ZM317.111 237.105L314.919 235.056L314.111 235.921V237.105H317.111ZM317.111 237.844H314.111V240.844H317.111V237.844ZM361.06 237.844H364.06V234.844H361.06V237.844ZM361.06 248V251H364.06V248H361.06ZM304.415 248V239.69H298.415V248H304.415ZM303.63 241.714L334.837 207.552L330.407 203.505L299.2 237.667L303.63 241.714ZM334.835 207.554C338.525 203.524 341.587 199.994 344.011 196.972L339.33 193.218C337.015 196.105 334.045 199.531 330.409 203.503L334.835 207.554ZM344.02 196.96C346.502 193.835 348.413 190.81 349.684 187.891L344.183 185.496C343.176 187.808 341.579 190.385 339.321 193.23L344.02 196.96ZM349.677 187.906C351.016 184.877 351.688 181.694 351.688 178.384H345.688C345.688 180.859 345.19 183.216 344.189 185.481L349.677 187.906ZM351.688 178.384C351.688 174.559 350.76 171.089 348.793 168.101L343.781 171.4C345.015 173.275 345.688 175.56 345.688 178.384H351.688ZM348.807 168.124C346.923 165.205 344.338 162.968 341.129 161.417L338.519 166.82C340.788 167.916 342.511 169.433 343.767 171.378L348.807 168.124ZM341.129 161.417C337.935 159.874 334.403 159.134 330.591 159.134V165.134C333.611 165.134 336.234 165.716 338.519 166.82L341.129 161.417ZM330.591 159.134C326.537 159.134 322.847 159.978 319.622 161.775L322.541 167.017C324.731 165.797 327.382 165.134 330.591 165.134V159.134ZM319.632 161.769C316.459 163.52 313.973 166.005 312.222 169.179L317.476 172.077C318.679 169.895 320.348 168.226 322.53 167.022L319.632 161.769ZM312.209 169.202C310.486 172.391 309.679 176.038 309.679 180.045H315.679C315.679 176.851 316.318 174.22 317.488 172.054L312.209 169.202ZM312.679 177.045H301.784V183.045H312.679V177.045ZM304.784 180.045C304.784 174.984 305.945 170.676 308.177 167.02L303.055 163.895C300.177 168.61 298.784 174.028 298.784 180.045H304.784ZM308.177 167.02C310.446 163.301 313.522 160.411 317.457 158.32L314.641 153.021C309.774 155.608 305.894 159.242 303.055 163.895L308.177 167.02ZM317.449 158.324C321.408 156.234 325.89 155.162 330.96 155.162V149.162C325.013 149.162 319.554 150.428 314.649 153.017L317.449 158.324ZM330.96 155.162C336.067 155.162 340.468 156.236 344.248 158.303L347.126 153.038C342.35 150.427 336.934 149.162 330.96 149.162V155.162ZM344.248 158.303C348.089 160.403 351.048 163.199 353.192 166.701L358.309 163.567C355.591 159.129 351.841 155.616 347.126 153.038L344.248 158.303ZM353.192 166.701C355.322 170.178 356.398 174.048 356.398 178.384H362.398C362.398 172.994 361.042 168.031 358.309 163.567L353.192 166.701ZM356.398 178.384C356.398 181.489 355.836 184.53 354.7 187.521L360.31 189.651C361.698 185.994 362.398 182.233 362.398 178.384H356.398ZM354.695 187.535C353.6 190.464 351.624 193.883 348.651 197.808L353.433 201.431C356.615 197.231 358.948 193.295 360.315 189.636L354.695 187.535ZM348.649 197.811C345.688 201.728 341.533 206.569 336.151 212.348L340.542 216.437C345.994 210.582 350.302 205.574 353.435 201.428L348.649 197.811ZM336.155 212.343L314.919 235.056L319.302 239.154L340.538 216.441L336.155 212.343ZM314.111 237.105V237.844H320.111V237.105H314.111ZM317.111 240.844H361.06V234.844H317.111V240.844ZM358.06 237.844V248H364.06V237.844H358.06ZM361.06 245H301.415V251H361.06V245ZM389.174 192.325L387.638 194.902L387.649 194.909L389.174 192.325ZM381.511 184.662L378.927 186.187L378.934 186.198L381.511 184.662ZM381.511 163.288L384.088 164.824L384.094 164.813L381.511 163.288ZM389.174 155.578L387.649 152.995L387.638 153.001L389.174 155.578ZM410.548 155.578L409.012 158.155L409.023 158.161L410.548 155.578ZM418.258 163.288L415.675 164.813L415.681 164.824L418.258 163.288ZM418.258 184.662L420.835 186.198L420.841 186.187L418.258 184.662ZM410.548 192.325L409.023 189.742L409.012 189.748L410.548 192.325ZM405.932 184.339L407.463 186.919L407.463 186.919L405.932 184.339ZM410.271 179.999L412.852 181.53L412.852 181.53L410.271 179.999ZM410.271 167.904L412.852 166.374L412.852 166.374L410.271 167.904ZM405.932 163.565L407.463 160.984L407.463 160.984L405.932 163.565ZM393.837 163.565L392.306 160.984L392.306 160.984L393.837 163.565ZM389.497 167.904L386.917 166.374L386.917 166.374L389.497 167.904ZM389.497 179.999L386.917 181.53L386.917 181.53L389.497 179.999ZM399.884 192.188C396.489 192.188 393.449 191.366 390.699 189.742L387.649 194.909C391.362 197.101 395.462 198.188 399.884 198.188V192.188ZM390.71 189.748C387.937 188.095 385.741 185.899 384.088 183.126L378.934 186.198C381.097 189.827 384.009 192.739 387.638 194.902L390.71 189.748ZM384.094 183.137C382.47 180.387 381.649 177.347 381.649 173.952H375.649C375.649 178.374 376.735 182.474 378.927 186.187L384.094 183.137ZM381.649 173.952C381.649 170.556 382.47 167.537 384.088 164.824L378.934 161.751C376.735 165.44 375.649 169.53 375.649 173.952H381.649ZM384.094 164.813C385.749 162.011 387.944 159.804 390.71 158.155L387.638 153.001C384.002 155.169 381.089 158.101 378.927 161.762L384.094 164.813ZM390.699 158.161C393.449 156.538 396.489 155.716 399.884 155.716V149.716C395.462 149.716 391.362 150.802 387.649 152.995L390.699 158.161ZM399.884 155.716C403.28 155.716 406.299 156.538 409.012 158.155L412.085 153.001C408.396 150.802 404.306 149.716 399.884 149.716V155.716ZM409.023 158.161C411.818 159.812 414.024 162.018 415.675 164.813L420.841 161.762C418.675 158.094 415.742 155.161 412.074 152.995L409.023 158.161ZM415.681 164.824C417.298 167.537 418.12 170.556 418.12 173.952H424.12C424.12 169.53 423.034 165.44 420.835 161.751L415.681 164.824ZM418.12 173.952C418.12 177.347 417.298 180.387 415.675 183.137L420.841 186.187C423.034 182.474 424.12 178.374 424.12 173.952H418.12ZM415.681 183.126C414.032 185.892 411.825 188.087 409.023 189.742L412.074 194.909C415.735 192.747 418.667 189.834 420.835 186.198L415.681 183.126ZM409.012 189.748C406.299 191.366 403.28 192.188 399.884 192.188V198.188C404.306 198.188 408.396 197.101 412.085 194.902L409.012 189.748ZM399.884 188.955C402.611 188.955 405.16 188.285 407.463 186.919L404.401 181.759C403.072 182.547 401.589 182.955 399.884 182.955V188.955ZM407.463 186.919C409.711 185.585 411.518 183.778 412.852 181.53L407.691 178.469C406.87 179.852 405.785 180.938 404.401 181.759L407.463 186.919ZM412.852 181.53C414.217 179.227 414.887 176.678 414.887 173.952H408.887C408.887 175.657 408.48 177.14 407.691 178.469L412.852 181.53ZM414.887 173.952C414.887 171.225 414.217 168.676 412.852 166.374L407.691 169.435C408.48 170.764 408.887 172.247 408.887 173.952H414.887ZM412.852 166.374C411.518 164.125 409.711 162.318 407.463 160.984L404.401 166.145C405.785 166.966 406.87 168.051 407.691 169.435L412.852 166.374ZM407.463 160.984C405.16 159.619 402.611 158.949 399.884 158.949V164.949C401.589 164.949 403.072 165.356 404.401 166.145L407.463 160.984ZM399.884 158.949C397.158 158.949 394.609 159.619 392.306 160.984L395.367 166.145C396.697 165.356 398.179 164.949 399.884 164.949V158.949ZM392.306 160.984C390.058 162.318 388.251 164.125 386.917 166.374L392.077 169.435C392.898 168.051 393.984 166.966 395.367 166.145L392.306 160.984ZM386.917 166.374C385.551 168.676 384.881 171.225 384.881 173.952H390.881C390.881 172.247 391.289 170.764 392.077 169.435L386.917 166.374ZM384.881 173.952C384.881 176.678 385.551 179.227 386.917 181.53L392.077 178.469C391.289 177.14 390.881 175.657 390.881 173.952H384.881ZM386.917 181.53C388.251 183.778 390.058 185.585 392.306 186.919L395.367 181.759C393.984 180.938 392.898 179.852 392.077 178.469L386.917 181.53ZM392.306 186.919C394.609 188.285 397.158 188.955 399.884 188.955V182.955C398.179 182.955 396.697 182.547 395.367 181.759L392.306 186.919Z" fill="black"/>
<path d="M298.851 314H293.311L309.334 270.364H314.789L330.811 314H325.272L312.232 277.267H311.891L298.851 314ZM300.897 296.955H323.226V301.642H300.897V296.955ZM341.955 294.312V314H336.926V281.273H341.784V286.386H342.211C342.978 284.724 344.142 283.389 345.705 282.381C347.267 281.358 349.284 280.847 351.756 280.847C353.972 280.847 355.911 281.301 357.573 282.21C359.235 283.105 360.527 284.469 361.451 286.301C362.374 288.119 362.836 290.42 362.836 293.205V314H357.807V293.545C357.807 290.974 357.14 288.972 355.804 287.537C354.469 286.088 352.637 285.364 350.307 285.364C348.702 285.364 347.267 285.712 346.003 286.408C344.753 287.104 343.766 288.119 343.042 289.455C342.317 290.79 341.955 292.409 341.955 294.312ZM385.32 314.682C382.365 314.682 379.773 313.979 377.543 312.572C375.327 311.166 373.594 309.199 372.344 306.67C371.108 304.142 370.49 301.187 370.49 297.807C370.49 294.398 371.108 291.422 372.344 288.879C373.594 286.337 375.327 284.362 377.543 282.956C379.773 281.55 382.365 280.847 385.32 280.847C388.274 280.847 390.859 281.55 393.075 282.956C395.305 284.362 397.038 286.337 398.274 288.879C399.524 291.422 400.149 294.398 400.149 297.807C400.149 301.187 399.524 304.142 398.274 306.67C397.038 309.199 395.305 311.166 393.075 312.572C390.859 313.979 388.274 314.682 385.32 314.682ZM385.32 310.165C387.564 310.165 389.411 309.589 390.859 308.439C392.308 307.288 393.381 305.776 394.077 303.901C394.773 302.026 395.121 299.994 395.121 297.807C395.121 295.619 394.773 293.581 394.077 291.692C393.381 289.803 392.308 288.276 390.859 287.111C389.411 285.946 387.564 285.364 385.32 285.364C383.075 285.364 381.229 285.946 379.78 287.111C378.331 288.276 377.259 289.803 376.562 291.692C375.866 293.581 375.518 295.619 375.518 297.807C375.518 299.994 375.866 302.026 376.562 303.901C377.259 305.776 378.331 307.288 379.78 308.439C381.229 309.589 383.075 310.165 385.32 310.165Z" fill="black"/>
<path d="M298.851 314V315H299.557L299.794 314.335L298.851 314ZM293.311 314L292.373 313.655L291.879 315H293.311V314ZM309.334 270.364V269.364H308.636L308.395 270.019L309.334 270.364ZM314.789 270.364L315.727 270.019L315.487 269.364H314.789V270.364ZM330.811 314V315H332.244L331.75 313.655L330.811 314ZM325.272 314L324.329 314.335L324.566 315H325.272V314ZM312.232 277.267L313.174 276.933L312.938 276.267H312.232V277.267ZM311.891 277.267V276.267H311.185L310.949 276.933L311.891 277.267ZM300.897 296.955V295.955H299.897V296.955H300.897ZM323.226 296.955H324.226V295.955H323.226V296.955ZM323.226 301.642V302.642H324.226V301.642H323.226ZM300.897 301.642H299.897V302.642H300.897V301.642ZM298.851 313H293.311V315H298.851V313ZM294.25 314.345L310.273 270.708L308.395 270.019L292.373 313.655L294.25 314.345ZM309.334 271.364H314.789V269.364H309.334V271.364ZM313.85 270.708L329.873 314.345L331.75 313.655L315.727 270.019L313.85 270.708ZM330.811 313H325.272V315H330.811V313ZM326.214 313.665L313.174 276.933L311.29 277.602L324.329 314.335L326.214 313.665ZM312.232 276.267H311.891V278.267H312.232V276.267ZM310.949 276.933L297.909 313.665L299.794 314.335L312.833 277.602L310.949 276.933ZM300.897 297.955H323.226V295.955H300.897V297.955ZM322.226 296.955V301.642H324.226V296.955H322.226ZM323.226 300.642H300.897V302.642H323.226V300.642ZM301.897 301.642V296.955H299.897V301.642H301.897ZM341.955 314V315H342.955V314H341.955ZM336.926 314H335.926V315H336.926V314ZM336.926 281.273V280.273H335.926V281.273H336.926ZM341.784 281.273H342.784V280.273H341.784V281.273ZM341.784 286.386H340.784V287.386H341.784V286.386ZM342.211 286.386V287.386H342.85L343.119 286.805L342.211 286.386ZM345.705 282.381L346.247 283.221L346.253 283.217L345.705 282.381ZM357.573 282.21L357.093 283.088L357.099 283.091L357.573 282.21ZM361.451 286.301L360.558 286.751L360.559 286.754L361.451 286.301ZM362.836 314V315H363.836V314H362.836ZM357.807 314H356.807V315H357.807V314ZM355.804 287.537L355.069 288.215L355.072 288.218L355.804 287.537ZM346.003 286.408L345.521 285.532L345.517 285.534L346.003 286.408ZM343.042 289.455L342.163 288.978L342.163 288.978L343.042 289.455ZM340.955 294.312V314H342.955V294.312H340.955ZM341.955 313H336.926V315H341.955V313ZM337.926 314V281.273H335.926V314H337.926ZM336.926 282.273H341.784V280.273H336.926V282.273ZM340.784 281.273V286.386H342.784V281.273H340.784ZM341.784 287.386H342.211V285.386H341.784V287.386ZM343.119 286.805C343.805 285.319 344.841 284.128 346.247 283.221L345.163 281.54C343.443 282.65 342.15 284.13 341.303 285.967L343.119 286.805ZM346.253 283.217C347.607 282.331 349.417 281.847 351.756 281.847V279.847C349.152 279.847 346.927 280.385 345.157 281.544L346.253 283.217ZM351.756 281.847C353.833 281.847 355.601 282.272 357.093 283.088L358.053 281.333C356.22 280.331 354.111 279.847 351.756 279.847V281.847ZM357.099 283.091C358.564 283.88 359.718 285.085 360.558 286.751L362.344 285.851C361.337 283.852 359.905 282.33 358.047 281.33L357.099 283.091ZM360.559 286.754C361.39 288.39 361.836 290.523 361.836 293.205H363.836C363.836 290.318 363.358 287.849 362.342 285.848L360.559 286.754ZM361.836 293.205V314H363.836V293.205H361.836ZM362.836 313H357.807V315H362.836V313ZM358.807 314V293.545H356.807V314H358.807ZM358.807 293.545C358.807 290.803 358.092 288.527 356.536 286.856L355.072 288.218C356.187 289.416 356.807 291.146 356.807 293.545H358.807ZM356.54 286.859C354.981 285.167 352.861 284.364 350.307 284.364V286.364C352.413 286.364 353.958 287.009 355.069 288.215L356.54 286.859ZM350.307 284.364C348.553 284.364 346.949 284.745 345.521 285.532L346.485 287.284C347.586 286.678 348.851 286.364 350.307 286.364V284.364ZM345.517 285.534C344.09 286.328 342.972 287.486 342.163 288.978L343.921 289.931C344.56 288.752 345.416 287.879 346.49 287.281L345.517 285.534ZM342.163 288.978C341.341 290.492 340.955 292.284 340.955 294.312H342.955C342.955 292.534 343.293 291.088 343.921 289.931L342.163 288.978ZM377.543 312.572L377.007 313.417L377.009 313.418L377.543 312.572ZM372.344 306.67L371.445 307.11L371.447 307.114L372.344 306.67ZM372.344 288.879L371.446 288.438L371.444 288.442L372.344 288.879ZM377.543 282.956L377.009 282.11L377.007 282.112L377.543 282.956ZM393.075 282.956L392.539 283.8L392.542 283.802L393.075 282.956ZM398.274 288.879L397.375 289.316L397.377 289.32L398.274 288.879ZM398.274 306.67L397.378 306.227L397.376 306.231L398.274 306.67ZM393.075 312.572L392.542 311.727L392.539 311.728L393.075 312.572ZM390.859 308.439L390.237 307.656L390.237 307.656L390.859 308.439ZM394.077 303.901L395.014 304.249L395.014 304.249L394.077 303.901ZM394.077 291.692L395.015 291.346L395.015 291.346L394.077 291.692ZM390.859 287.111L391.486 286.331L391.486 286.331L390.859 287.111ZM379.78 287.111L379.153 286.331L379.153 286.331L379.78 287.111ZM376.562 291.692L375.624 291.346L375.624 291.346L376.562 291.692ZM376.562 303.901L375.625 304.249L375.625 304.249L376.562 303.901ZM379.78 308.439L380.402 307.656L380.402 307.656L379.78 308.439ZM385.32 313.682C382.53 313.682 380.128 313.02 378.076 311.727L377.009 313.418C379.418 314.937 382.2 315.682 385.32 315.682V313.682ZM378.078 311.728C376.029 310.427 374.415 308.604 373.24 306.227L371.447 307.114C372.772 309.794 374.625 311.905 377.007 313.417L378.078 311.728ZM373.242 306.231C372.085 303.864 371.49 301.066 371.49 297.807H369.49C369.49 301.309 370.131 304.42 371.445 307.11L373.242 306.231ZM371.49 297.807C371.49 294.518 372.086 291.698 373.243 289.316L371.444 288.442C370.13 291.146 369.49 294.277 369.49 297.807H371.49ZM373.241 289.32C374.417 286.929 376.03 285.1 378.078 283.8L377.007 282.112C374.623 283.624 372.771 285.744 371.446 288.438L373.241 289.32ZM378.076 283.802C380.128 282.508 382.53 281.847 385.32 281.847V279.847C382.2 279.847 379.418 280.591 377.009 282.11L378.076 283.802ZM385.32 281.847C388.109 281.847 390.503 282.508 392.539 283.8L393.611 282.112C391.215 280.591 388.439 279.847 385.32 279.847V281.847ZM392.542 283.802C394.603 285.101 396.214 286.929 397.375 289.316L399.174 288.442C397.862 285.744 396.008 283.623 393.609 282.11L392.542 283.802ZM397.377 289.32C398.547 291.701 399.149 294.52 399.149 297.807H401.149C401.149 294.275 400.501 291.143 399.172 288.438L397.377 289.32ZM399.149 297.807C399.149 301.064 398.547 303.861 397.378 306.227L399.171 307.114C400.501 304.423 401.149 301.311 401.149 297.807H399.149ZM397.376 306.231C396.216 308.605 394.604 310.426 392.542 311.727L393.609 313.418C396.007 311.906 397.861 309.793 399.173 307.11L397.376 306.231ZM392.539 311.728C390.503 313.02 388.109 313.682 385.32 313.682V315.682C388.439 315.682 391.215 314.937 393.611 313.417L392.539 311.728ZM385.32 311.165C387.74 311.165 389.82 310.541 391.481 309.222L390.237 307.656C389.001 308.638 387.388 309.165 385.32 309.165V311.165ZM391.481 309.222C393.085 307.949 394.26 306.28 395.014 304.249L393.139 303.553C392.501 305.271 391.532 306.628 390.237 307.656L391.481 309.222ZM395.014 304.249C395.755 302.252 396.121 300.102 396.121 297.807H394.121C394.121 299.887 393.79 301.799 393.139 303.553L395.014 304.249ZM396.121 297.807C396.121 295.512 395.755 293.355 395.015 291.346L393.138 292.037C393.79 293.807 394.121 295.727 394.121 297.807H396.121ZM395.015 291.346C394.262 289.301 393.088 287.619 391.486 286.331L390.233 287.89C391.529 288.932 392.5 290.304 393.138 292.037L395.015 291.346ZM391.486 286.331C389.825 284.996 387.743 284.364 385.32 284.364V286.364C387.385 286.364 388.996 286.896 390.233 287.89L391.486 286.331ZM385.32 284.364C382.896 284.364 380.814 284.996 379.153 286.331L380.406 287.89C381.643 286.896 383.254 286.364 385.32 286.364V284.364ZM379.153 286.331C377.551 287.619 376.377 289.301 375.624 291.346L377.501 292.037C378.14 290.304 379.111 288.932 380.406 287.89L379.153 286.331ZM375.624 291.346C374.884 293.355 374.518 295.512 374.518 297.807H376.518C376.518 295.727 376.849 293.807 377.501 292.037L375.624 291.346ZM374.518 297.807C374.518 300.102 374.884 302.252 375.625 304.249L377.5 303.553C376.849 301.799 376.518 299.887 376.518 297.807H374.518ZM375.625 304.249C376.379 306.28 377.555 307.949 379.158 309.222L380.402 307.656C379.107 306.628 378.138 305.271 377.5 303.553L375.625 304.249ZM379.158 309.222C380.819 310.541 382.899 311.165 385.32 311.165V309.165C383.251 309.165 381.638 308.638 380.402 307.656L379.158 309.222Z" fill="black"/>
<defs>
<filter id="filter0_d_1_105" x="196" y="72" width="312" height="311" filterUnits="userSpaceOnUse" color-interpolation-filters="sRGB">
<feFlood flood-opacity="0" result="BackgroundImageFix"/>
<feColorMatrix in="SourceAlpha" type="matrix" values="0 0 0 0 0 0 0 0 0 0 0 0 0 0 0 0 0 0 127 0" result="hardAlpha"/>
<feOffset dx="4" dy="5"/>
<feGaussianBlur stdDeviation="2.5"/>
<feComposite in2="hardAlpha" operator="out"/>
<feColorMatrix type="matrix" values="0 0 0 0 0 0 0 0 0 0 0 0 0 0 0 0 0 0 1 0"/>
<feBlend mode="normal" in2="BackgroundImageFix" result="effect1_dropShadow_1_105"/>
<feBlend mode="normal" in="SourceGraphic" in2="effect1_dropShadow_1_105" result="shape"/>
</filter>
<linearGradient id="paint0_linear_1_105" x1="450.301" y1="96" x2="519.665" y2="222.115" gradientUnits="userSpaceOnUse">
<stop offset="0.0361446" stop-color="#788BF5"/>
<stop offset="1" stop-color="white" stop-opacity="0"/>
</linearGradient>
<linearGradient id="paint1_linear_1_105" x1="439.277" y1="299" x2="527.607" y2="428.705" gradientUnits="userSpaceOnUse">
<stop offset="0.0361446" stop-color="#788BF5"/>
<stop offset="1" stop-color="white" stop-opacity="0"/>
</linearGradient>
<linearGradient id="paint2_linear_1_105" x1="511.651" y1="255" x2="544.783" y2="317.048" gradientUnits="userSpaceOnUse">
<stop offset="0.0361446" stop-color="#788BF5"/>
<stop offset="1" stop-color="white" stop-opacity="0"/>
</linearGradient>
<linearGradient id="paint3_linear_1_105" x1="254.602" y1="142.386" x2="90.1605" y2="10.0837" gradientUnits="userSpaceOnUse">
<stop offset="0.0361446" stop-color="#788BF5"/>
<stop offset="1" stop-color="white" stop-opacity="0"/>
</linearGradient>
<linearGradient id="paint4_linear_1_105" x1="145.217" y1="279" x2="212.815" y2="409.693" gradientUnits="userSpaceOnUse">
<stop offset="0.0361446" stop-color="#788BF5"/>
<stop offset="1" stop-color="white" stop-opacity="0"/>
</linearGradient>
<linearGradient id="paint5_linear_1_105" x1="246.855" y1="315" x2="350.128" y2="505.615" gradientUnits="userSpaceOnUse">
<stop offset="0.0361446" stop-color="#788BF5"/>
<stop offset="1" stop-color="white" stop-opacity="0"/>
</linearGradient>
<linearGradient id="paint6_linear_1_105" x1="371.163" y1="24.102" x2="597.894" y2="223.452" gradientUnits="userSpaceOnUse">
<stop stop-color="#788BF5"/>
<stop offset="1" stop-color="white" stop-opacity="0"/>
</linearGradient>
<linearGradient id="paint7_linear_1_105" x1="248.598" y1="106.789" x2="638.7" y2="542.181" gradientUnits="userSpaceOnUse">
<stop stop-color="#788BF5"/>
<stop offset="1" stop-color="white" stop-opacity="0"/>
</linearGradient>
</defs>
</svg>
