<svg width="677" height="444" viewBox="0 0 677 444" fill="none" xmlns="http://www.w3.org/2000/svg">
<rect width="677" height="444" fill="white"/>
<ellipse cx="460.5" cy="148.5" rx="49.5" ry="51.5" fill="url(#paint0_linear_1_116)"/>
<circle cx="448" cy="347" r="46" fill="url(#paint1_linear_1_116)"/>
<circle cx="510" cy="282" r="25" fill="url(#paint2_linear_1_116)"/>
<circle cx="210.5" cy="109.5" r="62.5" fill="url(#paint3_linear_1_116)"/>
<circle cx="148.5" cy="316.5" r="35.5" fill="url(#paint4_linear_1_116)"/>
<circle cx="261" cy="375" r="59" fill="url(#paint5_linear_1_116)"/>
<ellipse cx="419.5" cy="85" rx="74.5" ry="74" fill="url(#paint6_linear_1_116)"/>
<g filter="url(#filter0_d_1_116)">
<ellipse cx="334" cy="223.5" rx="151" ry="150.5" fill="white"/>
<path d="M475 223.5C475 301.065 411.903 364 334 364C256.097 364 193 301.065 193 223.5C193 145.935 256.097 83 334 83C411.903 83 475 145.935 475 223.5Z" stroke="url(#paint7_linear_1_116)" stroke-width="20"/>
</g>
<path d="M331.33 249.293C325.236 249.293 319.804 248.246 315.033 246.153C310.294 244.061 306.524 241.152 303.723 237.428C300.953 233.674 299.445 229.319 299.199 224.364H310.832C311.079 227.411 312.125 230.042 313.972 232.258C315.818 234.443 318.234 236.136 321.22 237.336C324.205 238.536 327.513 239.136 331.145 239.136C335.207 239.136 338.808 238.429 341.948 237.013C345.087 235.597 347.549 233.627 349.334 231.104C351.119 228.58 352.011 225.656 352.011 222.332C352.011 218.855 351.15 215.792 349.426 213.146C347.703 210.468 345.179 208.375 341.855 206.867C338.531 205.359 334.469 204.605 329.668 204.605H322.097V194.449H329.668C333.422 194.449 336.716 193.772 339.547 192.418C342.409 191.063 344.64 189.155 346.241 186.693C347.872 184.231 348.688 181.338 348.688 178.014C348.688 174.813 347.98 172.028 346.564 169.658C345.148 167.289 343.148 165.442 340.563 164.119C338.008 162.795 334.992 162.134 331.514 162.134C328.252 162.134 325.174 162.734 322.281 163.934C319.419 165.103 317.08 166.812 315.264 169.058C313.448 171.274 312.464 173.952 312.31 177.091H301.23C301.415 172.136 302.908 167.796 305.708 164.072C308.509 160.318 312.171 157.394 316.695 155.301C321.25 153.208 326.252 152.162 331.699 152.162C337.546 152.162 342.563 153.347 346.749 155.717C350.934 158.056 354.15 161.149 356.397 164.996C358.644 168.843 359.767 172.998 359.767 177.46C359.767 182.785 358.367 187.324 355.566 191.079C352.796 194.834 349.026 197.434 344.256 198.881V199.619C350.226 200.604 354.889 203.143 358.244 207.237C361.598 211.299 363.276 216.331 363.276 222.332C363.276 227.472 361.875 232.089 359.075 236.182C356.305 240.244 352.519 243.445 347.718 245.784C342.917 248.123 337.454 249.293 331.33 249.293ZM401.916 195.188C398.007 195.188 394.437 194.233 391.205 192.325C388.005 190.417 385.45 187.863 383.542 184.662C381.634 181.43 380.68 177.86 380.68 173.952C380.68 170.043 381.634 166.488 383.542 163.288C385.45 160.056 388.005 157.486 391.205 155.578C394.437 153.67 398.007 152.716 401.916 152.716C405.824 152.716 409.379 153.67 412.58 155.578C415.811 157.486 418.381 160.056 420.289 163.288C422.197 166.488 423.151 170.043 423.151 173.952C423.151 177.86 422.197 181.43 420.289 184.662C418.381 187.863 415.811 190.417 412.58 192.325C409.379 194.233 405.824 195.188 401.916 195.188ZM401.916 185.955C404.131 185.955 406.147 185.416 407.963 184.339C409.779 183.262 411.225 181.815 412.303 179.999C413.38 178.183 413.918 176.168 413.918 173.952C413.918 171.736 413.38 169.72 412.303 167.904C411.225 166.088 409.779 164.642 407.963 163.565C406.147 162.487 404.131 161.949 401.916 161.949C399.7 161.949 397.684 162.487 395.868 163.565C394.052 164.642 392.606 166.088 391.528 167.904C390.451 169.72 389.913 171.736 389.913 173.952C389.913 176.168 390.451 178.183 391.528 179.999C392.606 181.815 394.052 183.262 395.868 184.339C397.684 185.416 399.7 185.955 401.916 185.955Z" fill="black"/>
<path d="M315.033 246.153L313.822 248.898L313.828 248.901L315.033 246.153ZM303.723 237.428L301.309 239.209L301.317 239.22L301.325 239.231L303.723 237.428ZM299.199 224.364V221.364H296.046L296.203 224.513L299.199 224.364ZM310.832 224.364L313.823 224.122L313.6 221.364H310.832V224.364ZM313.972 232.258L311.667 234.178L311.674 234.186L311.68 234.194L313.972 232.258ZM321.22 237.336L320.1 240.119L320.1 240.119L321.22 237.336ZM349.334 231.104L346.885 229.371L346.885 229.371L349.334 231.104ZM349.426 213.146L346.904 214.769L346.908 214.776L346.912 214.783L349.426 213.146ZM341.855 206.867L340.616 209.599L340.616 209.599L341.855 206.867ZM322.097 204.605H319.097V207.605H322.097V204.605ZM322.097 194.449V191.449H319.097V194.449H322.097ZM339.547 192.418L338.264 189.706L338.253 189.711L339.547 192.418ZM346.241 186.693L343.74 185.036L343.733 185.047L343.726 185.058L346.241 186.693ZM346.564 169.658L349.139 168.12L349.139 168.12L346.564 169.658ZM340.563 164.119L339.183 166.782L339.189 166.786L339.196 166.789L340.563 164.119ZM322.281 163.934L323.416 166.711L323.424 166.708L323.431 166.705L322.281 163.934ZM315.264 169.058L317.585 170.96L317.591 170.952L317.598 170.944L315.264 169.058ZM312.31 177.091V180.091H315.166L315.306 177.238L312.31 177.091ZM301.23 177.091L298.232 176.979L298.116 180.091H301.23V177.091ZM305.708 164.072L308.106 165.876L308.113 165.866L305.708 164.072ZM316.695 155.301L315.443 152.575L315.436 152.578L316.695 155.301ZM346.749 155.717L345.271 158.327L345.278 158.331L345.285 158.335L346.749 155.717ZM356.397 164.996L353.807 166.509L353.807 166.509L356.397 164.996ZM355.566 191.079L353.161 189.285L353.157 189.292L353.152 189.298L355.566 191.079ZM344.256 198.881L343.385 196.01L341.256 196.655V198.881H344.256ZM344.256 199.619H341.256V202.165L343.768 202.579L344.256 199.619ZM358.244 207.237L355.923 209.138L355.93 209.147L358.244 207.237ZM359.075 236.182L356.599 234.488L356.596 234.492L359.075 236.182ZM347.718 245.784L349.032 248.481L349.032 248.481L347.718 245.784ZM331.33 246.293C325.581 246.293 320.57 245.306 316.239 243.406L313.828 248.901C319.038 251.186 324.891 252.293 331.33 252.293V246.293ZM316.245 243.409C311.921 241.5 308.58 238.895 306.121 235.625L301.325 239.231C304.468 243.41 308.666 246.621 313.822 248.898L316.245 243.409ZM306.137 235.647C303.74 232.398 302.414 228.62 302.195 224.215L296.203 224.513C296.476 230.018 298.166 234.949 301.309 239.209L306.137 235.647ZM299.199 227.364H310.832V221.364H299.199V227.364ZM307.842 224.605C308.135 228.23 309.4 231.458 311.667 234.178L316.276 230.337C314.85 228.626 314.022 226.591 313.823 224.122L307.842 224.605ZM311.68 234.194C313.88 236.798 316.718 238.76 320.1 240.119L322.339 234.552C319.75 233.512 317.756 232.088 316.263 230.321L311.68 234.194ZM320.1 240.119C323.484 241.48 327.179 242.136 331.145 242.136V236.136C327.848 236.136 324.925 235.592 322.339 234.552L320.1 240.119ZM331.145 242.136C335.557 242.136 339.591 241.367 343.181 239.748L340.714 234.278C338.026 235.49 334.858 236.136 331.145 236.136V242.136ZM343.181 239.748C346.75 238.138 349.655 235.845 351.783 232.836L346.885 229.371C345.443 231.41 343.423 233.056 340.714 234.278L343.181 239.748ZM351.783 232.836C353.954 229.767 355.011 226.227 355.011 222.332H349.011C349.011 225.085 348.284 227.393 346.885 229.371L351.783 232.836ZM355.011 222.332C355.011 218.334 354.013 214.691 351.94 211.509L346.912 214.783C348.287 216.894 349.011 219.375 349.011 222.332H355.011ZM351.949 211.522C349.869 208.291 346.865 205.846 343.095 204.135L340.616 209.599C343.493 210.905 345.536 212.645 346.904 214.769L351.949 211.522ZM343.095 204.135C339.279 202.404 334.768 201.605 329.668 201.605V207.605C334.17 207.605 337.783 208.314 340.616 209.599L343.095 204.135ZM329.668 201.605H322.097V207.605H329.668V201.605ZM325.097 204.605V194.449H319.097V204.605H325.097ZM322.097 197.449H329.668V191.449H322.097V197.449ZM329.668 197.449C333.784 197.449 337.534 196.706 340.841 195.124L338.253 189.711C335.897 190.838 333.061 191.449 329.668 191.449V197.449ZM340.83 195.129C344.154 193.557 346.829 191.293 348.756 188.328L343.726 185.058C342.452 187.018 340.664 188.57 338.264 189.706L340.83 195.129ZM348.742 188.35C350.738 185.337 351.688 181.851 351.688 178.014H345.688C345.688 180.825 345.006 183.126 343.74 185.036L348.742 188.35ZM351.688 178.014C351.688 174.359 350.875 171.025 349.139 168.12L343.989 171.197C345.085 173.032 345.688 175.268 345.688 178.014H351.688ZM349.139 168.12C347.42 165.241 344.988 163.014 341.93 161.448L339.196 166.789C341.307 167.87 342.877 169.336 343.989 171.197L349.139 168.12ZM341.943 161.455C338.881 159.869 335.373 159.134 331.514 159.134V165.134C334.611 165.134 337.135 165.721 339.183 166.782L341.943 161.455ZM331.514 159.134C327.874 159.134 324.404 159.805 321.132 161.163L323.431 166.705C325.944 165.662 328.63 165.134 331.514 165.134V159.134ZM321.147 161.157C317.85 162.504 315.087 164.505 312.931 167.172L317.598 170.944C319.073 169.118 320.988 167.703 323.416 166.711L321.147 161.157ZM312.944 167.157C310.681 169.919 309.495 173.228 309.313 176.944L315.306 177.238C315.432 174.675 316.216 172.63 317.585 170.96L312.944 167.157ZM312.31 174.091H301.23V180.091H312.31V174.091ZM304.228 177.203C304.392 172.818 305.697 169.078 308.106 165.876L303.311 162.269C300.118 166.515 298.438 171.454 298.232 176.979L304.228 177.203ZM308.113 165.866C310.596 162.537 313.854 159.921 317.955 158.024L315.436 152.578C310.489 154.867 306.422 158.098 303.303 162.279L308.113 165.866ZM317.948 158.027C322.077 156.13 326.646 155.162 331.699 155.162V149.162C325.857 149.162 320.424 150.287 315.443 152.575L317.948 158.027ZM331.699 155.162C337.14 155.162 341.624 156.262 345.271 158.327L348.227 153.106C343.503 150.431 337.953 149.162 331.699 149.162V155.162ZM345.285 158.335C349.04 160.434 351.851 163.159 353.807 166.509L358.988 163.483C356.45 159.138 352.829 155.678 348.212 153.098L345.285 158.335ZM353.807 166.509C355.785 169.896 356.767 173.528 356.767 177.46H362.767C362.767 172.467 361.503 167.79 358.988 163.483L353.807 166.509ZM356.767 177.46C356.767 182.23 355.524 186.118 353.161 189.285L357.971 192.873C361.21 188.53 362.767 183.339 362.767 177.46H356.767ZM353.152 189.298C350.793 192.496 347.582 194.737 343.385 196.01L345.126 201.752C350.47 200.131 354.8 197.171 357.98 192.86L353.152 189.298ZM341.256 198.881V199.619H347.256V198.881H341.256ZM343.768 202.579C349.129 203.464 353.097 205.689 355.923 209.138L360.564 205.335C356.681 200.597 351.324 197.745 344.744 196.659L343.768 202.579ZM355.93 209.147C358.78 212.597 360.276 216.926 360.276 222.332H366.276C366.276 215.736 364.417 210.001 360.557 205.326L355.93 209.147ZM360.276 222.332C360.276 226.891 359.045 230.912 356.599 234.488L361.551 237.876C364.706 233.265 366.276 228.053 366.276 222.332H360.276ZM356.596 234.492C354.145 238.086 350.778 240.956 346.404 243.087L349.032 248.481C354.261 245.934 358.464 242.402 361.553 237.872L356.596 234.492ZM346.404 243.087C342.069 245.199 337.066 246.293 331.33 246.293V252.293C337.843 252.293 343.765 251.047 349.032 248.481L346.404 243.087ZM391.205 192.325L389.669 194.902L389.68 194.909L391.205 192.325ZM383.542 184.662L380.959 186.187L380.965 186.198L383.542 184.662ZM383.542 163.288L386.119 164.824L386.125 164.813L383.542 163.288ZM391.205 155.578L389.68 152.995L389.669 153.001L391.205 155.578ZM412.58 155.578L411.043 158.155L411.054 158.161L412.58 155.578ZM420.289 163.288L417.706 164.813L417.712 164.824L420.289 163.288ZM420.289 184.662L422.866 186.198L422.872 186.187L420.289 184.662ZM412.58 192.325L411.054 189.742L411.043 189.748L412.58 192.325ZM407.963 184.339L409.494 186.919L409.494 186.919L407.963 184.339ZM412.303 179.999L414.883 181.53L414.883 181.53L412.303 179.999ZM412.303 167.904L414.883 166.374L414.883 166.374L412.303 167.904ZM407.963 163.565L409.494 160.984L409.494 160.984L407.963 163.565ZM395.868 163.565L394.337 160.984L394.337 160.984L395.868 163.565ZM391.528 167.904L388.948 166.374L388.948 166.374L391.528 167.904ZM391.528 179.999L388.948 181.53L388.948 181.53L391.528 179.999ZM401.916 192.188C398.52 192.188 395.481 191.366 392.731 189.742L389.68 194.909C393.393 197.101 397.494 198.188 401.916 198.188V192.188ZM392.742 189.748C389.969 188.095 387.772 185.899 386.119 183.126L380.965 186.198C383.128 189.827 386.04 192.739 389.669 194.902L392.742 189.748ZM386.125 183.137C384.502 180.387 383.68 177.347 383.68 173.952H377.68C377.68 178.374 378.766 182.474 380.959 186.187L386.125 183.137ZM383.68 173.952C383.68 170.556 384.501 167.537 386.119 164.824L380.965 161.751C378.766 165.44 377.68 169.53 377.68 173.952H383.68ZM386.125 164.813C387.78 162.011 389.976 159.804 392.742 158.155L389.669 153.001C386.034 155.169 383.12 158.101 380.959 161.762L386.125 164.813ZM392.731 158.161C395.481 156.538 398.52 155.716 401.916 155.716V149.716C397.494 149.716 393.393 150.802 389.68 152.995L392.731 158.161ZM401.916 155.716C405.311 155.716 408.33 156.538 411.043 158.155L414.116 153.001C410.427 150.802 406.337 149.716 401.916 149.716V155.716ZM411.054 158.161C413.849 159.812 416.055 162.018 417.706 164.813L422.872 161.762C420.707 158.094 417.773 155.161 414.105 152.995L411.054 158.161ZM417.712 164.824C419.33 167.537 420.151 170.556 420.151 173.952H426.151C426.151 169.53 425.065 165.44 422.866 161.751L417.712 164.824ZM420.151 173.952C420.151 177.347 419.33 180.387 417.706 183.137L422.872 186.187C425.065 182.474 426.151 178.374 426.151 173.952H420.151ZM417.712 183.126C416.063 185.892 413.856 188.087 411.054 189.742L414.105 194.909C417.766 192.747 420.699 189.834 422.866 186.198L417.712 183.126ZM411.043 189.748C408.33 191.366 405.311 192.188 401.916 192.188V198.188C406.337 198.188 410.427 197.101 414.116 194.902L411.043 189.748ZM401.916 188.955C404.642 188.955 407.191 188.285 409.494 186.919L406.433 181.759C405.103 182.547 403.621 182.955 401.916 182.955V188.955ZM409.494 186.919C411.742 185.585 413.549 183.778 414.883 181.53L409.722 178.469C408.902 179.852 407.816 180.938 406.433 181.759L409.494 186.919ZM414.883 181.53C416.249 179.227 416.918 176.678 416.918 173.952H410.918C410.918 175.657 410.511 177.14 409.722 178.469L414.883 181.53ZM416.918 173.952C416.918 171.225 416.249 168.676 414.883 166.374L409.722 169.435C410.511 170.764 410.918 172.247 410.918 173.952H416.918ZM414.883 166.374C413.549 164.125 411.742 162.318 409.494 160.984L406.433 166.145C407.816 166.966 408.902 168.051 409.722 169.435L414.883 166.374ZM409.494 160.984C407.191 159.619 404.642 158.949 401.916 158.949V164.949C403.621 164.949 405.103 165.356 406.433 166.145L409.494 160.984ZM401.916 158.949C399.189 158.949 396.64 159.619 394.337 160.984L397.399 166.145C398.728 165.356 400.21 164.949 401.916 164.949V158.949ZM394.337 160.984C392.089 162.318 390.282 164.125 388.948 166.374L394.109 169.435C394.929 168.051 396.015 166.966 397.399 166.145L394.337 160.984ZM388.948 166.374C387.582 168.676 386.913 171.225 386.913 173.952H392.913C392.913 172.247 393.32 170.764 394.109 169.435L388.948 166.374ZM386.913 173.952C386.913 176.678 387.582 179.227 388.948 181.53L394.109 178.469C393.32 177.14 392.913 175.657 392.913 173.952H386.913ZM388.948 181.53C390.282 183.778 392.089 185.585 394.337 186.919L397.399 181.759C396.015 180.938 394.929 179.852 394.109 178.469L388.948 181.53ZM394.337 186.919C396.64 188.285 399.189 188.955 401.916 188.955V182.955C400.21 182.955 398.728 182.547 397.399 181.759L394.337 186.919Z" fill="black"/>
<path d="M298.851 314H293.311L309.334 270.364H314.789L330.811 314H325.272L312.232 277.267H311.891L298.851 314ZM300.897 296.955H323.226V301.642H300.897V296.955ZM341.955 294.312V314H336.926V281.273H341.784V286.386H342.211C342.978 284.724 344.142 283.389 345.705 282.381C347.267 281.358 349.284 280.847 351.756 280.847C353.972 280.847 355.911 281.301 357.573 282.21C359.235 283.105 360.527 284.469 361.451 286.301C362.374 288.119 362.836 290.42 362.836 293.205V314H357.807V293.545C357.807 290.974 357.14 288.972 355.804 287.537C354.469 286.088 352.637 285.364 350.307 285.364C348.702 285.364 347.267 285.712 346.003 286.408C344.753 287.104 343.766 288.119 343.042 289.455C342.317 290.79 341.955 292.409 341.955 294.312ZM385.32 314.682C382.365 314.682 379.773 313.979 377.543 312.572C375.327 311.166 373.594 309.199 372.344 306.67C371.108 304.142 370.49 301.187 370.49 297.807C370.49 294.398 371.108 291.422 372.344 288.879C373.594 286.337 375.327 284.362 377.543 282.956C379.773 281.55 382.365 280.847 385.32 280.847C388.274 280.847 390.859 281.55 393.075 282.956C395.305 284.362 397.038 286.337 398.274 288.879C399.524 291.422 400.149 294.398 400.149 297.807C400.149 301.187 399.524 304.142 398.274 306.67C397.038 309.199 395.305 311.166 393.075 312.572C390.859 313.979 388.274 314.682 385.32 314.682ZM385.32 310.165C387.564 310.165 389.411 309.589 390.859 308.439C392.308 307.288 393.381 305.776 394.077 303.901C394.773 302.026 395.121 299.994 395.121 297.807C395.121 295.619 394.773 293.581 394.077 291.692C393.381 289.803 392.308 288.276 390.859 287.111C389.411 285.946 387.564 285.364 385.32 285.364C383.075 285.364 381.229 285.946 379.78 287.111C378.331 288.276 377.259 289.803 376.562 291.692C375.866 293.581 375.518 295.619 375.518 297.807C375.518 299.994 375.866 302.026 376.562 303.901C377.259 305.776 378.331 307.288 379.78 308.439C381.229 309.589 383.075 310.165 385.32 310.165Z" fill="black"/>
<path d="M298.851 314V315H299.557L299.794 314.335L298.851 314ZM293.311 314L292.373 313.655L291.879 315H293.311V314ZM309.334 270.364V269.364H308.636L308.395 270.019L309.334 270.364ZM314.789 270.364L315.727 270.019L315.487 269.364H314.789V270.364ZM330.811 314V315H332.244L331.75 313.655L330.811 314ZM325.272 314L324.329 314.335L324.566 315H325.272V314ZM312.232 277.267L313.174 276.933L312.938 276.267H312.232V277.267ZM311.891 277.267V276.267H311.185L310.949 276.933L311.891 277.267ZM300.897 296.955V295.955H299.897V296.955H300.897ZM323.226 296.955H324.226V295.955H323.226V296.955ZM323.226 301.642V302.642H324.226V301.642H323.226ZM300.897 301.642H299.897V302.642H300.897V301.642ZM298.851 313H293.311V315H298.851V313ZM294.25 314.345L310.273 270.708L308.395 270.019L292.373 313.655L294.25 314.345ZM309.334 271.364H314.789V269.364H309.334V271.364ZM313.85 270.708L329.873 314.345L331.75 313.655L315.727 270.019L313.85 270.708ZM330.811 313H325.272V315H330.811V313ZM326.214 313.665L313.174 276.933L311.29 277.602L324.329 314.335L326.214 313.665ZM312.232 276.267H311.891V278.267H312.232V276.267ZM310.949 276.933L297.909 313.665L299.794 314.335L312.833 277.602L310.949 276.933ZM300.897 297.955H323.226V295.955H300.897V297.955ZM322.226 296.955V301.642H324.226V296.955H322.226ZM323.226 300.642H300.897V302.642H323.226V300.642ZM301.897 301.642V296.955H299.897V301.642H301.897ZM341.955 314V315H342.955V314H341.955ZM336.926 314H335.926V315H336.926V314ZM336.926 281.273V280.273H335.926V281.273H336.926ZM341.784 281.273H342.784V280.273H341.784V281.273ZM341.784 286.386H340.784V287.386H341.784V286.386ZM342.211 286.386V287.386H342.85L343.119 286.805L342.211 286.386ZM345.705 282.381L346.247 283.221L346.253 283.217L345.705 282.381ZM357.573 282.21L357.093 283.088L357.099 283.091L357.573 282.21ZM361.451 286.301L360.558 286.751L360.559 286.754L361.451 286.301ZM362.836 314V315H363.836V314H362.836ZM357.807 314H356.807V315H357.807V314ZM355.804 287.537L355.069 288.215L355.072 288.218L355.804 287.537ZM346.003 286.408L345.521 285.532L345.517 285.534L346.003 286.408ZM343.042 289.455L342.163 288.978L342.163 288.978L343.042 289.455ZM340.955 294.312V314H342.955V294.312H340.955ZM341.955 313H336.926V315H341.955V313ZM337.926 314V281.273H335.926V314H337.926ZM336.926 282.273H341.784V280.273H336.926V282.273ZM340.784 281.273V286.386H342.784V281.273H340.784ZM341.784 287.386H342.211V285.386H341.784V287.386ZM343.119 286.805C343.805 285.319 344.841 284.128 346.247 283.221L345.163 281.54C343.443 282.65 342.15 284.13 341.303 285.967L343.119 286.805ZM346.253 283.217C347.607 282.331 349.417 281.847 351.756 281.847V279.847C349.152 279.847 346.927 280.385 345.157 281.544L346.253 283.217ZM351.756 281.847C353.833 281.847 355.601 282.272 357.093 283.088L358.053 281.333C356.22 280.331 354.111 279.847 351.756 279.847V281.847ZM357.099 283.091C358.564 283.88 359.718 285.085 360.558 286.751L362.344 285.851C361.337 283.852 359.905 282.33 358.047 281.33L357.099 283.091ZM360.559 286.754C361.39 288.39 361.836 290.523 361.836 293.205H363.836C363.836 290.318 363.358 287.849 362.342 285.848L360.559 286.754ZM361.836 293.205V314H363.836V293.205H361.836ZM362.836 313H357.807V315H362.836V313ZM358.807 314V293.545H356.807V314H358.807ZM358.807 293.545C358.807 290.803 358.092 288.527 356.536 286.856L355.072 288.218C356.187 289.416 356.807 291.146 356.807 293.545H358.807ZM356.54 286.859C354.981 285.167 352.861 284.364 350.307 284.364V286.364C352.413 286.364 353.958 287.009 355.069 288.215L356.54 286.859ZM350.307 284.364C348.553 284.364 346.949 284.745 345.521 285.532L346.485 287.284C347.586 286.678 348.851 286.364 350.307 286.364V284.364ZM345.517 285.534C344.09 286.328 342.972 287.486 342.163 288.978L343.921 289.931C344.56 288.752 345.416 287.879 346.49 287.281L345.517 285.534ZM342.163 288.978C341.341 290.492 340.955 292.284 340.955 294.312H342.955C342.955 292.534 343.293 291.088 343.921 289.931L342.163 288.978ZM377.543 312.572L377.007 313.417L377.009 313.418L377.543 312.572ZM372.344 306.67L371.445 307.11L371.447 307.114L372.344 306.67ZM372.344 288.879L371.446 288.438L371.444 288.442L372.344 288.879ZM377.543 282.956L377.009 282.11L377.007 282.112L377.543 282.956ZM393.075 282.956L392.539 283.8L392.542 283.802L393.075 282.956ZM398.274 288.879L397.375 289.316L397.377 289.32L398.274 288.879ZM398.274 306.67L397.378 306.227L397.376 306.231L398.274 306.67ZM393.075 312.572L392.542 311.727L392.539 311.728L393.075 312.572ZM390.859 308.439L390.237 307.656L390.237 307.656L390.859 308.439ZM394.077 303.901L395.014 304.249L395.014 304.249L394.077 303.901ZM394.077 291.692L395.015 291.346L395.015 291.346L394.077 291.692ZM390.859 287.111L391.486 286.331L391.486 286.331L390.859 287.111ZM379.78 287.111L379.153 286.331L379.153 286.331L379.78 287.111ZM376.562 291.692L375.624 291.346L375.624 291.346L376.562 291.692ZM376.562 303.901L375.625 304.249L375.625 304.249L376.562 303.901ZM379.78 308.439L380.402 307.656L380.402 307.656L379.78 308.439ZM385.32 313.682C382.53 313.682 380.128 313.02 378.076 311.727L377.009 313.418C379.418 314.937 382.2 315.682 385.32 315.682V313.682ZM378.078 311.728C376.029 310.427 374.415 308.604 373.24 306.227L371.447 307.114C372.772 309.794 374.625 311.905 377.007 313.417L378.078 311.728ZM373.242 306.231C372.085 303.864 371.49 301.066 371.49 297.807H369.49C369.49 301.309 370.131 304.42 371.445 307.11L373.242 306.231ZM371.49 297.807C371.49 294.518 372.086 291.698 373.243 289.316L371.444 288.442C370.13 291.146 369.49 294.277 369.49 297.807H371.49ZM373.241 289.32C374.417 286.929 376.03 285.1 378.078 283.8L377.007 282.112C374.623 283.624 372.771 285.744 371.446 288.438L373.241 289.32ZM378.076 283.802C380.128 282.508 382.53 281.847 385.32 281.847V279.847C382.2 279.847 379.418 280.591 377.009 282.11L378.076 283.802ZM385.32 281.847C388.109 281.847 390.503 282.508 392.539 283.8L393.611 282.112C391.215 280.591 388.439 279.847 385.32 279.847V281.847ZM392.542 283.802C394.603 285.101 396.214 286.929 397.375 289.316L399.174 288.442C397.862 285.744 396.008 283.623 393.609 282.11L392.542 283.802ZM397.377 289.32C398.547 291.701 399.149 294.52 399.149 297.807H401.149C401.149 294.275 400.501 291.143 399.172 288.438L397.377 289.32ZM399.149 297.807C399.149 301.064 398.547 303.861 397.378 306.227L399.171 307.114C400.501 304.423 401.149 301.311 401.149 297.807H399.149ZM397.376 306.231C396.216 308.605 394.604 310.426 392.542 311.727L393.609 313.418C396.007 311.906 397.861 309.793 399.173 307.11L397.376 306.231ZM392.539 311.728C390.503 313.02 388.109 313.682 385.32 313.682V315.682C388.439 315.682 391.215 314.937 393.611 313.417L392.539 311.728ZM385.32 311.165C387.74 311.165 389.82 310.541 391.481 309.222L390.237 307.656C389.001 308.638 387.388 309.165 385.32 309.165V311.165ZM391.481 309.222C393.085 307.949 394.26 306.28 395.014 304.249L393.139 303.553C392.501 305.271 391.532 306.628 390.237 307.656L391.481 309.222ZM395.014 304.249C395.755 302.252 396.121 300.102 396.121 297.807H394.121C394.121 299.887 393.79 301.799 393.139 303.553L395.014 304.249ZM396.121 297.807C396.121 295.512 395.755 293.355 395.015 291.346L393.138 292.037C393.79 293.807 394.121 295.727 394.121 297.807H396.121ZM395.015 291.346C394.262 289.301 393.088 287.619 391.486 286.331L390.233 287.89C391.529 288.932 392.5 290.304 393.138 292.037L395.015 291.346ZM391.486 286.331C389.825 284.996 387.743 284.364 385.32 284.364V286.364C387.385 286.364 388.996 286.896 390.233 287.89L391.486 286.331ZM385.32 284.364C382.896 284.364 380.814 284.996 379.153 286.331L380.406 287.89C381.643 286.896 383.254 286.364 385.32 286.364V284.364ZM379.153 286.331C377.551 287.619 376.377 289.301 375.624 291.346L377.501 292.037C378.14 290.304 379.111 288.932 380.406 287.89L379.153 286.331ZM375.624 291.346C374.884 293.355 374.518 295.512 374.518 297.807H376.518C376.518 295.727 376.849 293.807 377.501 292.037L375.624 291.346ZM374.518 297.807C374.518 300.102 374.884 302.252 375.625 304.249L377.5 303.553C376.849 301.799 376.518 299.887 376.518 297.807H374.518ZM375.625 304.249C376.379 306.28 377.555 307.949 379.158 309.222L380.402 307.656C379.107 306.628 378.138 305.271 377.5 303.553L375.625 304.249ZM379.158 309.222C380.819 310.541 382.899 311.165 385.32 311.165V309.165C383.251 309.165 381.638 308.638 380.402 307.656L379.158 309.222Z" fill="black"/>
<defs>
<filter id="filter0_d_1_116" x="182" y="73" width="312" height="311" filterUnits="userSpaceOnUse" color-interpolation-filters="sRGB">
<feFlood flood-opacity="0" result="BackgroundImageFix"/>
<feColorMatrix in="SourceAlpha" type="matrix" values="0 0 0 0 0 0 0 0 0 0 0 0 0 0 0 0 0 0 127 0" result="hardAlpha"/>
<feOffset dx="4" dy="5"/>
<feGaussianBlur stdDeviation="2.5"/>
<feComposite in2="hardAlpha" operator="out"/>
<feColorMatrix type="matrix" values="0 0 0 0 0 0 0 0 0 0 0 0 0 0 0 0 0 0 1 0"/>
<feBlend mode="normal" in2="BackgroundImageFix" result="effect1_dropShadow_1_116"/>
<feBlend mode="normal" in="SourceGraphic" in2="effect1_dropShadow_1_116" result="shape"/>
</filter>
<linearGradient id="paint0_linear_1_116" x1="436.048" y1="97" x2="595.61" y2="252.042" gradientUnits="userSpaceOnUse">
<stop offset="0.0361446" stop-color="#ECA2F5"/>
<stop offset="1" stop-color="white" stop-opacity="0"/>
</linearGradient>
<linearGradient id="paint1_linear_1_116" x1="425.277" y1="301" x2="561.115" y2="438.246" gradientUnits="userSpaceOnUse">
<stop offset="0.0361446" stop-color="#ECA2F5"/>
<stop offset="1" stop-color="white" stop-opacity="0"/>
</linearGradient>
<linearGradient id="paint2_linear_1_116" x1="497.651" y1="257" x2="580.455" y2="363.061" gradientUnits="userSpaceOnUse">
<stop offset="0.0361446" stop-color="#ECA2F5"/>
<stop offset="1" stop-color="white" stop-opacity="0"/>
</linearGradient>
<linearGradient id="paint3_linear_1_116" x1="239.867" y1="143.386" x2="75.7108" y2="12.3614" gradientUnits="userSpaceOnUse">
<stop offset="0.0361446" stop-color="#ECA2F5"/>
<stop offset="1" stop-color="white" stop-opacity="0"/>
</linearGradient>
<linearGradient id="paint4_linear_1_116" x1="130.964" y1="281" x2="199.106" y2="410.915" gradientUnits="userSpaceOnUse">
<stop offset="0.0361446" stop-color="#ECA2F5"/>
<stop offset="1" stop-color="white" stop-opacity="0"/>
</linearGradient>
<linearGradient id="paint5_linear_1_116" x1="231.855" y1="316" x2="335.128" y2="506.615" gradientUnits="userSpaceOnUse">
<stop offset="0.0361446" stop-color="#ECA2F5"/>
<stop offset="1" stop-color="white" stop-opacity="0"/>
</linearGradient>
<linearGradient id="paint6_linear_1_116" x1="357.163" y1="26.102" x2="583.894" y2="225.452" gradientUnits="userSpaceOnUse">
<stop stop-color="#ECA2F5"/>
<stop offset="1" stop-color="white" stop-opacity="0"/>
</linearGradient>
<linearGradient id="paint7_linear_1_116" x1="234.598" y1="107.789" x2="624.7" y2="543.181" gradientUnits="userSpaceOnUse">
<stop stop-color="#ECA2F5"/>
<stop offset="1" stop-color="white" stop-opacity="0"/>
</linearGradient>
</defs>
</svg>
