<svg width="677" height="444" viewBox="0 0 677 444" fill="none" xmlns="http://www.w3.org/2000/svg">
<rect width="677" height="444" fill="white"/>
<ellipse cx="464" cy="148.5" rx="50" ry="51.5" fill="url(#paint0_linear_1_127)"/>
<ellipse cx="451" cy="346.5" rx="46" ry="46.5" fill="url(#paint1_linear_1_127)"/>
<circle cx="513" cy="281" r="25" fill="url(#paint2_linear_1_127)"/>
<ellipse cx="214" cy="109.5" rx="63" ry="63.5" fill="url(#paint3_linear_1_127)"/>
<circle cx="151.5" cy="316.5" r="35.5" fill="url(#paint4_linear_1_127)"/>
<ellipse cx="265" cy="374.5" rx="59" ry="59.5" fill="url(#paint5_linear_1_127)"/>
<ellipse cx="423" cy="84.5" rx="74" ry="74.5" fill="url(#paint6_linear_1_127)"/>
<g filter="url(#filter0_d_1_127)">
<ellipse cx="337" cy="223.5" rx="151" ry="151.5" fill="white"/>
<path d="M478 223.5C478 301.679 414.841 365 337 365C259.159 365 196 301.679 196 223.5C196 145.321 259.159 82 337 82C414.841 82 478 145.321 478 223.5Z" stroke="url(#paint7_linear_1_127)" stroke-width="20"/>
</g>
<path d="M296.85 228.611V219.193L338.399 153.455H345.231V168.043H340.615L309.222 217.716V218.455H365.174V228.611H296.85ZM341.353 248V225.749V221.363V153.455H352.248V248H341.353ZM402.233 195.188C398.324 195.188 394.754 194.233 391.523 192.325C388.322 190.417 385.768 187.863 383.859 184.662C381.951 181.43 380.997 177.86 380.997 173.952C380.997 170.043 381.951 166.488 383.859 163.288C385.768 160.056 388.322 157.486 391.523 155.578C394.754 153.67 398.324 152.716 402.233 152.716C406.142 152.716 409.696 153.67 412.897 155.578C416.129 157.486 418.698 160.056 420.607 163.288C422.515 166.488 423.469 170.043 423.469 173.952C423.469 177.86 422.515 181.43 420.607 184.662C418.698 187.863 416.129 190.417 412.897 192.325C409.696 194.233 406.142 195.188 402.233 195.188ZM402.233 185.955C404.449 185.955 406.465 185.416 408.281 184.339C410.096 183.262 411.543 181.815 412.62 179.999C413.697 178.183 414.236 176.168 414.236 173.952C414.236 171.736 413.697 169.72 412.62 167.904C411.543 166.088 410.096 164.642 408.281 163.565C406.465 162.487 404.449 161.949 402.233 161.949C400.017 161.949 398.001 162.487 396.185 163.565C394.37 164.642 392.923 166.088 391.846 167.904C390.769 169.72 390.23 171.736 390.23 173.952C390.23 176.168 390.769 178.183 391.846 179.999C392.923 181.815 394.37 183.262 396.185 184.339C398.001 185.416 400.017 185.955 402.233 185.955Z" fill="black"/>
<path d="M296.85 228.611H293.85V231.611H296.85V228.611ZM296.85 219.193L294.314 217.59L293.85 218.325V219.193H296.85ZM338.399 153.455V150.455H336.746L335.863 151.852L338.399 153.455ZM345.231 153.455H348.231V150.455H345.231V153.455ZM345.231 168.043V171.043H348.231V168.043H345.231ZM340.615 168.043V165.043H338.962L338.079 166.44L340.615 168.043ZM309.222 217.716L306.686 216.113L306.222 216.847V217.716H309.222ZM309.222 218.455H306.222V221.455H309.222V218.455ZM365.174 218.455H368.174V215.455H365.174V218.455ZM365.174 228.611V231.611H368.174V228.611H365.174ZM341.353 248H338.353V251H341.353V248ZM341.353 153.455V150.455H338.353V153.455H341.353ZM352.248 153.455H355.248V150.455H352.248V153.455ZM352.248 248V251H355.248V248H352.248ZM299.85 228.611V219.193H293.85V228.611H299.85ZM299.386 220.796L340.935 155.057L335.863 151.852L294.314 217.59L299.386 220.796ZM338.399 156.455H345.231V150.455H338.399V156.455ZM342.231 153.455V168.043H348.231V153.455H342.231ZM345.231 165.043H340.615V171.043H345.231V165.043ZM338.079 166.44L306.686 216.113L311.758 219.319L343.151 169.645L338.079 166.44ZM306.222 217.716V218.455H312.222V217.716H306.222ZM309.222 221.455H365.174V215.455H309.222V221.455ZM362.174 218.455V228.611H368.174V218.455H362.174ZM365.174 225.611H296.85V231.611H365.174V225.611ZM344.353 248V225.749H338.353V248H344.353ZM344.353 225.749V221.363H338.353V225.749H344.353ZM344.353 221.363V153.455H338.353V221.363H344.353ZM341.353 156.455H352.248V150.455H341.353V156.455ZM349.248 153.455V248H355.248V153.455H349.248ZM352.248 245H341.353V251H352.248V245ZM391.523 192.325L389.987 194.902L389.997 194.909L391.523 192.325ZM383.859 184.662L381.276 186.187L381.283 186.198L383.859 184.662ZM383.859 163.288L386.436 164.824L386.443 164.813L383.859 163.288ZM391.523 155.578L389.997 152.995L389.987 153.001L391.523 155.578ZM412.897 155.578L411.361 158.155L411.372 158.161L412.897 155.578ZM420.607 163.288L418.023 164.813L418.03 164.824L420.607 163.288ZM420.607 184.662L423.183 186.198L423.19 186.187L420.607 184.662ZM412.897 192.325L411.372 189.742L411.361 189.748L412.897 192.325ZM408.281 184.339L409.811 186.919L409.811 186.919L408.281 184.339ZM412.62 179.999L415.2 181.53L415.2 181.53L412.62 179.999ZM412.62 167.904L415.2 166.374L415.2 166.374L412.62 167.904ZM408.281 163.565L409.811 160.984L409.811 160.984L408.281 163.565ZM396.185 163.565L394.655 160.984L394.655 160.984L396.185 163.565ZM391.846 167.904L389.266 166.374L389.266 166.374L391.846 167.904ZM391.846 179.999L389.266 181.53L389.266 181.53L391.846 179.999ZM402.233 192.188C398.838 192.188 395.798 191.366 393.048 189.742L389.997 194.909C393.711 197.101 397.811 198.188 402.233 198.188V192.188ZM393.059 189.748C390.286 188.095 388.089 185.899 386.436 183.126L381.283 186.198C383.446 189.827 386.358 192.739 389.987 194.902L393.059 189.748ZM386.443 183.137C384.819 180.387 383.997 177.347 383.997 173.952H377.997C377.997 178.374 379.084 182.474 381.276 186.187L386.443 183.137ZM383.997 173.952C383.997 170.556 384.819 167.537 386.436 164.824L381.283 161.751C379.084 165.44 377.997 169.53 377.997 173.952H383.997ZM386.443 164.813C388.097 162.011 390.293 159.804 393.059 158.155L389.987 153.001C386.351 155.169 383.438 158.101 381.276 161.762L386.443 164.813ZM393.048 158.161C395.798 156.538 398.838 155.716 402.233 155.716V149.716C397.811 149.716 393.711 150.802 389.997 152.995L393.048 158.161ZM402.233 155.716C405.628 155.716 408.648 156.538 411.361 158.155L414.433 153.001C410.745 150.802 406.655 149.716 402.233 149.716V155.716ZM411.372 158.161C414.167 159.812 416.373 162.018 418.023 164.813L423.19 161.762C421.024 158.094 418.09 155.161 414.422 152.995L411.372 158.161ZM418.03 164.824C419.647 167.537 420.469 170.556 420.469 173.952H426.469C426.469 169.53 425.382 165.44 423.183 161.751L418.03 164.824ZM420.469 173.952C420.469 177.347 419.647 180.387 418.023 183.137L423.19 186.187C425.382 182.474 426.469 178.374 426.469 173.952H420.469ZM418.03 183.126C416.381 185.892 414.174 188.087 411.372 189.742L414.422 194.909C418.083 192.747 421.016 189.834 423.183 186.198L418.03 183.126ZM411.361 189.748C408.648 191.366 405.628 192.188 402.233 192.188V198.188C406.655 198.188 410.745 197.101 414.433 194.902L411.361 189.748ZM402.233 188.955C404.96 188.955 407.509 188.285 409.811 186.919L406.75 181.759C405.421 182.547 403.938 182.955 402.233 182.955V188.955ZM409.811 186.919C412.059 185.585 413.867 183.778 415.2 181.53L410.04 178.469C409.219 179.852 408.134 180.938 406.75 181.759L409.811 186.919ZM415.2 181.53C416.566 179.227 417.236 176.678 417.236 173.952H411.236C411.236 175.657 410.828 177.14 410.04 178.469L415.2 181.53ZM417.236 173.952C417.236 171.225 416.566 168.676 415.2 166.374L410.04 169.435C410.828 170.764 411.236 172.247 411.236 173.952H417.236ZM415.2 166.374C413.867 164.125 412.059 162.318 409.811 160.984L406.75 166.145C408.134 166.966 409.219 168.051 410.04 169.435L415.2 166.374ZM409.811 160.984C407.509 159.619 404.96 158.949 402.233 158.949V164.949C403.938 164.949 405.421 165.356 406.75 166.145L409.811 160.984ZM402.233 158.949C399.506 158.949 396.957 159.619 394.655 160.984L397.716 166.145C399.045 165.356 400.528 164.949 402.233 164.949V158.949ZM394.655 160.984C392.407 162.318 390.599 164.125 389.266 166.374L394.426 169.435C395.247 168.051 396.332 166.966 397.716 166.145L394.655 160.984ZM389.266 166.374C387.9 168.676 387.23 171.225 387.23 173.952H393.23C393.23 172.247 393.638 170.764 394.426 169.435L389.266 166.374ZM387.23 173.952C387.23 176.678 387.9 179.227 389.266 181.53L394.426 178.469C393.638 177.14 393.23 175.657 393.23 173.952H387.23ZM389.266 181.53C390.599 183.778 392.407 185.585 394.655 186.919L397.716 181.759C396.332 180.938 395.247 179.852 394.426 178.469L389.266 181.53ZM394.655 186.919C396.957 188.285 399.506 188.955 402.233 188.955V182.955C400.528 182.955 399.045 182.547 397.716 181.759L394.655 186.919Z" fill="black"/>
<path d="M298.851 314H293.311L309.334 270.364H314.789L330.811 314H325.272L312.232 277.267H311.891L298.851 314ZM300.897 296.955H323.226V301.642H300.897V296.955ZM341.955 294.312V314H336.926V281.273H341.784V286.386H342.211C342.978 284.724 344.142 283.389 345.705 282.381C347.267 281.358 349.284 280.847 351.756 280.847C353.972 280.847 355.911 281.301 357.573 282.21C359.235 283.105 360.527 284.469 361.451 286.301C362.374 288.119 362.836 290.42 362.836 293.205V314H357.807V293.545C357.807 290.974 357.14 288.972 355.804 287.537C354.469 286.088 352.637 285.364 350.307 285.364C348.702 285.364 347.267 285.712 346.003 286.408C344.753 287.104 343.766 288.119 343.042 289.455C342.317 290.79 341.955 292.409 341.955 294.312ZM385.32 314.682C382.365 314.682 379.773 313.979 377.543 312.572C375.327 311.166 373.594 309.199 372.344 306.67C371.108 304.142 370.49 301.187 370.49 297.807C370.49 294.398 371.108 291.422 372.344 288.879C373.594 286.337 375.327 284.362 377.543 282.956C379.773 281.55 382.365 280.847 385.32 280.847C388.274 280.847 390.859 281.55 393.075 282.956C395.305 284.362 397.038 286.337 398.274 288.879C399.524 291.422 400.149 294.398 400.149 297.807C400.149 301.187 399.524 304.142 398.274 306.67C397.038 309.199 395.305 311.166 393.075 312.572C390.859 313.979 388.274 314.682 385.32 314.682ZM385.32 310.165C387.564 310.165 389.411 309.589 390.859 308.439C392.308 307.288 393.381 305.776 394.077 303.901C394.773 302.026 395.121 299.994 395.121 297.807C395.121 295.619 394.773 293.581 394.077 291.692C393.381 289.803 392.308 288.276 390.859 287.111C389.411 285.946 387.564 285.364 385.32 285.364C383.075 285.364 381.229 285.946 379.78 287.111C378.331 288.276 377.259 289.803 376.562 291.692C375.866 293.581 375.518 295.619 375.518 297.807C375.518 299.994 375.866 302.026 376.562 303.901C377.259 305.776 378.331 307.288 379.78 308.439C381.229 309.589 383.075 310.165 385.32 310.165Z" fill="black"/>
<path d="M298.851 314V315H299.557L299.794 314.335L298.851 314ZM293.311 314L292.373 313.655L291.879 315H293.311V314ZM309.334 270.364V269.364H308.636L308.395 270.019L309.334 270.364ZM314.789 270.364L315.727 270.019L315.487 269.364H314.789V270.364ZM330.811 314V315H332.244L331.75 313.655L330.811 314ZM325.272 314L324.329 314.335L324.566 315H325.272V314ZM312.232 277.267L313.174 276.933L312.938 276.267H312.232V277.267ZM311.891 277.267V276.267H311.185L310.949 276.933L311.891 277.267ZM300.897 296.955V295.955H299.897V296.955H300.897ZM323.226 296.955H324.226V295.955H323.226V296.955ZM323.226 301.642V302.642H324.226V301.642H323.226ZM300.897 301.642H299.897V302.642H300.897V301.642ZM298.851 313H293.311V315H298.851V313ZM294.25 314.345L310.273 270.708L308.395 270.019L292.373 313.655L294.25 314.345ZM309.334 271.364H314.789V269.364H309.334V271.364ZM313.85 270.708L329.873 314.345L331.75 313.655L315.727 270.019L313.85 270.708ZM330.811 313H325.272V315H330.811V313ZM326.214 313.665L313.174 276.933L311.29 277.602L324.329 314.335L326.214 313.665ZM312.232 276.267H311.891V278.267H312.232V276.267ZM310.949 276.933L297.909 313.665L299.794 314.335L312.833 277.602L310.949 276.933ZM300.897 297.955H323.226V295.955H300.897V297.955ZM322.226 296.955V301.642H324.226V296.955H322.226ZM323.226 300.642H300.897V302.642H323.226V300.642ZM301.897 301.642V296.955H299.897V301.642H301.897ZM341.955 314V315H342.955V314H341.955ZM336.926 314H335.926V315H336.926V314ZM336.926 281.273V280.273H335.926V281.273H336.926ZM341.784 281.273H342.784V280.273H341.784V281.273ZM341.784 286.386H340.784V287.386H341.784V286.386ZM342.211 286.386V287.386H342.85L343.119 286.805L342.211 286.386ZM345.705 282.381L346.247 283.221L346.253 283.217L345.705 282.381ZM357.573 282.21L357.093 283.088L357.099 283.091L357.573 282.21ZM361.451 286.301L360.558 286.751L360.559 286.754L361.451 286.301ZM362.836 314V315H363.836V314H362.836ZM357.807 314H356.807V315H357.807V314ZM355.804 287.537L355.069 288.215L355.072 288.218L355.804 287.537ZM346.003 286.408L345.521 285.532L345.517 285.534L346.003 286.408ZM343.042 289.455L342.163 288.978L342.163 288.978L343.042 289.455ZM340.955 294.312V314H342.955V294.312H340.955ZM341.955 313H336.926V315H341.955V313ZM337.926 314V281.273H335.926V314H337.926ZM336.926 282.273H341.784V280.273H336.926V282.273ZM340.784 281.273V286.386H342.784V281.273H340.784ZM341.784 287.386H342.211V285.386H341.784V287.386ZM343.119 286.805C343.805 285.319 344.841 284.128 346.247 283.221L345.163 281.54C343.443 282.65 342.15 284.13 341.303 285.967L343.119 286.805ZM346.253 283.217C347.607 282.331 349.417 281.847 351.756 281.847V279.847C349.152 279.847 346.927 280.385 345.157 281.544L346.253 283.217ZM351.756 281.847C353.833 281.847 355.601 282.272 357.093 283.088L358.053 281.333C356.22 280.331 354.111 279.847 351.756 279.847V281.847ZM357.099 283.091C358.564 283.88 359.718 285.085 360.558 286.751L362.344 285.851C361.337 283.852 359.905 282.33 358.047 281.33L357.099 283.091ZM360.559 286.754C361.39 288.39 361.836 290.523 361.836 293.205H363.836C363.836 290.318 363.358 287.849 362.342 285.848L360.559 286.754ZM361.836 293.205V314H363.836V293.205H361.836ZM362.836 313H357.807V315H362.836V313ZM358.807 314V293.545H356.807V314H358.807ZM358.807 293.545C358.807 290.803 358.092 288.527 356.536 286.856L355.072 288.218C356.187 289.416 356.807 291.146 356.807 293.545H358.807ZM356.54 286.859C354.981 285.167 352.861 284.364 350.307 284.364V286.364C352.413 286.364 353.958 287.009 355.069 288.215L356.54 286.859ZM350.307 284.364C348.553 284.364 346.949 284.745 345.521 285.532L346.485 287.284C347.586 286.678 348.851 286.364 350.307 286.364V284.364ZM345.517 285.534C344.09 286.328 342.972 287.486 342.163 288.978L343.921 289.931C344.56 288.752 345.416 287.879 346.49 287.281L345.517 285.534ZM342.163 288.978C341.341 290.492 340.955 292.284 340.955 294.312H342.955C342.955 292.534 343.293 291.088 343.921 289.931L342.163 288.978ZM377.543 312.572L377.007 313.417L377.009 313.418L377.543 312.572ZM372.344 306.67L371.445 307.11L371.447 307.114L372.344 306.67ZM372.344 288.879L371.446 288.438L371.444 288.442L372.344 288.879ZM377.543 282.956L377.009 282.11L377.007 282.112L377.543 282.956ZM393.075 282.956L392.539 283.8L392.542 283.802L393.075 282.956ZM398.274 288.879L397.375 289.316L397.377 289.32L398.274 288.879ZM398.274 306.67L397.378 306.227L397.376 306.231L398.274 306.67ZM393.075 312.572L392.542 311.727L392.539 311.728L393.075 312.572ZM390.859 308.439L390.237 307.656L390.237 307.656L390.859 308.439ZM394.077 303.901L395.014 304.249L395.014 304.249L394.077 303.901ZM394.077 291.692L395.015 291.346L395.015 291.346L394.077 291.692ZM390.859 287.111L391.486 286.331L391.486 286.331L390.859 287.111ZM379.78 287.111L379.153 286.331L379.153 286.331L379.78 287.111ZM376.562 291.692L375.624 291.346L375.624 291.346L376.562 291.692ZM376.562 303.901L375.625 304.249L375.625 304.249L376.562 303.901ZM379.78 308.439L380.402 307.656L380.402 307.656L379.78 308.439ZM385.32 313.682C382.53 313.682 380.128 313.02 378.076 311.727L377.009 313.418C379.418 314.937 382.2 315.682 385.32 315.682V313.682ZM378.078 311.728C376.029 310.427 374.415 308.604 373.24 306.227L371.447 307.114C372.772 309.794 374.625 311.905 377.007 313.417L378.078 311.728ZM373.242 306.231C372.085 303.864 371.49 301.066 371.49 297.807H369.49C369.49 301.309 370.131 304.42 371.445 307.11L373.242 306.231ZM371.49 297.807C371.49 294.518 372.086 291.698 373.243 289.316L371.444 288.442C370.13 291.146 369.49 294.277 369.49 297.807H371.49ZM373.241 289.32C374.417 286.929 376.03 285.1 378.078 283.8L377.007 282.112C374.623 283.624 372.771 285.744 371.446 288.438L373.241 289.32ZM378.076 283.802C380.128 282.508 382.53 281.847 385.32 281.847V279.847C382.2 279.847 379.418 280.591 377.009 282.11L378.076 283.802ZM385.32 281.847C388.109 281.847 390.503 282.508 392.539 283.8L393.611 282.112C391.215 280.591 388.439 279.847 385.32 279.847V281.847ZM392.542 283.802C394.603 285.101 396.214 286.929 397.375 289.316L399.174 288.442C397.862 285.744 396.008 283.623 393.609 282.11L392.542 283.802ZM397.377 289.32C398.547 291.701 399.149 294.52 399.149 297.807H401.149C401.149 294.275 400.501 291.143 399.172 288.438L397.377 289.32ZM399.149 297.807C399.149 301.064 398.547 303.861 397.378 306.227L399.171 307.114C400.501 304.423 401.149 301.311 401.149 297.807H399.149ZM397.376 306.231C396.216 308.605 394.604 310.426 392.542 311.727L393.609 313.418C396.007 311.906 397.861 309.793 399.173 307.11L397.376 306.231ZM392.539 311.728C390.503 313.02 388.109 313.682 385.32 313.682V315.682C388.439 315.682 391.215 314.937 393.611 313.417L392.539 311.728ZM385.32 311.165C387.74 311.165 389.82 310.541 391.481 309.222L390.237 307.656C389.001 308.638 387.388 309.165 385.32 309.165V311.165ZM391.481 309.222C393.085 307.949 394.26 306.28 395.014 304.249L393.139 303.553C392.501 305.271 391.532 306.628 390.237 307.656L391.481 309.222ZM395.014 304.249C395.755 302.252 396.121 300.102 396.121 297.807H394.121C394.121 299.887 393.79 301.799 393.139 303.553L395.014 304.249ZM396.121 297.807C396.121 295.512 395.755 293.355 395.015 291.346L393.138 292.037C393.79 293.807 394.121 295.727 394.121 297.807H396.121ZM395.015 291.346C394.262 289.301 393.088 287.619 391.486 286.331L390.233 287.89C391.529 288.932 392.5 290.304 393.138 292.037L395.015 291.346ZM391.486 286.331C389.825 284.996 387.743 284.364 385.32 284.364V286.364C387.385 286.364 388.996 286.896 390.233 287.89L391.486 286.331ZM385.32 284.364C382.896 284.364 380.814 284.996 379.153 286.331L380.406 287.89C381.643 286.896 383.254 286.364 385.32 286.364V284.364ZM379.153 286.331C377.551 287.619 376.377 289.301 375.624 291.346L377.501 292.037C378.14 290.304 379.111 288.932 380.406 287.89L379.153 286.331ZM375.624 291.346C374.884 293.355 374.518 295.512 374.518 297.807H376.518C376.518 295.727 376.849 293.807 377.501 292.037L375.624 291.346ZM374.518 297.807C374.518 300.102 374.884 302.252 375.625 304.249L377.5 303.553C376.849 301.799 376.518 299.887 376.518 297.807H374.518ZM375.625 304.249C376.379 306.28 377.555 307.949 379.158 309.222L380.402 307.656C379.107 306.628 378.138 305.271 377.5 303.553L375.625 304.249ZM379.158 309.222C380.819 310.541 382.899 311.165 385.32 311.165V309.165C383.251 309.165 381.638 308.638 380.402 307.656L379.158 309.222Z" fill="black"/>
<defs>
<filter id="filter0_d_1_127" x="185" y="72" width="312" height="313" filterUnits="userSpaceOnUse" color-interpolation-filters="sRGB">
<feFlood flood-opacity="0" result="BackgroundImageFix"/>
<feColorMatrix in="SourceAlpha" type="matrix" values="0 0 0 0 0 0 0 0 0 0 0 0 0 0 0 0 0 0 127 0" result="hardAlpha"/>
<feOffset dx="4" dy="5"/>
<feGaussianBlur stdDeviation="2.5"/>
<feComposite in2="hardAlpha" operator="out"/>
<feColorMatrix type="matrix" values="0 0 0 0 0 0 0 0 0 0 0 0 0 0 0 0 0 0 1 0"/>
<feBlend mode="normal" in2="BackgroundImageFix" result="effect1_dropShadow_1_127"/>
<feBlend mode="normal" in="SourceGraphic" in2="effect1_dropShadow_1_127" result="shape"/>
</filter>
<linearGradient id="paint0_linear_1_127" x1="439.301" y1="97" x2="584.293" y2="244.916" gradientUnits="userSpaceOnUse">
<stop offset="0.0361446" stop-color="#F5B169"/>
<stop offset="1" stop-color="white" stop-opacity="0"/>
</linearGradient>
<linearGradient id="paint1_linear_1_127" x1="428.277" y1="300" x2="517.916" y2="430.213" gradientUnits="userSpaceOnUse">
<stop offset="0.0361446" stop-color="#F5B169"/>
<stop offset="1" stop-color="white" stop-opacity="0"/>
</linearGradient>
<linearGradient id="paint2_linear_1_127" x1="500.651" y1="256" x2="553.909" y2="352.212" gradientUnits="userSpaceOnUse">
<stop offset="0.0361446" stop-color="#F5B169"/>
<stop offset="1" stop-color="white" stop-opacity="0"/>
</linearGradient>
<linearGradient id="paint3_linear_1_127" x1="243.602" y1="143.928" x2="77.1163" y2="12.0906" gradientUnits="userSpaceOnUse">
<stop offset="0.0361446" stop-color="#F5B169"/>
<stop offset="1" stop-color="white" stop-opacity="0"/>
</linearGradient>
<linearGradient id="paint4_linear_1_127" x1="133.964" y1="281" x2="202.106" y2="410.915" gradientUnits="userSpaceOnUse">
<stop offset="0.0361446" stop-color="#F5B169"/>
<stop offset="1" stop-color="white" stop-opacity="0"/>
</linearGradient>
<linearGradient id="paint5_linear_1_127" x1="235.855" y1="315" x2="340.482" y2="506.491" gradientUnits="userSpaceOnUse">
<stop offset="0.0361446" stop-color="#F5B169"/>
<stop offset="1" stop-color="white" stop-opacity="0"/>
</linearGradient>
<linearGradient id="paint6_linear_1_127" x1="361.082" y1="25.2041" x2="588.931" y2="222.857" gradientUnits="userSpaceOnUse">
<stop stop-color="#F5B169"/>
<stop offset="1" stop-color="white" stop-opacity="0"/>
</linearGradient>
<linearGradient id="paint7_linear_1_127" x1="237.598" y1="107.02" x2="630.568" y2="542.718" gradientUnits="userSpaceOnUse">
<stop stop-color="#F5B169"/>
<stop offset="1" stop-color="white" stop-opacity="0"/>
</linearGradient>
</defs>
</svg>
