<svg width="677" height="444" viewBox="0 0 677 444" fill="none" xmlns="http://www.w3.org/2000/svg">
<rect width="677" height="444" fill="white"/>
<ellipse cx="451" cy="138.5" rx="50" ry="51.5" fill="url(#paint0_linear_1_138)"/>
<ellipse cx="438" cy="336.5" rx="46" ry="46.5" fill="url(#paint1_linear_1_138)"/>
<circle cx="500" cy="271" r="25" fill="url(#paint2_linear_1_138)"/>
<ellipse cx="201" cy="99.5" rx="63" ry="63.5" fill="url(#paint3_linear_1_138)"/>
<circle cx="138.5" cy="306.5" r="35.5" fill="url(#paint4_linear_1_138)"/>
<ellipse cx="252" cy="364.5" rx="59" ry="59.5" fill="url(#paint5_linear_1_138)"/>
<ellipse cx="410" cy="74.5" rx="74" ry="74.5" fill="url(#paint6_linear_1_138)"/>
<g filter="url(#filter0_d_1_138)">
<ellipse cx="324" cy="213.5" rx="151" ry="151.5" fill="white"/>
<path d="M465 213.5C465 291.679 401.841 355 324 355C246.159 355 183 291.679 183 213.5C183 135.321 246.159 72 324 72C401.841 72 465 135.321 465 213.5Z" stroke="url(#paint7_linear_1_138)" stroke-width="20"/>
</g>
<path d="M310.77 244.293C305.353 244.293 300.475 243.215 296.136 241.061C291.796 238.907 288.318 235.952 285.702 232.197C283.086 228.443 281.655 224.165 281.409 219.364H292.489C292.92 223.642 294.858 227.181 298.305 229.982C301.783 232.751 305.938 234.136 310.77 234.136C314.648 234.136 318.095 233.228 321.111 231.413C324.158 229.597 326.543 227.104 328.266 223.934C330.021 220.733 330.898 217.117 330.898 213.085C330.898 208.961 329.99 205.283 328.174 202.052C326.389 198.79 323.927 196.22 320.788 194.342C317.648 192.465 314.063 191.511 310.031 191.48C307.138 191.449 304.168 191.896 301.121 192.819C298.075 193.711 295.566 194.866 293.597 196.281L282.886 194.989L288.611 148.455H337.73V158.611H298.213L294.889 186.494H295.443C297.382 184.955 299.813 183.678 302.737 182.663C305.661 181.647 308.708 181.139 311.878 181.139C317.664 181.139 322.819 182.524 327.343 185.294C331.898 188.033 335.468 191.788 338.053 196.558C340.669 201.329 341.977 206.776 341.977 212.901C341.977 218.933 340.623 224.319 337.915 229.058C335.237 233.767 331.544 237.491 326.835 240.23C322.126 242.938 316.771 244.293 310.77 244.293ZM380.075 190.188C376.166 190.188 372.596 189.233 369.365 187.325C366.164 185.417 363.609 182.863 361.701 179.662C359.793 176.43 358.839 172.86 358.839 168.952C358.839 165.043 359.793 161.488 361.701 158.288C363.609 155.056 366.164 152.486 369.365 150.578C372.596 148.67 376.166 147.716 380.075 147.716C383.983 147.716 387.538 148.67 390.739 150.578C393.97 152.486 396.54 155.056 398.448 158.288C400.356 161.488 401.311 165.043 401.311 168.952C401.311 172.86 400.356 176.43 398.448 179.662C396.54 182.863 393.97 185.417 390.739 187.325C387.538 189.233 383.983 190.188 380.075 190.188ZM380.075 180.955C382.291 180.955 384.307 180.416 386.122 179.339C387.938 178.262 389.385 176.815 390.462 174.999C391.539 173.183 392.078 171.168 392.078 168.952C392.078 166.736 391.539 164.72 390.462 162.904C389.385 161.088 387.938 159.642 386.122 158.565C384.307 157.487 382.291 156.949 380.075 156.949C377.859 156.949 375.843 157.487 374.027 158.565C372.211 159.642 370.765 161.088 369.688 162.904C368.61 164.72 368.072 166.736 368.072 168.952C368.072 171.168 368.61 173.183 369.688 174.999C370.765 176.815 372.211 178.262 374.027 179.339C375.843 180.416 377.859 180.955 380.075 180.955Z" fill="black"/>
<path d="M296.136 241.061L294.802 243.748L294.802 243.748L296.136 241.061ZM285.702 232.197L288.164 230.482L288.164 230.482L285.702 232.197ZM281.409 219.364V216.364H278.251L278.413 219.517L281.409 219.364ZM292.489 219.364L295.474 219.063L295.202 216.364H292.489V219.364ZM298.305 229.982L296.414 232.31L296.425 232.319L296.436 232.328L298.305 229.982ZM321.111 231.413L319.575 228.836L319.563 228.842L321.111 231.413ZM328.266 223.934L325.636 222.492L325.631 222.501L328.266 223.934ZM328.174 202.052L325.542 203.492L325.55 203.507L325.559 203.521L328.174 202.052ZM310.031 191.48L309.999 194.48L310.008 194.48L310.031 191.48ZM301.121 192.819L301.965 195.698L301.978 195.694L301.991 195.69L301.121 192.819ZM293.597 196.281L293.237 199.26L294.398 199.4L295.348 198.717L293.597 196.281ZM282.886 194.989L279.909 194.622L279.542 197.607L282.527 197.967L282.886 194.989ZM288.611 148.455V145.455H285.957L285.633 148.088L288.611 148.455ZM337.73 148.455H340.73V145.455H337.73V148.455ZM337.73 158.611V161.611H340.73V158.611H337.73ZM298.213 158.611V155.611H295.549L295.234 158.256L298.213 158.611ZM294.889 186.494L291.91 186.139L291.51 189.494H294.889V186.494ZM295.443 186.494V189.494H296.489L297.308 188.844L295.443 186.494ZM327.343 185.294L325.777 187.853L325.787 187.859L325.797 187.865L327.343 185.294ZM338.053 196.558L335.416 197.988L335.419 197.994L335.423 198.001L338.053 196.558ZM337.915 229.058L335.31 227.57L335.307 227.575L337.915 229.058ZM326.835 240.23L328.331 242.831L328.337 242.827L328.344 242.823L326.835 240.23ZM310.77 241.293C305.761 241.293 301.348 240.299 297.47 238.374L294.802 243.748C299.602 246.132 304.946 247.293 310.77 247.293V241.293ZM297.47 238.374C293.554 236.43 290.475 233.799 288.164 230.482L283.241 233.912C286.162 238.105 290.038 241.383 294.802 243.748L297.47 238.374ZM288.164 230.482C285.885 227.212 284.624 223.481 284.405 219.21L278.413 219.517C278.686 224.849 280.288 229.674 283.241 233.912L288.164 230.482ZM281.409 222.364H292.489V216.364H281.409V222.364ZM289.504 219.664C290.018 224.765 292.37 229.024 296.414 232.31L300.197 227.653C297.347 225.337 295.821 222.518 295.474 219.063L289.504 219.664ZM296.436 232.328C300.492 235.559 305.322 237.136 310.77 237.136V231.136C306.554 231.136 303.074 229.944 300.174 227.635L296.436 232.328ZM310.77 237.136C315.136 237.136 319.128 236.108 322.658 233.983L319.563 228.842C317.061 230.349 314.16 231.136 310.77 231.136V237.136ZM322.647 233.99C326.164 231.893 328.926 229.001 330.902 225.367L325.631 222.501C324.16 225.206 322.151 227.3 319.575 228.836L322.647 233.99ZM330.897 225.376C332.918 221.688 333.898 217.567 333.898 213.085H327.898C327.898 216.667 327.123 219.778 325.636 222.492L330.897 225.376ZM333.898 213.085C333.898 208.506 332.885 204.311 330.789 200.582L325.559 203.521C327.095 206.255 327.898 209.417 327.898 213.085H333.898ZM330.806 200.612C328.769 196.889 325.933 193.924 322.327 191.768L319.248 196.917C321.921 198.515 324.009 200.69 325.542 203.492L330.806 200.612ZM322.327 191.768C318.684 189.588 314.564 188.515 310.054 188.48L310.008 194.48C313.562 194.507 316.613 195.341 319.248 196.917L322.327 191.768ZM310.063 188.48C306.836 188.446 303.562 188.945 300.251 189.948L301.991 195.69C304.775 194.846 307.441 194.453 309.999 194.48L310.063 188.48ZM300.278 189.94C297.001 190.9 294.161 192.181 291.846 193.845L295.348 198.717C296.972 197.55 299.148 196.523 301.965 195.698L300.278 189.94ZM293.956 193.303L283.246 192.01L282.527 197.967L293.237 199.26L293.956 193.303ZM285.864 195.355L291.588 148.821L285.633 148.088L279.909 194.622L285.864 195.355ZM288.611 151.455H337.73V145.455H288.611V151.455ZM334.73 148.455V158.611H340.73V148.455H334.73ZM337.73 155.611H298.213V161.611H337.73V155.611ZM295.234 158.256L291.91 186.139L297.868 186.849L301.192 158.966L295.234 158.256ZM294.889 189.494H295.443V183.494H294.889V189.494ZM297.308 188.844C298.926 187.56 301.04 186.428 303.722 185.497L301.753 179.829C298.587 180.929 295.838 182.351 293.578 184.144L297.308 188.844ZM303.722 185.497C306.321 184.594 309.035 184.139 311.878 184.139V178.139C308.381 178.139 305.001 178.7 301.753 179.829L303.722 185.497ZM311.878 184.139C317.163 184.139 321.766 185.397 325.777 187.853L328.91 182.735C323.871 179.651 318.165 178.139 311.878 178.139V184.139ZM325.797 187.865C329.883 190.322 333.08 193.678 335.416 197.988L340.691 195.129C337.856 189.898 333.913 185.744 328.889 182.723L325.797 187.865ZM335.423 198.001C337.767 202.276 338.977 207.216 338.977 212.901H344.977C344.977 206.336 343.571 200.381 340.684 195.116L335.423 198.001ZM338.977 212.901C338.977 218.467 337.733 223.33 335.31 227.57L340.52 230.547C343.513 225.307 344.977 219.399 344.977 212.901H338.977ZM335.307 227.575C332.893 231.821 329.58 235.163 325.327 237.637L328.344 242.823C333.508 239.819 337.582 235.713 340.523 230.541L335.307 227.575ZM325.339 237.63C321.132 240.049 316.303 241.293 310.77 241.293V247.293C317.24 247.293 323.121 245.827 328.331 242.831L325.339 237.63ZM369.365 187.325L367.828 189.902L367.839 189.909L369.365 187.325ZM361.701 179.662L359.118 181.187L359.124 181.198L361.701 179.662ZM361.701 158.288L364.278 159.824L364.284 159.813L361.701 158.288ZM369.365 150.578L367.839 147.995L367.828 148.001L369.365 150.578ZM390.739 150.578L389.203 153.155L389.213 153.161L390.739 150.578ZM398.448 158.288L395.865 159.813L395.871 159.824L398.448 158.288ZM398.448 179.662L401.025 181.198L401.032 181.187L398.448 179.662ZM390.739 187.325L389.213 184.742L389.203 184.748L390.739 187.325ZM386.122 179.339L387.653 181.919L387.653 181.919L386.122 179.339ZM390.462 174.999L393.042 176.53L393.042 176.53L390.462 174.999ZM390.462 162.904L393.042 161.374L393.042 161.374L390.462 162.904ZM386.122 158.565L387.653 155.984L387.653 155.984L386.122 158.565ZM374.027 158.565L372.497 155.984L372.497 155.984L374.027 158.565ZM369.688 162.904L367.108 161.374L367.108 161.374L369.688 162.904ZM369.688 174.999L367.108 176.53L367.108 176.53L369.688 174.999ZM380.075 187.188C376.679 187.188 373.64 186.366 370.89 184.742L367.839 189.909C371.552 192.101 375.653 193.188 380.075 193.188V187.188ZM370.901 184.748C368.128 183.095 365.931 180.899 364.278 178.126L359.124 181.198C361.288 184.827 364.2 187.739 367.828 189.902L370.901 184.748ZM364.284 178.137C362.661 175.387 361.839 172.347 361.839 168.952H355.839C355.839 173.374 356.925 177.474 359.118 181.187L364.284 178.137ZM361.839 168.952C361.839 165.556 362.661 162.537 364.278 159.824L359.124 156.751C356.925 160.44 355.839 164.53 355.839 168.952H361.839ZM364.284 159.813C365.939 157.011 368.135 154.804 370.901 153.155L367.828 148.001C364.193 150.169 361.28 153.101 359.118 156.762L364.284 159.813ZM370.89 153.161C373.64 151.538 376.679 150.716 380.075 150.716V144.716C375.653 144.716 371.552 145.802 367.839 147.995L370.89 153.161ZM380.075 150.716C383.47 150.716 386.49 151.538 389.203 153.155L392.275 148.001C388.587 145.802 384.497 144.716 380.075 144.716V150.716ZM389.213 153.161C392.009 154.812 394.215 157.018 395.865 159.813L401.032 156.762C398.866 153.094 395.932 150.161 392.264 147.995L389.213 153.161ZM395.871 159.824C397.489 162.537 398.311 165.556 398.311 168.952H404.311C404.311 164.53 403.224 160.44 401.025 156.751L395.871 159.824ZM398.311 168.952C398.311 172.347 397.489 175.387 395.865 178.137L401.032 181.187C403.224 177.474 404.311 173.374 404.311 168.952H398.311ZM395.871 178.126C394.223 180.892 392.016 183.087 389.213 184.742L392.264 189.909C395.925 187.747 398.858 184.834 401.025 181.198L395.871 178.126ZM389.203 184.748C386.49 186.366 383.47 187.188 380.075 187.188V193.188C384.497 193.188 388.587 192.101 392.275 189.902L389.203 184.748ZM380.075 183.955C382.801 183.955 385.35 183.285 387.653 181.919L384.592 176.759C383.263 177.547 381.78 177.955 380.075 177.955V183.955ZM387.653 181.919C389.901 180.585 391.708 178.778 393.042 176.53L387.882 173.469C387.061 174.852 385.975 175.938 384.592 176.759L387.653 181.919ZM393.042 176.53C394.408 174.227 395.078 171.678 395.078 168.952H389.078C389.078 170.657 388.67 172.14 387.882 173.469L393.042 176.53ZM395.078 168.952C395.078 166.225 394.408 163.676 393.042 161.374L387.882 164.435C388.67 165.764 389.078 167.247 389.078 168.952H395.078ZM393.042 161.374C391.708 159.125 389.901 157.318 387.653 155.984L384.592 161.145C385.975 161.966 387.061 163.051 387.882 164.435L393.042 161.374ZM387.653 155.984C385.35 154.619 382.801 153.949 380.075 153.949V159.949C381.78 159.949 383.263 160.356 384.592 161.145L387.653 155.984ZM380.075 153.949C377.348 153.949 374.799 154.619 372.497 155.984L375.558 161.145C376.887 160.356 378.37 159.949 380.075 159.949V153.949ZM372.497 155.984C370.249 157.318 368.441 159.125 367.108 161.374L372.268 164.435C373.089 163.051 374.174 161.966 375.558 161.145L372.497 155.984ZM367.108 161.374C365.742 163.676 365.072 166.225 365.072 168.952H371.072C371.072 167.247 371.479 165.764 372.268 164.435L367.108 161.374ZM365.072 168.952C365.072 171.678 365.742 174.227 367.108 176.53L372.268 173.469C371.479 172.14 371.072 170.657 371.072 168.952H365.072ZM367.108 176.53C368.441 178.778 370.249 180.585 372.497 181.919L375.558 176.759C374.174 175.938 373.089 174.852 372.268 173.469L367.108 176.53ZM372.497 181.919C374.799 183.285 377.348 183.955 380.075 183.955V177.955C378.37 177.955 376.887 177.547 375.558 176.759L372.497 181.919Z" fill="black"/>
<path d="M275.351 307H269.811L285.834 263.364H291.289L307.311 307H301.772L288.732 270.267H288.391L275.351 307ZM277.397 289.955H299.726V294.642H277.397V289.955ZM318.455 287.312V307H313.426V274.273H318.284V279.386H318.711C319.478 277.724 320.642 276.389 322.205 275.381C323.767 274.358 325.784 273.847 328.256 273.847C330.472 273.847 332.411 274.301 334.073 275.21C335.735 276.105 337.027 277.469 337.951 279.301C338.874 281.119 339.336 283.42 339.336 286.205V307H334.307V286.545C334.307 283.974 333.64 281.972 332.304 280.537C330.969 279.088 329.137 278.364 326.807 278.364C325.202 278.364 323.767 278.712 322.503 279.408C321.253 280.104 320.266 281.119 319.542 282.455C318.817 283.79 318.455 285.409 318.455 287.312ZM361.82 307.682C358.865 307.682 356.273 306.979 354.043 305.572C351.827 304.166 350.094 302.199 348.844 299.67C347.608 297.142 346.99 294.187 346.99 290.807C346.99 287.398 347.608 284.422 348.844 281.879C350.094 279.337 351.827 277.362 354.043 275.956C356.273 274.55 358.865 273.847 361.82 273.847C364.774 273.847 367.359 274.55 369.575 275.956C371.805 277.362 373.538 279.337 374.774 281.879C376.024 284.422 376.649 287.398 376.649 290.807C376.649 294.187 376.024 297.142 374.774 299.67C373.538 302.199 371.805 304.166 369.575 305.572C367.359 306.979 364.774 307.682 361.82 307.682ZM361.82 303.165C364.064 303.165 365.911 302.589 367.359 301.439C368.808 300.288 369.881 298.776 370.577 296.901C371.273 295.026 371.621 292.994 371.621 290.807C371.621 288.619 371.273 286.581 370.577 284.692C369.881 282.803 368.808 281.276 367.359 280.111C365.911 278.946 364.064 278.364 361.82 278.364C359.575 278.364 357.729 278.946 356.28 280.111C354.831 281.276 353.759 282.803 353.062 284.692C352.366 286.581 352.018 288.619 352.018 290.807C352.018 292.994 352.366 295.026 353.062 296.901C353.759 298.776 354.831 300.288 356.28 301.439C357.729 302.589 359.575 303.165 361.82 303.165Z" fill="black"/>
<path d="M275.351 307V308H276.057L276.294 307.335L275.351 307ZM269.811 307L268.873 306.655L268.379 308H269.811V307ZM285.834 263.364V262.364H285.136L284.895 263.019L285.834 263.364ZM291.289 263.364L292.227 263.019L291.987 262.364H291.289V263.364ZM307.311 307V308H308.744L308.25 306.655L307.311 307ZM301.772 307L300.829 307.335L301.066 308H301.772V307ZM288.732 270.267L289.674 269.933L289.438 269.267H288.732V270.267ZM288.391 270.267V269.267H287.685L287.449 269.933L288.391 270.267ZM277.397 289.955V288.955H276.397V289.955H277.397ZM299.726 289.955H300.726V288.955H299.726V289.955ZM299.726 294.642V295.642H300.726V294.642H299.726ZM277.397 294.642H276.397V295.642H277.397V294.642ZM275.351 306H269.811V308H275.351V306ZM270.75 307.345L286.773 263.708L284.895 263.019L268.873 306.655L270.75 307.345ZM285.834 264.364H291.289V262.364H285.834V264.364ZM290.35 263.708L306.373 307.345L308.25 306.655L292.227 263.019L290.35 263.708ZM307.311 306H301.772V308H307.311V306ZM302.714 306.665L289.674 269.933L287.79 270.602L300.829 307.335L302.714 306.665ZM288.732 269.267H288.391V271.267H288.732V269.267ZM287.449 269.933L274.409 306.665L276.294 307.335L289.333 270.602L287.449 269.933ZM277.397 290.955H299.726V288.955H277.397V290.955ZM298.726 289.955V294.642H300.726V289.955H298.726ZM299.726 293.642H277.397V295.642H299.726V293.642ZM278.397 294.642V289.955H276.397V294.642H278.397ZM318.455 307V308H319.455V307H318.455ZM313.426 307H312.426V308H313.426V307ZM313.426 274.273V273.273H312.426V274.273H313.426ZM318.284 274.273H319.284V273.273H318.284V274.273ZM318.284 279.386H317.284V280.386H318.284V279.386ZM318.711 279.386V280.386H319.35L319.619 279.805L318.711 279.386ZM322.205 275.381L322.747 276.221L322.753 276.217L322.205 275.381ZM334.073 275.21L333.593 276.088L333.599 276.091L334.073 275.21ZM337.951 279.301L337.058 279.751L337.059 279.754L337.951 279.301ZM339.336 307V308H340.336V307H339.336ZM334.307 307H333.307V308H334.307V307ZM332.304 280.537L331.569 281.215L331.572 281.218L332.304 280.537ZM322.503 279.408L322.021 278.532L322.017 278.534L322.503 279.408ZM319.542 282.455L318.663 281.978L318.663 281.978L319.542 282.455ZM317.455 287.312V307H319.455V287.312H317.455ZM318.455 306H313.426V308H318.455V306ZM314.426 307V274.273H312.426V307H314.426ZM313.426 275.273H318.284V273.273H313.426V275.273ZM317.284 274.273V279.386H319.284V274.273H317.284ZM318.284 280.386H318.711V278.386H318.284V280.386ZM319.619 279.805C320.305 278.319 321.341 277.128 322.747 276.221L321.663 274.54C319.943 275.65 318.65 277.13 317.803 278.967L319.619 279.805ZM322.753 276.217C324.107 275.331 325.917 274.847 328.256 274.847V272.847C325.652 272.847 323.427 273.385 321.657 274.544L322.753 276.217ZM328.256 274.847C330.333 274.847 332.101 275.272 333.593 276.088L334.553 274.333C332.72 273.331 330.611 272.847 328.256 272.847V274.847ZM333.599 276.091C335.064 276.88 336.218 278.085 337.058 279.751L338.844 278.851C337.837 276.852 336.405 275.33 334.547 274.33L333.599 276.091ZM337.059 279.754C337.89 281.39 338.336 283.523 338.336 286.205H340.336C340.336 283.318 339.858 280.849 338.842 278.848L337.059 279.754ZM338.336 286.205V307H340.336V286.205H338.336ZM339.336 306H334.307V308H339.336V306ZM335.307 307V286.545H333.307V307H335.307ZM335.307 286.545C335.307 283.803 334.592 281.527 333.036 279.856L331.572 281.218C332.687 282.416 333.307 284.146 333.307 286.545H335.307ZM333.04 279.859C331.481 278.167 329.361 277.364 326.807 277.364V279.364C328.913 279.364 330.458 280.009 331.569 281.215L333.04 279.859ZM326.807 277.364C325.053 277.364 323.449 277.745 322.021 278.532L322.985 280.284C324.086 279.678 325.351 279.364 326.807 279.364V277.364ZM322.017 278.534C320.59 279.328 319.472 280.486 318.663 281.978L320.421 282.931C321.06 281.752 321.916 280.879 322.99 280.281L322.017 278.534ZM318.663 281.978C317.841 283.492 317.455 285.284 317.455 287.312H319.455C319.455 285.534 319.793 284.088 320.421 282.931L318.663 281.978ZM354.043 305.572L353.507 306.417L353.509 306.418L354.043 305.572ZM348.844 299.67L347.945 300.11L347.947 300.114L348.844 299.67ZM348.844 281.879L347.946 281.438L347.944 281.442L348.844 281.879ZM354.043 275.956L353.509 275.11L353.507 275.112L354.043 275.956ZM369.575 275.956L369.039 276.8L369.042 276.802L369.575 275.956ZM374.774 281.879L373.875 282.316L373.877 282.32L374.774 281.879ZM374.774 299.67L373.878 299.227L373.876 299.231L374.774 299.67ZM369.575 305.572L369.042 304.727L369.039 304.728L369.575 305.572ZM367.359 301.439L366.737 300.656L366.737 300.656L367.359 301.439ZM370.577 296.901L371.514 297.249L371.514 297.249L370.577 296.901ZM370.577 284.692L371.515 284.346L371.515 284.346L370.577 284.692ZM367.359 280.111L367.986 279.331L367.986 279.331L367.359 280.111ZM356.28 280.111L355.653 279.331L355.653 279.331L356.28 280.111ZM353.062 284.692L352.124 284.346L352.124 284.346L353.062 284.692ZM353.062 296.901L352.125 297.249L352.125 297.249L353.062 296.901ZM356.28 301.439L356.902 300.656L356.902 300.656L356.28 301.439ZM361.82 306.682C359.03 306.682 356.628 306.02 354.576 304.727L353.509 306.418C355.918 307.937 358.7 308.682 361.82 308.682V306.682ZM354.578 304.728C352.529 303.427 350.915 301.604 349.74 299.227L347.947 300.114C349.272 302.794 351.125 304.905 353.507 306.417L354.578 304.728ZM349.742 299.231C348.585 296.864 347.99 294.066 347.99 290.807H345.99C345.99 294.309 346.631 297.42 347.945 300.11L349.742 299.231ZM347.99 290.807C347.99 287.518 348.586 284.698 349.743 282.316L347.944 281.442C346.63 284.146 345.99 287.277 345.99 290.807H347.99ZM349.741 282.32C350.917 279.929 352.53 278.1 354.578 276.8L353.507 275.112C351.123 276.624 349.271 278.744 347.946 281.438L349.741 282.32ZM354.576 276.802C356.628 275.508 359.03 274.847 361.82 274.847V272.847C358.7 272.847 355.918 273.591 353.509 275.11L354.576 276.802ZM361.82 274.847C364.609 274.847 367.003 275.508 369.039 276.8L370.111 275.112C367.715 273.591 364.939 272.847 361.82 272.847V274.847ZM369.042 276.802C371.103 278.101 372.714 279.929 373.875 282.316L375.674 281.442C374.362 278.744 372.508 276.623 370.109 275.11L369.042 276.802ZM373.877 282.32C375.047 284.701 375.649 287.52 375.649 290.807H377.649C377.649 287.275 377.001 284.143 375.672 281.438L373.877 282.32ZM375.649 290.807C375.649 294.064 375.047 296.861 373.878 299.227L375.671 300.114C377.001 297.423 377.649 294.311 377.649 290.807H375.649ZM373.876 299.231C372.716 301.605 371.104 303.426 369.042 304.727L370.109 306.418C372.507 304.906 374.361 302.793 375.673 300.11L373.876 299.231ZM369.039 304.728C367.003 306.02 364.609 306.682 361.82 306.682V308.682C364.939 308.682 367.715 307.937 370.111 306.417L369.039 304.728ZM361.82 304.165C364.24 304.165 366.32 303.541 367.981 302.222L366.737 300.656C365.501 301.638 363.888 302.165 361.82 302.165V304.165ZM367.981 302.222C369.585 300.949 370.76 299.28 371.514 297.249L369.639 296.553C369.001 298.271 368.032 299.628 366.737 300.656L367.981 302.222ZM371.514 297.249C372.255 295.252 372.621 293.102 372.621 290.807H370.621C370.621 292.887 370.29 294.799 369.639 296.553L371.514 297.249ZM372.621 290.807C372.621 288.512 372.255 286.355 371.515 284.346L369.638 285.037C370.29 286.807 370.621 288.727 370.621 290.807H372.621ZM371.515 284.346C370.762 282.301 369.588 280.619 367.986 279.331L366.733 280.89C368.029 281.932 369 283.304 369.638 285.037L371.515 284.346ZM367.986 279.331C366.325 277.996 364.243 277.364 361.82 277.364V279.364C363.885 279.364 365.496 279.896 366.733 280.89L367.986 279.331ZM361.82 277.364C359.396 277.364 357.314 277.996 355.653 279.331L356.906 280.89C358.143 279.896 359.754 279.364 361.82 279.364V277.364ZM355.653 279.331C354.051 280.619 352.877 282.301 352.124 284.346L354.001 285.037C354.64 283.304 355.611 281.932 356.906 280.89L355.653 279.331ZM352.124 284.346C351.384 286.355 351.018 288.512 351.018 290.807H353.018C353.018 288.727 353.349 286.807 354.001 285.037L352.124 284.346ZM351.018 290.807C351.018 293.102 351.384 295.252 352.125 297.249L354 296.553C353.349 294.799 353.018 292.887 353.018 290.807H351.018ZM352.125 297.249C352.879 299.28 354.055 300.949 355.658 302.222L356.902 300.656C355.607 299.628 354.638 298.271 354 296.553L352.125 297.249ZM355.658 302.222C357.319 303.541 359.399 304.165 361.82 304.165V302.165C359.751 302.165 358.138 301.638 356.902 300.656L355.658 302.222Z" fill="black"/>
<defs>
<filter id="filter0_d_1_138" x="172" y="62" width="312" height="313" filterUnits="userSpaceOnUse" color-interpolation-filters="sRGB">
<feFlood flood-opacity="0" result="BackgroundImageFix"/>
<feColorMatrix in="SourceAlpha" type="matrix" values="0 0 0 0 0 0 0 0 0 0 0 0 0 0 0 0 0 0 127 0" result="hardAlpha"/>
<feOffset dx="4" dy="5"/>
<feGaussianBlur stdDeviation="2.5"/>
<feComposite in2="hardAlpha" operator="out"/>
<feColorMatrix type="matrix" values="0 0 0 0 0 0 0 0 0 0 0 0 0 0 0 0 0 0 1 0"/>
<feBlend mode="normal" in2="BackgroundImageFix" result="effect1_dropShadow_1_138"/>
<feBlend mode="normal" in="SourceGraphic" in2="effect1_dropShadow_1_138" result="shape"/>
</filter>
<linearGradient id="paint0_linear_1_138" x1="426.301" y1="87" x2="592.478" y2="264.69" gradientUnits="userSpaceOnUse">
<stop offset="0.0361446" stop-color="#BAF553"/>
<stop offset="1" stop-color="white" stop-opacity="0"/>
</linearGradient>
<linearGradient id="paint1_linear_1_138" x1="415.277" y1="290" x2="504.916" y2="420.213" gradientUnits="userSpaceOnUse">
<stop offset="0.0361446" stop-color="#BAF553"/>
<stop offset="1" stop-color="white" stop-opacity="0"/>
</linearGradient>
<linearGradient id="paint2_linear_1_138" x1="487.651" y1="246" x2="552.273" y2="349.788" gradientUnits="userSpaceOnUse">
<stop offset="0.0361446" stop-color="#BAF553"/>
<stop offset="1" stop-color="white" stop-opacity="0"/>
</linearGradient>
<linearGradient id="paint3_linear_1_138" x1="230.602" y1="133.928" x2="64.1163" y2="2.0906" gradientUnits="userSpaceOnUse">
<stop offset="0.0361446" stop-color="#BAF553"/>
<stop offset="1" stop-color="white" stop-opacity="0"/>
</linearGradient>
<linearGradient id="paint4_linear_1_138" x1="120.964" y1="271" x2="189.106" y2="400.915" gradientUnits="userSpaceOnUse">
<stop offset="0.0361446" stop-color="#BAF553"/>
<stop offset="1" stop-color="white" stop-opacity="0"/>
</linearGradient>
<linearGradient id="paint5_linear_1_138" x1="222.855" y1="305" x2="327.482" y2="496.491" gradientUnits="userSpaceOnUse">
<stop offset="0.0361446" stop-color="#BAF553"/>
<stop offset="1" stop-color="white" stop-opacity="0"/>
</linearGradient>
<linearGradient id="paint6_linear_1_138" x1="348.082" y1="15.2041" x2="575.931" y2="212.857" gradientUnits="userSpaceOnUse">
<stop stop-color="#BAF553"/>
<stop offset="1" stop-color="white" stop-opacity="0"/>
</linearGradient>
<linearGradient id="paint7_linear_1_138" x1="224.598" y1="97.0201" x2="617.568" y2="532.718" gradientUnits="userSpaceOnUse">
<stop stop-color="#BAF553"/>
<stop offset="1" stop-color="white" stop-opacity="0"/>
</linearGradient>
</defs>
</svg>
