<svg width="677" height="444" viewBox="0 0 677 444" fill="none" xmlns="http://www.w3.org/2000/svg">
<rect width="677" height="444" fill="white"/>
<ellipse cx="474.5" cy="149" rx="50.5" ry="52" fill="url(#paint0_linear_1_2)"/>
<ellipse cx="474.5" cy="149" rx="50.5" ry="52" fill="url(#paint1_linear_1_2)"/>
<ellipse cx="452" cy="339.5" rx="46" ry="46.5" fill="url(#paint2_linear_1_2)"/>
<ellipse cx="452" cy="339.5" rx="46" ry="46.5" fill="url(#paint3_linear_1_2)"/>
<ellipse cx="523.5" cy="281.5" rx="25.5" ry="24.5" fill="url(#paint4_linear_1_2)"/>
<ellipse cx="523.5" cy="281.5" rx="25.5" ry="24.5" fill="url(#paint5_linear_1_2)"/>
<circle cx="225" cy="110" r="63" fill="url(#paint6_linear_1_2)"/>
<circle cx="225" cy="110" r="63" fill="url(#paint7_linear_1_2)"/>
<circle cx="163" cy="317" r="36" fill="url(#paint8_linear_1_2)"/>
<circle cx="163" cy="317" r="36" fill="url(#paint9_linear_1_2)"/>
<ellipse cx="275.5" cy="375" rx="59.5" ry="59" fill="url(#paint10_linear_1_2)"/>
<ellipse cx="275.5" cy="375" rx="59.5" ry="59" fill="url(#paint11_linear_1_2)"/>
<ellipse cx="433" cy="85.5" rx="74" ry="74.5" fill="url(#paint12_linear_1_2)"/>
<ellipse cx="433" cy="85.5" rx="74" ry="74.5" fill="url(#paint13_linear_1_2)"/>
<g filter="url(#filter0_d_1_2)">
<circle cx="347" cy="224" r="151" fill="white"/>
<circle cx="347" cy="224" r="141" stroke="url(#paint14_linear_1_2)" stroke-width="20"/>
</g>
<path d="M331.918 251.293C328.04 251.231 324.163 250.492 320.285 249.077C316.407 247.661 312.868 245.276 309.667 241.921C306.466 238.536 303.896 233.965 301.957 228.21C300.018 222.424 299.049 215.161 299.049 206.42C299.049 198.049 299.834 190.632 301.403 184.169C302.973 177.675 305.25 172.212 308.236 167.781C311.221 163.318 314.822 159.933 319.038 157.624C323.285 155.316 328.071 154.162 333.396 154.162C338.689 154.162 343.398 155.224 347.522 157.347C351.677 159.44 355.062 162.364 357.678 166.119C360.294 169.873 361.987 174.197 362.756 179.091H351.492C350.446 174.844 348.414 171.32 345.398 168.519C342.382 165.719 338.381 164.318 333.396 164.318C326.071 164.318 320.3 167.504 316.084 173.874C311.898 180.245 309.79 189.186 309.759 200.696H310.498C312.221 198.08 314.268 195.849 316.638 194.002C319.038 192.125 321.685 190.678 324.578 189.663C327.471 188.647 330.533 188.139 333.765 188.139C339.181 188.139 344.137 189.493 348.63 192.202C353.123 194.879 356.724 198.588 359.432 203.327C362.141 208.036 363.495 213.438 363.495 219.531C363.495 225.379 362.187 230.734 359.571 235.597C356.955 240.429 353.277 244.276 348.538 247.138C343.829 249.969 338.289 251.354 331.918 251.293ZM331.918 241.136C335.796 241.136 339.274 240.167 342.351 238.228C345.46 236.289 347.907 233.688 349.692 230.426C351.507 227.164 352.415 223.532 352.415 219.531C352.415 215.623 351.538 212.068 349.784 208.867C348.061 205.636 345.675 203.066 342.628 201.158C339.612 199.25 336.165 198.295 332.288 198.295C329.364 198.295 326.64 198.88 324.116 200.05C321.593 201.188 319.377 202.758 317.469 204.759C315.591 206.759 314.114 209.052 313.037 211.637C311.96 214.192 311.421 216.884 311.421 219.716C311.421 223.471 312.298 226.979 314.052 230.241C315.838 233.504 318.269 236.135 321.347 238.136C324.455 240.136 327.979 241.136 331.918 241.136ZM379.064 183.707V178.722C379.064 174.351 379.957 170.473 381.742 167.088C383.527 163.703 386.066 161.04 389.359 159.102C392.652 157.163 396.545 156.193 401.038 156.193C407.871 156.193 413.241 158.317 417.15 162.564C421.059 166.78 423.013 172.166 423.013 178.722V183.707C423.013 188.078 422.136 191.94 420.381 195.295C418.627 198.649 416.119 201.281 412.857 203.189C409.594 205.097 405.716 206.051 401.223 206.051C394.391 206.051 388.989 203.974 385.019 199.819C381.049 195.633 379.064 190.263 379.064 183.707ZM390.144 178.722V183.707C390.144 187.493 391.067 190.632 392.913 193.125C394.76 195.587 397.53 196.818 401.223 196.818C404.824 196.818 407.502 195.587 409.256 193.125C411.041 190.632 411.933 187.493 411.933 183.707V178.722C411.933 175.028 411.041 171.92 409.256 169.396C407.471 166.873 404.732 165.611 401.038 165.611C397.438 165.611 394.714 166.873 392.867 169.396C391.051 171.92 390.144 175.028 390.144 178.722Z" fill="black"/>
<path d="M331.918 251.293L331.871 254.292L331.88 254.292L331.889 254.292L331.918 251.293ZM320.285 249.077L319.256 251.895L319.256 251.895L320.285 249.077ZM309.667 241.921L307.487 243.982L307.496 243.992L309.667 241.921ZM301.957 228.21L299.113 229.163L299.114 229.168L301.957 228.21ZM301.403 184.169L304.319 184.877L304.319 184.874L301.403 184.169ZM308.236 167.781L310.724 169.457L310.729 169.449L308.236 167.781ZM319.038 157.624L317.606 154.988L317.598 154.993L319.038 157.624ZM347.522 157.347L346.149 160.014L346.16 160.021L346.172 160.027L347.522 157.347ZM357.678 166.119L360.14 164.404L360.14 164.404L357.678 166.119ZM362.756 179.091V182.091H366.265L365.72 178.625L362.756 179.091ZM351.492 179.091L348.579 179.809L349.142 182.091H351.492V179.091ZM345.398 168.519L343.357 170.718L343.357 170.718L345.398 168.519ZM316.084 173.874L313.582 172.219L313.576 172.227L316.084 173.874ZM309.759 200.696L306.759 200.688L306.751 203.696H309.759V200.696ZM310.498 200.696V203.696H312.114L313.003 202.346L310.498 200.696ZM316.638 194.002L318.482 196.369L318.486 196.365L316.638 194.002ZM324.578 189.663L323.584 186.832L324.578 189.663ZM348.63 192.202L347.081 194.771L347.088 194.775L347.094 194.779L348.63 192.202ZM359.432 203.327L356.828 204.816L356.832 204.823L359.432 203.327ZM359.571 235.597L362.209 237.025L362.213 237.018L359.571 235.597ZM348.538 247.138L350.084 249.709L350.088 249.706L348.538 247.138ZM342.351 238.228L340.764 235.683L340.752 235.69L342.351 238.228ZM349.692 230.426L347.07 228.967L347.065 228.977L347.06 228.986L349.692 230.426ZM349.784 208.867L347.137 210.279L347.145 210.294L347.153 210.309L349.784 208.867ZM342.628 201.158L341.025 203.693L341.036 203.7L342.628 201.158ZM324.116 200.05L325.35 202.784L325.364 202.778L325.378 202.772L324.116 200.05ZM317.469 204.759L315.298 202.688L315.289 202.697L315.281 202.706L317.469 204.759ZM313.037 211.637L315.801 212.803L315.806 212.791L313.037 211.637ZM314.052 230.241L311.41 231.662L311.415 231.672L311.421 231.682L314.052 230.241ZM321.347 238.136L319.712 240.651L319.723 240.658L321.347 238.136ZM331.966 248.293C328.444 248.237 324.897 247.567 321.314 246.259L319.256 251.895C323.428 253.418 327.637 254.225 331.871 254.292L331.966 248.293ZM321.314 246.259C317.919 245.019 314.759 242.913 311.837 239.85L307.496 243.992C310.976 247.639 314.894 250.302 319.256 251.895L321.314 246.259ZM311.847 239.86C309.02 236.871 306.641 232.716 304.8 227.252L299.114 229.168C301.152 235.215 303.912 240.201 307.487 243.982L311.847 239.86ZM304.802 227.257C303 221.88 302.049 214.965 302.049 206.42H296.049C296.049 215.357 297.037 222.969 299.113 229.163L304.802 227.257ZM302.049 206.42C302.049 198.229 302.818 191.058 304.319 184.877L298.488 183.461C296.85 190.206 296.049 197.869 296.049 206.42H302.049ZM304.319 184.874C305.825 178.643 307.981 173.529 310.724 169.457L305.748 166.104C302.52 170.896 300.121 176.707 298.487 183.464L304.319 184.874ZM310.729 169.449C313.478 165.34 316.733 162.306 320.479 160.256L317.598 154.993C312.91 157.559 308.964 161.296 305.742 166.112L310.729 169.449ZM320.471 160.26C324.235 158.214 328.52 157.162 333.396 157.162V151.162C327.623 151.162 322.336 152.418 317.606 154.988L320.471 160.26ZM333.396 157.162C338.279 157.162 342.506 158.139 346.149 160.014L348.895 154.68C344.29 152.309 339.099 151.162 333.396 151.162V157.162ZM346.172 160.027C349.89 161.899 352.89 164.495 355.217 167.834L360.14 164.404C357.234 160.233 353.464 156.981 348.872 154.668L346.172 160.027ZM355.217 167.834C357.552 171.185 359.088 175.075 359.793 179.557L365.72 178.625C364.886 173.32 363.036 168.561 360.14 164.404L355.217 167.834ZM362.756 176.091H351.492V182.091H362.756V176.091ZM354.405 178.373C353.228 173.596 350.912 169.545 347.44 166.321L343.357 170.718C345.917 173.095 347.664 176.092 348.579 179.809L354.405 178.373ZM347.44 166.321C343.756 162.9 338.97 161.318 333.396 161.318V167.318C337.793 167.318 341.008 168.537 343.357 170.718L347.44 166.321ZM333.396 161.318C325.013 161.318 318.325 165.052 313.582 172.219L318.585 175.53C322.275 169.955 327.128 167.318 333.396 167.318V161.318ZM313.576 172.227C308.947 179.274 306.791 188.872 306.759 200.688L312.759 200.704C312.789 189.499 314.85 181.216 318.591 175.522L313.576 172.227ZM309.759 203.696H310.498V197.696H309.759V203.696ZM313.003 202.346C314.554 199.992 316.381 198.006 318.482 196.369L314.794 191.636C312.155 193.692 309.888 196.168 307.993 199.046L313.003 202.346ZM318.486 196.365C320.627 194.69 322.985 193.401 325.572 192.493L323.584 186.832C320.385 187.955 317.449 189.559 314.79 191.639L318.486 196.365ZM325.572 192.493C328.129 191.596 330.853 191.139 333.765 191.139V185.139C330.213 185.139 326.814 185.698 323.584 186.832L325.572 192.493ZM333.765 191.139C338.654 191.139 343.071 192.354 347.081 194.771L350.179 189.632C345.202 186.633 339.709 185.139 333.765 185.139V191.139ZM347.094 194.779C351.124 197.18 354.364 200.505 356.828 204.816L362.037 201.839C359.084 196.671 355.123 192.579 350.166 189.625L347.094 194.779ZM356.832 204.823C359.248 209.023 360.495 213.897 360.495 219.531H366.495C366.495 212.978 365.034 207.049 362.033 201.832L356.832 204.823ZM360.495 219.531C360.495 224.913 359.296 229.775 356.929 234.175L362.213 237.018C365.078 231.692 366.495 225.845 366.495 219.531H360.495ZM356.933 234.168C354.573 238.526 351.273 241.982 346.987 244.57L350.088 249.706C355.282 246.57 359.337 242.331 362.209 237.025L356.933 234.168ZM346.992 244.567C342.83 247.069 337.853 248.35 331.947 248.293L331.889 254.292C338.725 254.359 344.828 252.869 350.084 249.709L346.992 244.567ZM331.918 244.136C336.323 244.136 340.362 243.027 343.951 240.766L340.752 235.69C338.186 237.307 335.269 238.136 331.918 238.136V244.136ZM343.939 240.773C347.492 238.558 350.295 235.573 352.323 231.866L347.06 228.986C345.518 231.804 343.428 234.021 340.764 235.683L343.939 240.773ZM352.313 231.885C354.395 228.145 355.415 224.005 355.415 219.531H349.415C349.415 223.059 348.62 226.183 347.07 228.967L352.313 231.885ZM355.415 219.531C355.415 215.155 354.428 211.099 352.415 207.425L347.153 210.309C348.648 213.037 349.415 216.09 349.415 219.531H355.415ZM352.431 207.455C350.466 203.77 347.721 200.807 344.221 198.615L341.036 203.7C343.63 205.325 345.655 207.501 347.137 210.279L352.431 207.455ZM344.232 198.622C340.695 196.384 336.682 195.295 332.288 195.295V201.295C335.649 201.295 338.53 202.115 341.025 203.693L344.232 198.622ZM332.288 195.295C328.951 195.295 325.794 195.966 322.855 197.328L325.378 202.772C327.486 201.795 329.777 201.295 332.288 201.295V195.295ZM322.883 197.315C320.007 198.613 317.473 200.407 315.298 202.688L319.639 206.829C321.281 205.109 323.178 203.764 325.35 202.784L322.883 197.315ZM315.281 202.706C313.152 204.974 311.48 207.573 310.268 210.483L315.806 212.791C316.748 210.531 318.03 208.544 319.656 206.811L315.281 202.706ZM310.273 210.471C309.036 213.403 308.421 216.493 308.421 219.716H314.421C314.421 217.276 314.883 214.98 315.801 212.803L310.273 210.471ZM308.421 219.716C308.421 223.959 309.418 227.957 311.41 231.662L316.695 228.821C315.179 226.001 314.421 222.982 314.421 219.716H308.421ZM311.421 231.682C313.441 235.373 316.212 238.376 319.712 240.651L322.981 235.62C320.326 233.894 318.234 231.634 316.684 228.801L311.421 231.682ZM319.723 240.658C323.348 242.991 327.443 244.136 331.918 244.136V238.136C328.515 238.136 325.562 237.281 322.97 235.613L319.723 240.658ZM381.742 167.088L379.088 165.689L379.088 165.689L381.742 167.088ZM389.359 159.102L390.881 161.687L390.881 161.687L389.359 159.102ZM417.15 162.564L414.942 164.595L414.95 164.603L417.15 162.564ZM420.381 195.295L417.723 193.905L417.723 193.905L420.381 195.295ZM412.857 203.189L411.342 200.599L411.342 200.599L412.857 203.189ZM385.019 199.819L382.843 201.883L382.85 201.891L385.019 199.819ZM392.913 193.125L390.503 194.911L390.508 194.918L390.513 194.925L392.913 193.125ZM409.256 193.125L406.817 191.378L406.813 191.384L409.256 193.125ZM392.867 169.396L390.446 167.625L390.439 167.634L390.432 167.644L392.867 169.396ZM382.064 183.707V178.722H376.064V183.707H382.064ZM382.064 178.722C382.064 174.769 382.868 171.384 384.395 168.487L379.088 165.689C377.045 169.563 376.064 173.933 376.064 178.722H382.064ZM384.395 168.487C385.921 165.594 388.069 163.343 390.881 161.687L387.837 156.516C384.063 158.738 381.132 161.811 379.088 165.689L384.395 168.487ZM390.881 161.687C393.637 160.064 396.985 159.193 401.038 159.193V153.193C396.105 153.193 391.666 154.261 387.837 156.516L390.881 161.687ZM401.038 159.193C407.2 159.193 411.706 161.079 414.942 164.595L419.357 160.532C414.776 155.554 408.542 153.193 401.038 153.193V159.193ZM414.95 164.603C418.272 168.187 420.013 172.809 420.013 178.722H426.013C426.013 171.524 423.845 165.374 419.35 160.524L414.95 164.603ZM420.013 178.722V183.707H426.013V178.722H420.013ZM420.013 183.707C420.013 187.669 419.221 191.041 417.723 193.905L423.04 196.685C425.051 192.839 426.013 188.487 426.013 183.707H420.013ZM417.723 193.905C416.229 196.761 414.117 198.976 411.342 200.599L414.371 205.778C418.121 203.585 421.025 200.538 423.04 196.685L417.723 193.905ZM411.342 200.599C408.619 202.192 405.285 203.051 401.223 203.051V209.051C406.148 209.051 410.569 208.002 414.371 205.778L411.342 200.599ZM401.223 203.051C395.043 203.051 390.486 201.198 387.188 197.746L382.85 201.891C387.493 206.75 393.739 209.051 401.223 209.051V203.051ZM387.196 197.754C383.827 194.203 382.064 189.608 382.064 183.707H376.064C376.064 190.918 378.271 197.064 382.843 201.883L387.196 197.754ZM387.144 178.722V183.707H393.144V178.722H387.144ZM387.144 183.707C387.144 187.991 388.195 191.796 390.503 194.911L395.324 191.339C393.938 189.468 393.144 186.995 393.144 183.707H387.144ZM390.513 194.925C393.043 198.298 396.798 199.818 401.223 199.818V193.818C398.262 193.818 396.477 192.877 395.313 191.325L390.513 194.925ZM401.223 199.818C405.583 199.818 409.27 198.275 411.699 194.866L406.813 191.384C405.733 192.899 404.065 193.818 401.223 193.818V199.818ZM411.695 194.872C413.923 191.76 414.933 187.97 414.933 183.707H408.933C408.933 187.015 408.159 189.504 406.817 191.378L411.695 194.872ZM414.933 183.707V178.722H408.933V183.707H414.933ZM414.933 178.722C414.933 174.531 413.914 170.787 411.705 167.664L406.807 171.129C408.168 173.053 408.933 175.525 408.933 178.722H414.933ZM411.705 167.664C409.244 164.184 405.49 162.611 401.038 162.611V168.611C403.974 168.611 405.698 169.561 406.807 171.129L411.705 167.664ZM401.038 162.611C396.647 162.611 392.949 164.204 390.446 167.625L395.288 171.168C396.479 169.541 398.229 168.611 401.038 168.611V162.611ZM390.432 167.644C388.184 170.769 387.144 174.521 387.144 178.722H393.144C393.144 175.536 393.919 173.071 395.302 171.148L390.432 167.644Z" fill="black"/>
<path d="M298.851 314H293.311L309.334 270.364H314.789L330.811 314H325.272L312.232 277.267H311.891L298.851 314ZM300.897 296.955H323.226V301.642H300.897V296.955ZM341.955 294.312V314H336.926V281.273H341.784V286.386H342.211C342.978 284.724 344.142 283.389 345.705 282.381C347.267 281.358 349.284 280.847 351.756 280.847C353.972 280.847 355.911 281.301 357.573 282.21C359.235 283.105 360.527 284.469 361.451 286.301C362.374 288.119 362.836 290.42 362.836 293.205V314H357.807V293.545C357.807 290.974 357.14 288.972 355.804 287.537C354.469 286.088 352.637 285.364 350.307 285.364C348.702 285.364 347.267 285.712 346.003 286.408C344.753 287.104 343.766 288.119 343.042 289.455C342.317 290.79 341.955 292.409 341.955 294.312ZM385.32 314.682C382.365 314.682 379.773 313.979 377.543 312.572C375.327 311.166 373.594 309.199 372.344 306.67C371.108 304.142 370.49 301.187 370.49 297.807C370.49 294.398 371.108 291.422 372.344 288.879C373.594 286.337 375.327 284.362 377.543 282.956C379.773 281.55 382.365 280.847 385.32 280.847C388.274 280.847 390.859 281.55 393.075 282.956C395.305 284.362 397.038 286.337 398.274 288.879C399.524 291.422 400.149 294.398 400.149 297.807C400.149 301.187 399.524 304.142 398.274 306.67C397.038 309.199 395.305 311.166 393.075 312.572C390.859 313.979 388.274 314.682 385.32 314.682ZM385.32 310.165C387.564 310.165 389.411 309.589 390.859 308.439C392.308 307.288 393.381 305.776 394.077 303.901C394.773 302.026 395.121 299.994 395.121 297.807C395.121 295.619 394.773 293.581 394.077 291.692C393.381 289.803 392.308 288.276 390.859 287.111C389.411 285.946 387.564 285.364 385.32 285.364C383.075 285.364 381.229 285.946 379.78 287.111C378.331 288.276 377.259 289.803 376.562 291.692C375.866 293.581 375.518 295.619 375.518 297.807C375.518 299.994 375.866 302.026 376.562 303.901C377.259 305.776 378.331 307.288 379.78 308.439C381.229 309.589 383.075 310.165 385.32 310.165Z" fill="black"/>
<path d="M298.851 314V315H299.557L299.794 314.335L298.851 314ZM293.311 314L292.373 313.655L291.879 315H293.311V314ZM309.334 270.364V269.364H308.636L308.395 270.019L309.334 270.364ZM314.789 270.364L315.727 270.019L315.487 269.364H314.789V270.364ZM330.811 314V315H332.244L331.75 313.655L330.811 314ZM325.272 314L324.329 314.335L324.566 315H325.272V314ZM312.232 277.267L313.174 276.933L312.938 276.267H312.232V277.267ZM311.891 277.267V276.267H311.185L310.949 276.933L311.891 277.267ZM300.897 296.955V295.955H299.897V296.955H300.897ZM323.226 296.955H324.226V295.955H323.226V296.955ZM323.226 301.642V302.642H324.226V301.642H323.226ZM300.897 301.642H299.897V302.642H300.897V301.642ZM298.851 313H293.311V315H298.851V313ZM294.25 314.345L310.273 270.708L308.395 270.019L292.373 313.655L294.25 314.345ZM309.334 271.364H314.789V269.364H309.334V271.364ZM313.85 270.708L329.873 314.345L331.75 313.655L315.727 270.019L313.85 270.708ZM330.811 313H325.272V315H330.811V313ZM326.214 313.665L313.174 276.933L311.29 277.602L324.329 314.335L326.214 313.665ZM312.232 276.267H311.891V278.267H312.232V276.267ZM310.949 276.933L297.909 313.665L299.794 314.335L312.833 277.602L310.949 276.933ZM300.897 297.955H323.226V295.955H300.897V297.955ZM322.226 296.955V301.642H324.226V296.955H322.226ZM323.226 300.642H300.897V302.642H323.226V300.642ZM301.897 301.642V296.955H299.897V301.642H301.897ZM341.955 314V315H342.955V314H341.955ZM336.926 314H335.926V315H336.926V314ZM336.926 281.273V280.273H335.926V281.273H336.926ZM341.784 281.273H342.784V280.273H341.784V281.273ZM341.784 286.386H340.784V287.386H341.784V286.386ZM342.211 286.386V287.386H342.85L343.119 286.805L342.211 286.386ZM345.705 282.381L346.247 283.221L346.253 283.217L345.705 282.381ZM357.573 282.21L357.093 283.088L357.099 283.091L357.573 282.21ZM361.451 286.301L360.558 286.751L360.559 286.754L361.451 286.301ZM362.836 314V315H363.836V314H362.836ZM357.807 314H356.807V315H357.807V314ZM355.804 287.537L355.069 288.215L355.072 288.218L355.804 287.537ZM346.003 286.408L345.521 285.532L345.517 285.534L346.003 286.408ZM343.042 289.455L342.163 288.978L342.163 288.978L343.042 289.455ZM340.955 294.312V314H342.955V294.312H340.955ZM341.955 313H336.926V315H341.955V313ZM337.926 314V281.273H335.926V314H337.926ZM336.926 282.273H341.784V280.273H336.926V282.273ZM340.784 281.273V286.386H342.784V281.273H340.784ZM341.784 287.386H342.211V285.386H341.784V287.386ZM343.119 286.805C343.805 285.319 344.841 284.128 346.247 283.221L345.163 281.54C343.443 282.65 342.15 284.13 341.303 285.967L343.119 286.805ZM346.253 283.217C347.607 282.331 349.417 281.847 351.756 281.847V279.847C349.152 279.847 346.927 280.385 345.157 281.544L346.253 283.217ZM351.756 281.847C353.833 281.847 355.601 282.272 357.093 283.088L358.053 281.333C356.22 280.331 354.111 279.847 351.756 279.847V281.847ZM357.099 283.091C358.564 283.88 359.718 285.085 360.558 286.751L362.344 285.851C361.337 283.852 359.905 282.33 358.047 281.33L357.099 283.091ZM360.559 286.754C361.39 288.39 361.836 290.523 361.836 293.205H363.836C363.836 290.318 363.358 287.849 362.342 285.848L360.559 286.754ZM361.836 293.205V314H363.836V293.205H361.836ZM362.836 313H357.807V315H362.836V313ZM358.807 314V293.545H356.807V314H358.807ZM358.807 293.545C358.807 290.803 358.092 288.527 356.536 286.856L355.072 288.218C356.187 289.416 356.807 291.146 356.807 293.545H358.807ZM356.54 286.859C354.981 285.167 352.861 284.364 350.307 284.364V286.364C352.413 286.364 353.958 287.009 355.069 288.215L356.54 286.859ZM350.307 284.364C348.553 284.364 346.949 284.745 345.521 285.532L346.485 287.284C347.586 286.678 348.851 286.364 350.307 286.364V284.364ZM345.517 285.534C344.09 286.328 342.972 287.486 342.163 288.978L343.921 289.931C344.56 288.752 345.416 287.879 346.49 287.281L345.517 285.534ZM342.163 288.978C341.341 290.492 340.955 292.284 340.955 294.312H342.955C342.955 292.534 343.293 291.088 343.921 289.931L342.163 288.978ZM377.543 312.572L377.007 313.417L377.009 313.418L377.543 312.572ZM372.344 306.67L371.445 307.11L371.447 307.114L372.344 306.67ZM372.344 288.879L371.446 288.438L371.444 288.442L372.344 288.879ZM377.543 282.956L377.009 282.11L377.007 282.112L377.543 282.956ZM393.075 282.956L392.539 283.8L392.542 283.802L393.075 282.956ZM398.274 288.879L397.375 289.316L397.377 289.32L398.274 288.879ZM398.274 306.67L397.378 306.227L397.376 306.231L398.274 306.67ZM393.075 312.572L392.542 311.727L392.539 311.728L393.075 312.572ZM390.859 308.439L390.237 307.656L390.237 307.656L390.859 308.439ZM394.077 303.901L395.014 304.249L395.014 304.249L394.077 303.901ZM394.077 291.692L395.015 291.346L395.015 291.346L394.077 291.692ZM390.859 287.111L391.486 286.331L391.486 286.331L390.859 287.111ZM379.78 287.111L379.153 286.331L379.153 286.331L379.78 287.111ZM376.562 291.692L375.624 291.346L375.624 291.346L376.562 291.692ZM376.562 303.901L375.625 304.249L375.625 304.249L376.562 303.901ZM379.78 308.439L380.402 307.656L380.402 307.656L379.78 308.439ZM385.32 313.682C382.53 313.682 380.128 313.02 378.076 311.727L377.009 313.418C379.418 314.937 382.2 315.682 385.32 315.682V313.682ZM378.078 311.728C376.029 310.427 374.415 308.604 373.24 306.227L371.447 307.114C372.772 309.794 374.625 311.905 377.007 313.417L378.078 311.728ZM373.242 306.231C372.085 303.864 371.49 301.066 371.49 297.807H369.49C369.49 301.309 370.131 304.42 371.445 307.11L373.242 306.231ZM371.49 297.807C371.49 294.518 372.086 291.698 373.243 289.316L371.444 288.442C370.13 291.146 369.49 294.277 369.49 297.807H371.49ZM373.241 289.32C374.417 286.929 376.03 285.1 378.078 283.8L377.007 282.112C374.623 283.624 372.771 285.744 371.446 288.438L373.241 289.32ZM378.076 283.802C380.128 282.508 382.53 281.847 385.32 281.847V279.847C382.2 279.847 379.418 280.591 377.009 282.11L378.076 283.802ZM385.32 281.847C388.109 281.847 390.503 282.508 392.539 283.8L393.611 282.112C391.215 280.591 388.439 279.847 385.32 279.847V281.847ZM392.542 283.802C394.603 285.101 396.214 286.929 397.375 289.316L399.174 288.442C397.862 285.744 396.008 283.623 393.609 282.11L392.542 283.802ZM397.377 289.32C398.547 291.701 399.149 294.52 399.149 297.807H401.149C401.149 294.275 400.501 291.143 399.172 288.438L397.377 289.32ZM399.149 297.807C399.149 301.064 398.547 303.861 397.378 306.227L399.171 307.114C400.501 304.423 401.149 301.311 401.149 297.807H399.149ZM397.376 306.231C396.216 308.605 394.604 310.426 392.542 311.727L393.609 313.418C396.007 311.906 397.861 309.793 399.173 307.11L397.376 306.231ZM392.539 311.728C390.503 313.02 388.109 313.682 385.32 313.682V315.682C388.439 315.682 391.215 314.937 393.611 313.417L392.539 311.728ZM385.32 311.165C387.74 311.165 389.82 310.541 391.481 309.222L390.237 307.656C389.001 308.638 387.388 309.165 385.32 309.165V311.165ZM391.481 309.222C393.085 307.949 394.26 306.28 395.014 304.249L393.139 303.553C392.501 305.271 391.532 306.628 390.237 307.656L391.481 309.222ZM395.014 304.249C395.755 302.252 396.121 300.102 396.121 297.807H394.121C394.121 299.887 393.79 301.799 393.139 303.553L395.014 304.249ZM396.121 297.807C396.121 295.512 395.755 293.355 395.015 291.346L393.138 292.037C393.79 293.807 394.121 295.727 394.121 297.807H396.121ZM395.015 291.346C394.262 289.301 393.088 287.619 391.486 286.331L390.233 287.89C391.529 288.932 392.5 290.304 393.138 292.037L395.015 291.346ZM391.486 286.331C389.825 284.996 387.743 284.364 385.32 284.364V286.364C387.385 286.364 388.996 286.896 390.233 287.89L391.486 286.331ZM385.32 284.364C382.896 284.364 380.814 284.996 379.153 286.331L380.406 287.89C381.643 286.896 383.254 286.364 385.32 286.364V284.364ZM379.153 286.331C377.551 287.619 376.377 289.301 375.624 291.346L377.501 292.037C378.14 290.304 379.111 288.932 380.406 287.89L379.153 286.331ZM375.624 291.346C374.884 293.355 374.518 295.512 374.518 297.807H376.518C376.518 295.727 376.849 293.807 377.501 292.037L375.624 291.346ZM374.518 297.807C374.518 300.102 374.884 302.252 375.625 304.249L377.5 303.553C376.849 301.799 376.518 299.887 376.518 297.807H374.518ZM375.625 304.249C376.379 306.28 377.555 307.949 379.158 309.222L380.402 307.656C379.107 306.628 378.138 305.271 377.5 303.553L375.625 304.249ZM379.158 309.222C380.819 310.541 382.899 311.165 385.32 311.165V309.165C383.251 309.165 381.638 308.638 380.402 307.656L379.158 309.222Z" fill="black"/>
<defs>
<filter id="filter0_d_1_2" x="195" y="73" width="312" height="312" filterUnits="userSpaceOnUse" color-interpolation-filters="sRGB">
<feFlood flood-opacity="0" result="BackgroundImageFix"/>
<feColorMatrix in="SourceAlpha" type="matrix" values="0 0 0 0 0 0 0 0 0 0 0 0 0 0 0 0 0 0 127 0" result="hardAlpha"/>
<feOffset dx="4" dy="5"/>
<feGaussianBlur stdDeviation="2.5"/>
<feComposite in2="hardAlpha" operator="out"/>
<feColorMatrix type="matrix" values="0 0 0 0 0 0 0 0 0 0 0 0 0 0 0 0 0 0 1 0"/>
<feBlend mode="normal" in2="BackgroundImageFix" result="effect1_dropShadow_1_2"/>
<feBlend mode="normal" in="SourceGraphic" in2="effect1_dropShadow_1_2" result="shape"/>
</filter>
<linearGradient id="paint0_linear_1_2" x1="449.554" y1="97" x2="519.58" y2="224.357" gradientUnits="userSpaceOnUse">
<stop offset="0.0361446" stop-color="#4EABCC"/>
<stop offset="1" stop-color="#4EABCC" stop-opacity="0"/>
</linearGradient>
<linearGradient id="paint1_linear_1_2" x1="449.554" y1="97" x2="519.58" y2="224.357" gradientUnits="userSpaceOnUse">
<stop offset="0.0361446" stop-color="#4EABCC"/>
<stop offset="1" stop-color="#4EABCC" stop-opacity="0"/>
</linearGradient>
<linearGradient id="paint2_linear_1_2" x1="429.277" y1="293" x2="491.273" y2="407.853" gradientUnits="userSpaceOnUse">
<stop offset="0.0361446" stop-color="#4EABCC"/>
<stop offset="1" stop-color="#4EABCC" stop-opacity="0"/>
</linearGradient>
<linearGradient id="paint3_linear_1_2" x1="429.277" y1="293" x2="491.273" y2="407.853" gradientUnits="userSpaceOnUse">
<stop offset="0.0361446" stop-color="#4EABCC"/>
<stop offset="1" stop-color="#4EABCC" stop-opacity="0"/>
</linearGradient>
<linearGradient id="paint4_linear_1_2" x1="510.904" y1="257" x2="542.642" y2="318.863" gradientUnits="userSpaceOnUse">
<stop offset="0.0361446" stop-color="#4EABCC"/>
<stop offset="1" stop-color="#4EABCC" stop-opacity="0"/>
</linearGradient>
<linearGradient id="paint5_linear_1_2" x1="510.904" y1="257" x2="542.642" y2="318.863" gradientUnits="userSpaceOnUse">
<stop offset="0.0361446" stop-color="#4EABCC"/>
<stop offset="1" stop-color="#4EABCC" stop-opacity="0"/>
</linearGradient>
<linearGradient id="paint6_linear_1_2" x1="193.88" y1="47" x2="277.373" y2="203.361" gradientUnits="userSpaceOnUse">
<stop offset="0.0361446" stop-color="#4EABCC"/>
<stop offset="1" stop-color="#4EABCC" stop-opacity="0"/>
</linearGradient>
<linearGradient id="paint7_linear_1_2" x1="193.88" y1="47" x2="277.373" y2="203.361" gradientUnits="userSpaceOnUse">
<stop offset="0.0361446" stop-color="#4EABCC"/>
<stop offset="1" stop-color="#4EABCC" stop-opacity="0"/>
</linearGradient>
<linearGradient id="paint8_linear_1_2" x1="145.217" y1="281" x2="192.928" y2="370.349" gradientUnits="userSpaceOnUse">
<stop offset="0.0361446" stop-color="#4EABCC"/>
<stop offset="1" stop-color="#4EABCC" stop-opacity="0"/>
</linearGradient>
<linearGradient id="paint9_linear_1_2" x1="145.217" y1="281" x2="192.928" y2="370.349" gradientUnits="userSpaceOnUse">
<stop offset="0.0361446" stop-color="#4EABCC"/>
<stop offset="1" stop-color="#4EABCC" stop-opacity="0"/>
</linearGradient>
<linearGradient id="paint10_linear_1_2" x1="246.108" y1="316" x2="323.933" y2="462.98" gradientUnits="userSpaceOnUse">
<stop offset="0.0361446" stop-color="#4EABCC"/>
<stop offset="1" stop-color="#4EABCC" stop-opacity="0"/>
</linearGradient>
<linearGradient id="paint11_linear_1_2" x1="246.108" y1="316" x2="323.933" y2="462.98" gradientUnits="userSpaceOnUse">
<stop offset="0.0361446" stop-color="#4EABCC"/>
<stop offset="1" stop-color="#4EABCC" stop-opacity="0"/>
</linearGradient>
<linearGradient id="paint12_linear_1_2" x1="396.446" y1="11" x2="495.55" y2="195.349" gradientUnits="userSpaceOnUse">
<stop offset="0.0361446" stop-color="#4EABCC"/>
<stop offset="1" stop-color="#4EABCC" stop-opacity="0"/>
</linearGradient>
<linearGradient id="paint13_linear_1_2" x1="396.446" y1="11" x2="495.55" y2="195.349" gradientUnits="userSpaceOnUse">
<stop offset="0.0361446" stop-color="#4EABCC"/>
<stop offset="1" stop-color="#4EABCC" stop-opacity="0"/>
</linearGradient>
<linearGradient id="paint14_linear_1_2" x1="247.598" y1="107.905" x2="639.136" y2="543.452" gradientUnits="userSpaceOnUse">
<stop stop-color="#4EABCC"/>
<stop offset="1" stop-color="white" stop-opacity="0"/>
</linearGradient>
</defs>
</svg>
