<svg width="677" height="444" viewBox="0 0 677 444" fill="none" xmlns="http://www.w3.org/2000/svg">
<rect width="677" height="444" fill="white"/>
<ellipse cx="476" cy="148.5" rx="50" ry="51.5" fill="url(#paint0_linear_1_17)"/>
<circle cx="454" cy="339" r="46" fill="url(#paint1_linear_1_17)"/>
<circle cx="525" cy="281" r="25" fill="url(#paint2_linear_1_17)"/>
<ellipse cx="226" cy="109.5" rx="63" ry="63.5" fill="url(#paint3_linear_1_17)"/>
<circle cx="163.5" cy="316.5" r="35.5" fill="url(#paint4_linear_1_17)"/>
<ellipse cx="277" cy="374.5" rx="59" ry="59.5" fill="url(#paint5_linear_1_17)"/>
<ellipse cx="435" cy="84.5" rx="74" ry="74.5" fill="url(#paint6_linear_1_17)"/>
<g filter="url(#filter0_d_1_17)">
<ellipse cx="349" cy="223.5" rx="151" ry="151.5" fill="white"/>
<path d="M490 223.5C490 301.679 426.841 365 349 365C271.159 365 208 301.679 208 223.5C208 145.321 271.159 82 349 82C426.841 82 490 145.321 490 223.5Z" stroke="url(#paint7_linear_1_17)" stroke-width="20"/>
</g>
<path d="M306.591 250L348.878 166.349V165.611H300.128V155.455H360.696V166.165L318.594 250H306.591ZM397.663 197.188C393.754 197.188 390.184 196.233 386.952 194.325C383.752 192.417 381.197 189.863 379.289 186.662C377.381 183.43 376.427 179.86 376.427 175.952C376.427 172.043 377.381 168.488 379.289 165.288C381.197 162.056 383.752 159.486 386.952 157.578C390.184 155.67 393.754 154.716 397.663 154.716C401.571 154.716 405.126 155.67 408.327 157.578C411.558 159.486 414.128 162.056 416.036 165.288C417.944 168.488 418.898 172.043 418.898 175.952C418.898 179.86 417.944 183.43 416.036 186.662C414.128 189.863 411.558 192.417 408.327 194.325C405.126 196.233 401.571 197.188 397.663 197.188ZM397.663 187.955C399.879 187.955 401.894 187.416 403.71 186.339C405.526 185.262 406.973 183.815 408.05 181.999C409.127 180.183 409.665 178.168 409.665 175.952C409.665 173.736 409.127 171.72 408.05 169.904C406.973 168.088 405.526 166.642 403.71 165.565C401.894 164.487 399.879 163.949 397.663 163.949C395.447 163.949 393.431 164.487 391.615 165.565C389.799 166.642 388.353 168.088 387.276 169.904C386.198 171.72 385.66 173.736 385.66 175.952C385.66 178.168 386.198 180.183 387.276 181.999C388.353 183.815 389.799 185.262 391.615 186.339C393.431 187.416 395.447 187.955 397.663 187.955Z" fill="black"/>
<path d="M306.591 250L303.914 248.647L301.713 253H306.591V250ZM348.878 166.349L351.555 167.703L351.878 167.065V166.349H348.878ZM348.878 165.611H351.878V162.611H348.878V165.611ZM300.128 165.611H297.128V168.611H300.128V165.611ZM300.128 155.455V152.455H297.128V155.455H300.128ZM360.696 155.455H363.696V152.455H360.696V155.455ZM360.696 166.165L363.377 167.511L363.696 166.876V166.165H360.696ZM318.594 250V253H320.444L321.275 251.346L318.594 250ZM309.268 251.353L351.555 167.703L346.201 164.996L303.914 248.647L309.268 251.353ZM351.878 166.349V165.611H345.878V166.349H351.878ZM348.878 162.611H300.128V168.611H348.878V162.611ZM303.128 165.611V155.455H297.128V165.611H303.128ZM300.128 158.455H360.696V152.455H300.128V158.455ZM357.696 155.455V166.165H363.696V155.455H357.696ZM358.015 164.818L315.913 248.654L321.275 251.346L363.377 167.511L358.015 164.818ZM318.594 247H306.591V253H318.594V247ZM386.952 194.325L385.416 196.902L385.427 196.909L386.952 194.325ZM379.289 186.662L376.706 188.187L376.712 188.198L379.289 186.662ZM379.289 165.288L381.866 166.824L381.872 166.813L379.289 165.288ZM386.952 157.578L385.427 154.995L385.416 155.001L386.952 157.578ZM408.327 157.578L406.791 160.155L406.801 160.161L408.327 157.578ZM416.036 165.288L413.453 166.813L413.459 166.824L416.036 165.288ZM416.036 186.662L418.613 188.198L418.619 188.187L416.036 186.662ZM408.327 194.325L406.801 191.742L406.791 191.748L408.327 194.325ZM403.71 186.339L405.241 188.919L405.241 188.919L403.71 186.339ZM408.05 181.999L410.63 183.53L410.63 183.53L408.05 181.999ZM408.05 169.904L410.63 168.374L410.63 168.374L408.05 169.904ZM403.71 165.565L405.241 162.984L405.241 162.984L403.71 165.565ZM391.615 165.565L390.084 162.984L390.084 162.984L391.615 165.565ZM387.276 169.904L384.695 168.374L384.695 168.374L387.276 169.904ZM387.276 181.999L384.695 183.53L384.695 183.53L387.276 181.999ZM397.663 194.188C394.267 194.188 391.228 193.366 388.478 191.742L385.427 196.909C389.14 199.101 393.241 200.188 397.663 200.188V194.188ZM388.489 191.748C385.716 190.095 383.519 187.899 381.866 185.126L376.712 188.198C378.875 191.827 381.788 194.739 385.416 196.902L388.489 191.748ZM381.872 185.137C380.249 182.387 379.427 179.347 379.427 175.952H373.427C373.427 180.374 374.513 184.474 376.706 188.187L381.872 185.137ZM379.427 175.952C379.427 172.556 380.249 169.537 381.866 166.824L376.712 163.751C374.513 167.44 373.427 171.53 373.427 175.952H379.427ZM381.872 166.813C383.527 164.011 385.723 161.804 388.489 160.155L385.416 155.001C381.781 157.169 378.868 160.101 376.706 163.762L381.872 166.813ZM388.478 160.161C391.228 158.538 394.267 157.716 397.663 157.716V151.716C393.241 151.716 389.14 152.802 385.427 154.995L388.478 160.161ZM397.663 157.716C401.058 157.716 404.077 158.538 406.791 160.155L409.863 155.001C406.174 152.802 402.085 151.716 397.663 151.716V157.716ZM406.801 160.161C409.597 161.812 411.802 164.018 413.453 166.813L418.619 163.762C416.454 160.094 413.52 157.161 409.852 154.995L406.801 160.161ZM413.459 166.824C415.077 169.537 415.898 172.556 415.898 175.952H421.898C421.898 171.53 420.812 167.44 418.613 163.751L413.459 166.824ZM415.898 175.952C415.898 179.347 415.077 182.387 413.453 185.137L418.619 188.187C420.812 184.474 421.898 180.374 421.898 175.952H415.898ZM413.459 185.126C411.81 187.892 409.603 190.087 406.801 191.742L409.852 196.909C413.513 194.747 416.446 191.834 418.613 188.198L413.459 185.126ZM406.791 191.748C404.077 193.366 401.058 194.188 397.663 194.188V200.188C402.085 200.188 406.174 199.101 409.863 196.902L406.791 191.748ZM397.663 190.955C400.389 190.955 402.938 190.285 405.241 188.919L402.18 183.759C400.85 184.547 399.368 184.955 397.663 184.955V190.955ZM405.241 188.919C407.489 187.585 409.296 185.778 410.63 183.53L405.47 180.469C404.649 181.852 403.563 182.938 402.18 183.759L405.241 188.919ZM410.63 183.53C411.996 181.227 412.665 178.678 412.665 175.952H406.665C406.665 177.657 406.258 179.14 405.47 180.469L410.63 183.53ZM412.665 175.952C412.665 173.225 411.996 170.676 410.63 168.374L405.47 171.435C406.258 172.764 406.665 174.247 406.665 175.952H412.665ZM410.63 168.374C409.296 166.125 407.489 164.318 405.241 162.984L402.18 168.145C403.563 168.966 404.649 170.051 405.47 171.435L410.63 168.374ZM405.241 162.984C402.938 161.619 400.389 160.949 397.663 160.949V166.949C399.368 166.949 400.85 167.356 402.18 168.145L405.241 162.984ZM397.663 160.949C394.936 160.949 392.387 161.619 390.084 162.984L393.146 168.145C394.475 167.356 395.958 166.949 397.663 166.949V160.949ZM390.084 162.984C387.836 164.318 386.029 166.125 384.695 168.374L389.856 171.435C390.676 170.051 391.762 168.966 393.146 168.145L390.084 162.984ZM384.695 168.374C383.33 170.676 382.66 173.225 382.66 175.952H388.66C388.66 174.247 389.067 172.764 389.856 171.435L384.695 168.374ZM382.66 175.952C382.66 178.678 383.33 181.227 384.695 183.53L389.856 180.469C389.067 179.14 388.66 177.657 388.66 175.952H382.66ZM384.695 183.53C386.029 185.778 387.836 187.585 390.084 188.919L393.146 183.759C391.762 182.938 390.676 181.852 389.856 180.469L384.695 183.53ZM390.084 188.919C392.387 190.285 394.936 190.955 397.663 190.955V184.955C395.958 184.955 394.475 184.547 393.146 183.759L390.084 188.919Z" fill="black"/>
<path d="M298.851 314H293.311L309.334 270.364H314.789L330.811 314H325.272L312.232 277.267H311.891L298.851 314ZM300.897 296.955H323.226V301.642H300.897V296.955ZM341.955 294.312V314H336.926V281.273H341.784V286.386H342.211C342.978 284.724 344.142 283.389 345.705 282.381C347.267 281.358 349.284 280.847 351.756 280.847C353.972 280.847 355.911 281.301 357.573 282.21C359.235 283.105 360.527 284.469 361.451 286.301C362.374 288.119 362.836 290.42 362.836 293.205V314H357.807V293.545C357.807 290.974 357.14 288.972 355.804 287.537C354.469 286.088 352.637 285.364 350.307 285.364C348.702 285.364 347.267 285.712 346.003 286.408C344.753 287.104 343.766 288.119 343.042 289.455C342.317 290.79 341.955 292.409 341.955 294.312ZM385.32 314.682C382.365 314.682 379.773 313.979 377.543 312.572C375.327 311.166 373.594 309.199 372.344 306.67C371.108 304.142 370.49 301.187 370.49 297.807C370.49 294.398 371.108 291.422 372.344 288.879C373.594 286.337 375.327 284.362 377.543 282.956C379.773 281.55 382.365 280.847 385.32 280.847C388.274 280.847 390.859 281.55 393.075 282.956C395.305 284.362 397.038 286.337 398.274 288.879C399.524 291.422 400.149 294.398 400.149 297.807C400.149 301.187 399.524 304.142 398.274 306.67C397.038 309.199 395.305 311.166 393.075 312.572C390.859 313.979 388.274 314.682 385.32 314.682ZM385.32 310.165C387.564 310.165 389.411 309.589 390.859 308.439C392.308 307.288 393.381 305.776 394.077 303.901C394.773 302.026 395.121 299.994 395.121 297.807C395.121 295.619 394.773 293.581 394.077 291.692C393.381 289.803 392.308 288.276 390.859 287.111C389.411 285.946 387.564 285.364 385.32 285.364C383.075 285.364 381.229 285.946 379.78 287.111C378.331 288.276 377.259 289.803 376.562 291.692C375.866 293.581 375.518 295.619 375.518 297.807C375.518 299.994 375.866 302.026 376.562 303.901C377.259 305.776 378.331 307.288 379.78 308.439C381.229 309.589 383.075 310.165 385.32 310.165Z" fill="black"/>
<path d="M298.851 314V315H299.557L299.794 314.335L298.851 314ZM293.311 314L292.373 313.655L291.879 315H293.311V314ZM309.334 270.364V269.364H308.636L308.395 270.019L309.334 270.364ZM314.789 270.364L315.727 270.019L315.487 269.364H314.789V270.364ZM330.811 314V315H332.244L331.75 313.655L330.811 314ZM325.272 314L324.329 314.335L324.566 315H325.272V314ZM312.232 277.267L313.174 276.933L312.938 276.267H312.232V277.267ZM311.891 277.267V276.267H311.185L310.949 276.933L311.891 277.267ZM300.897 296.955V295.955H299.897V296.955H300.897ZM323.226 296.955H324.226V295.955H323.226V296.955ZM323.226 301.642V302.642H324.226V301.642H323.226ZM300.897 301.642H299.897V302.642H300.897V301.642ZM298.851 313H293.311V315H298.851V313ZM294.25 314.345L310.273 270.708L308.395 270.019L292.373 313.655L294.25 314.345ZM309.334 271.364H314.789V269.364H309.334V271.364ZM313.85 270.708L329.873 314.345L331.75 313.655L315.727 270.019L313.85 270.708ZM330.811 313H325.272V315H330.811V313ZM326.214 313.665L313.174 276.933L311.29 277.602L324.329 314.335L326.214 313.665ZM312.232 276.267H311.891V278.267H312.232V276.267ZM310.949 276.933L297.909 313.665L299.794 314.335L312.833 277.602L310.949 276.933ZM300.897 297.955H323.226V295.955H300.897V297.955ZM322.226 296.955V301.642H324.226V296.955H322.226ZM323.226 300.642H300.897V302.642H323.226V300.642ZM301.897 301.642V296.955H299.897V301.642H301.897ZM341.955 314V315H342.955V314H341.955ZM336.926 314H335.926V315H336.926V314ZM336.926 281.273V280.273H335.926V281.273H336.926ZM341.784 281.273H342.784V280.273H341.784V281.273ZM341.784 286.386H340.784V287.386H341.784V286.386ZM342.211 286.386V287.386H342.85L343.119 286.805L342.211 286.386ZM345.705 282.381L346.247 283.221L346.253 283.217L345.705 282.381ZM357.573 282.21L357.093 283.088L357.099 283.091L357.573 282.21ZM361.451 286.301L360.558 286.751L360.559 286.754L361.451 286.301ZM362.836 314V315H363.836V314H362.836ZM357.807 314H356.807V315H357.807V314ZM355.804 287.537L355.069 288.215L355.072 288.218L355.804 287.537ZM346.003 286.408L345.521 285.532L345.517 285.534L346.003 286.408ZM343.042 289.455L342.163 288.978L342.163 288.978L343.042 289.455ZM340.955 294.312V314H342.955V294.312H340.955ZM341.955 313H336.926V315H341.955V313ZM337.926 314V281.273H335.926V314H337.926ZM336.926 282.273H341.784V280.273H336.926V282.273ZM340.784 281.273V286.386H342.784V281.273H340.784ZM341.784 287.386H342.211V285.386H341.784V287.386ZM343.119 286.805C343.805 285.319 344.841 284.128 346.247 283.221L345.163 281.54C343.443 282.65 342.15 284.13 341.303 285.967L343.119 286.805ZM346.253 283.217C347.607 282.331 349.417 281.847 351.756 281.847V279.847C349.152 279.847 346.927 280.385 345.157 281.544L346.253 283.217ZM351.756 281.847C353.833 281.847 355.601 282.272 357.093 283.088L358.053 281.333C356.22 280.331 354.111 279.847 351.756 279.847V281.847ZM357.099 283.091C358.564 283.88 359.718 285.085 360.558 286.751L362.344 285.851C361.337 283.852 359.905 282.33 358.047 281.33L357.099 283.091ZM360.559 286.754C361.39 288.39 361.836 290.523 361.836 293.205H363.836C363.836 290.318 363.358 287.849 362.342 285.848L360.559 286.754ZM361.836 293.205V314H363.836V293.205H361.836ZM362.836 313H357.807V315H362.836V313ZM358.807 314V293.545H356.807V314H358.807ZM358.807 293.545C358.807 290.803 358.092 288.527 356.536 286.856L355.072 288.218C356.187 289.416 356.807 291.146 356.807 293.545H358.807ZM356.54 286.859C354.981 285.167 352.861 284.364 350.307 284.364V286.364C352.413 286.364 353.958 287.009 355.069 288.215L356.54 286.859ZM350.307 284.364C348.553 284.364 346.949 284.745 345.521 285.532L346.485 287.284C347.586 286.678 348.851 286.364 350.307 286.364V284.364ZM345.517 285.534C344.09 286.328 342.972 287.486 342.163 288.978L343.921 289.931C344.56 288.752 345.416 287.879 346.49 287.281L345.517 285.534ZM342.163 288.978C341.341 290.492 340.955 292.284 340.955 294.312H342.955C342.955 292.534 343.293 291.088 343.921 289.931L342.163 288.978ZM377.543 312.572L377.007 313.417L377.009 313.418L377.543 312.572ZM372.344 306.67L371.445 307.11L371.447 307.114L372.344 306.67ZM372.344 288.879L371.446 288.438L371.444 288.442L372.344 288.879ZM377.543 282.956L377.009 282.11L377.007 282.112L377.543 282.956ZM393.075 282.956L392.539 283.8L392.542 283.802L393.075 282.956ZM398.274 288.879L397.375 289.316L397.377 289.32L398.274 288.879ZM398.274 306.67L397.378 306.227L397.376 306.231L398.274 306.67ZM393.075 312.572L392.542 311.727L392.539 311.728L393.075 312.572ZM390.859 308.439L390.237 307.656L390.237 307.656L390.859 308.439ZM394.077 303.901L395.014 304.249L395.014 304.249L394.077 303.901ZM394.077 291.692L395.015 291.346L395.015 291.346L394.077 291.692ZM390.859 287.111L391.486 286.331L391.486 286.331L390.859 287.111ZM379.78 287.111L379.153 286.331L379.153 286.331L379.78 287.111ZM376.562 291.692L375.624 291.346L375.624 291.346L376.562 291.692ZM376.562 303.901L375.625 304.249L375.625 304.249L376.562 303.901ZM379.78 308.439L380.402 307.656L380.402 307.656L379.78 308.439ZM385.32 313.682C382.53 313.682 380.128 313.02 378.076 311.727L377.009 313.418C379.418 314.937 382.2 315.682 385.32 315.682V313.682ZM378.078 311.728C376.029 310.427 374.415 308.604 373.24 306.227L371.447 307.114C372.772 309.794 374.625 311.905 377.007 313.417L378.078 311.728ZM373.242 306.231C372.085 303.864 371.49 301.066 371.49 297.807H369.49C369.49 301.309 370.131 304.42 371.445 307.11L373.242 306.231ZM371.49 297.807C371.49 294.518 372.086 291.698 373.243 289.316L371.444 288.442C370.13 291.146 369.49 294.277 369.49 297.807H371.49ZM373.241 289.32C374.417 286.929 376.03 285.1 378.078 283.8L377.007 282.112C374.623 283.624 372.771 285.744 371.446 288.438L373.241 289.32ZM378.076 283.802C380.128 282.508 382.53 281.847 385.32 281.847V279.847C382.2 279.847 379.418 280.591 377.009 282.11L378.076 283.802ZM385.32 281.847C388.109 281.847 390.503 282.508 392.539 283.8L393.611 282.112C391.215 280.591 388.439 279.847 385.32 279.847V281.847ZM392.542 283.802C394.603 285.101 396.214 286.929 397.375 289.316L399.174 288.442C397.862 285.744 396.008 283.623 393.609 282.11L392.542 283.802ZM397.377 289.32C398.547 291.701 399.149 294.52 399.149 297.807H401.149C401.149 294.275 400.501 291.143 399.172 288.438L397.377 289.32ZM399.149 297.807C399.149 301.064 398.547 303.861 397.378 306.227L399.171 307.114C400.501 304.423 401.149 301.311 401.149 297.807H399.149ZM397.376 306.231C396.216 308.605 394.604 310.426 392.542 311.727L393.609 313.418C396.007 311.906 397.861 309.793 399.173 307.11L397.376 306.231ZM392.539 311.728C390.503 313.02 388.109 313.682 385.32 313.682V315.682C388.439 315.682 391.215 314.937 393.611 313.417L392.539 311.728ZM385.32 311.165C387.74 311.165 389.82 310.541 391.481 309.222L390.237 307.656C389.001 308.638 387.388 309.165 385.32 309.165V311.165ZM391.481 309.222C393.085 307.949 394.26 306.28 395.014 304.249L393.139 303.553C392.501 305.271 391.532 306.628 390.237 307.656L391.481 309.222ZM395.014 304.249C395.755 302.252 396.121 300.102 396.121 297.807H394.121C394.121 299.887 393.79 301.799 393.139 303.553L395.014 304.249ZM396.121 297.807C396.121 295.512 395.755 293.355 395.015 291.346L393.138 292.037C393.79 293.807 394.121 295.727 394.121 297.807H396.121ZM395.015 291.346C394.262 289.301 393.088 287.619 391.486 286.331L390.233 287.89C391.529 288.932 392.5 290.304 393.138 292.037L395.015 291.346ZM391.486 286.331C389.825 284.996 387.743 284.364 385.32 284.364V286.364C387.385 286.364 388.996 286.896 390.233 287.89L391.486 286.331ZM385.32 284.364C382.896 284.364 380.814 284.996 379.153 286.331L380.406 287.89C381.643 286.896 383.254 286.364 385.32 286.364V284.364ZM379.153 286.331C377.551 287.619 376.377 289.301 375.624 291.346L377.501 292.037C378.14 290.304 379.111 288.932 380.406 287.89L379.153 286.331ZM375.624 291.346C374.884 293.355 374.518 295.512 374.518 297.807H376.518C376.518 295.727 376.849 293.807 377.501 292.037L375.624 291.346ZM374.518 297.807C374.518 300.102 374.884 302.252 375.625 304.249L377.5 303.553C376.849 301.799 376.518 299.887 376.518 297.807H374.518ZM375.625 304.249C376.379 306.28 377.555 307.949 379.158 309.222L380.402 307.656C379.107 306.628 378.138 305.271 377.5 303.553L375.625 304.249ZM379.158 309.222C380.819 310.541 382.899 311.165 385.32 311.165V309.165C383.251 309.165 381.638 308.638 380.402 307.656L379.158 309.222Z" fill="black"/>
<defs>
<filter id="filter0_d_1_17" x="197" y="72" width="312" height="313" filterUnits="userSpaceOnUse" color-interpolation-filters="sRGB">
<feFlood flood-opacity="0" result="BackgroundImageFix"/>
<feColorMatrix in="SourceAlpha" type="matrix" values="0 0 0 0 0 0 0 0 0 0 0 0 0 0 0 0 0 0 127 0" result="hardAlpha"/>
<feOffset dx="4" dy="5"/>
<feGaussianBlur stdDeviation="2.5"/>
<feComposite in2="hardAlpha" operator="out"/>
<feColorMatrix type="matrix" values="0 0 0 0 0 0 0 0 0 0 0 0 0 0 0 0 0 0 1 0"/>
<feBlend mode="normal" in2="BackgroundImageFix" result="effect1_dropShadow_1_17"/>
<feBlend mode="normal" in="SourceGraphic" in2="effect1_dropShadow_1_17" result="shape"/>
</filter>
<linearGradient id="paint0_linear_1_17" x1="451.301" y1="97" x2="520.665" y2="223.115" gradientUnits="userSpaceOnUse">
<stop offset="0.0361446" stop-color="#2740CC"/>
<stop offset="1" stop-color="#4EABCC" stop-opacity="0"/>
</linearGradient>
<linearGradient id="paint1_linear_1_17" x1="431.277" y1="293" x2="492.241" y2="407.169" gradientUnits="userSpaceOnUse">
<stop offset="0.0361446" stop-color="#2740CC"/>
<stop offset="1" stop-color="#4EABCC" stop-opacity="0"/>
</linearGradient>
<linearGradient id="paint2_linear_1_17" x1="512.651" y1="256" x2="545.783" y2="318.048" gradientUnits="userSpaceOnUse">
<stop offset="0.0361446" stop-color="#2740CC"/>
<stop offset="1" stop-color="#4EABCC" stop-opacity="0"/>
</linearGradient>
<linearGradient id="paint3_linear_1_17" x1="255.602" y1="143.928" x2="89.1163" y2="12.0906" gradientUnits="userSpaceOnUse">
<stop offset="0.0361446" stop-color="#2740CC"/>
<stop offset="1" stop-color="#4EABCC" stop-opacity="0"/>
</linearGradient>
<linearGradient id="paint4_linear_1_17" x1="145.964" y1="281" x2="193.012" y2="369.108" gradientUnits="userSpaceOnUse">
<stop offset="0.0361446" stop-color="#2740CC"/>
<stop offset="1" stop-color="#4EABCC" stop-opacity="0"/>
</linearGradient>
<linearGradient id="paint5_linear_1_17" x1="247.855" y1="315" x2="327.08" y2="462.119" gradientUnits="userSpaceOnUse">
<stop offset="0.0361446" stop-color="#2740CC"/>
<stop offset="1" stop-color="#4EABCC" stop-opacity="0"/>
</linearGradient>
<linearGradient id="paint6_linear_1_17" x1="373.082" y1="25.2041" x2="600.931" y2="222.857" gradientUnits="userSpaceOnUse">
<stop stop-color="#2740CC"/>
<stop offset="1" stop-color="#4EABCC" stop-opacity="0"/>
</linearGradient>
<linearGradient id="paint7_linear_1_17" x1="249.598" y1="107.02" x2="642.568" y2="542.718" gradientUnits="userSpaceOnUse">
<stop stop-color="#2740CC"/>
<stop offset="1" stop-color="white" stop-opacity="0"/>
</linearGradient>
</defs>
</svg>
