<svg width="677" height="444" viewBox="0 0 677 444" fill="none" xmlns="http://www.w3.org/2000/svg">
<rect width="677" height="444" fill="white"/>
<ellipse cx="476" cy="148.5" rx="50" ry="51.5" fill="url(#paint0_linear_1_28)"/>
<ellipse cx="463" cy="346.5" rx="46" ry="46.5" fill="url(#paint1_linear_1_28)"/>
<circle cx="525" cy="281" r="25" fill="url(#paint2_linear_1_28)"/>
<ellipse cx="226" cy="109.5" rx="63" ry="63.5" fill="url(#paint3_linear_1_28)"/>
<circle cx="163.5" cy="316.5" r="35.5" fill="url(#paint4_linear_1_28)"/>
<ellipse cx="277" cy="374.5" rx="59" ry="59.5" fill="url(#paint5_linear_1_28)"/>
<ellipse cx="435" cy="84.5" rx="74" ry="74.5" fill="url(#paint6_linear_1_28)"/>
<g filter="url(#filter0_d_1_28)">
<ellipse cx="349" cy="223.5" rx="151" ry="151.5" fill="white"/>
<path d="M490 223.5C490 301.679 426.841 365 349 365C271.159 365 208 301.679 208 223.5C208 145.321 271.159 82 349 82C426.841 82 490 145.321 490 223.5Z" stroke="url(#paint7_linear_1_28)" stroke-width="20"/>
</g>
<path d="M331.001 251.293C324.661 251.293 319.059 250.169 314.197 247.923C309.365 245.645 305.595 242.521 302.886 238.551C300.178 234.55 298.839 229.995 298.87 224.886C298.839 220.885 299.624 217.192 301.224 213.807C302.825 210.391 305.01 207.544 307.78 205.266C310.58 202.958 313.704 201.496 317.151 200.881V200.327C312.627 199.157 309.026 196.618 306.349 192.71C303.671 188.77 302.348 184.292 302.379 179.276C302.348 174.474 303.563 170.181 306.026 166.396C308.488 162.61 311.873 159.625 316.182 157.44C320.521 155.254 325.461 154.162 331.001 154.162C336.479 154.162 341.372 155.254 345.681 157.44C349.99 159.625 353.375 162.61 355.837 166.396C358.33 170.181 359.592 174.474 359.623 179.276C359.592 184.292 358.223 188.77 355.514 192.71C352.837 196.618 349.282 199.157 344.85 200.327V200.881C348.266 201.496 351.344 202.958 354.083 205.266C356.822 207.544 359.007 210.391 360.638 213.807C362.27 217.192 363.101 220.885 363.131 224.886C363.101 229.995 361.716 234.55 358.977 238.551C356.268 242.521 352.498 245.645 347.666 247.923C342.865 250.169 337.31 251.293 331.001 251.293ZM331.001 241.136C335.279 241.136 338.972 240.444 342.08 239.059C345.189 237.674 347.589 235.72 349.282 233.196C350.975 230.672 351.836 227.718 351.867 224.332C351.836 220.762 350.913 217.608 349.097 214.869C347.281 212.129 344.804 209.975 341.665 208.406C338.556 206.836 335.002 206.051 331.001 206.051C326.969 206.051 323.368 206.836 320.198 208.406C317.059 209.975 314.581 212.129 312.766 214.869C310.981 217.608 310.103 220.762 310.134 224.332C310.103 227.718 310.919 230.672 312.581 233.196C314.274 235.72 316.69 237.674 319.829 239.059C322.968 240.444 326.692 241.136 331.001 241.136ZM331.001 196.264C334.386 196.264 337.387 195.587 340.003 194.233C342.65 192.879 344.727 190.986 346.235 188.555C347.743 186.123 348.513 183.277 348.543 180.014C348.513 176.813 347.759 174.028 346.281 171.658C344.804 169.258 342.757 167.411 340.141 166.119C337.525 164.795 334.478 164.134 331.001 164.134C327.461 164.134 324.368 164.795 321.722 166.119C319.075 167.411 317.028 169.258 315.582 171.658C314.135 174.028 313.427 176.813 313.458 180.014C313.427 183.277 314.151 186.123 315.628 188.555C317.136 190.986 319.213 192.879 321.86 194.233C324.507 195.587 327.554 196.264 331.001 196.264ZM400.583 197.188C396.674 197.188 393.104 196.233 389.872 194.325C386.672 192.417 384.117 189.863 382.209 186.662C380.301 183.43 379.347 179.86 379.347 175.952C379.347 172.043 380.301 168.488 382.209 165.288C384.117 162.056 386.672 159.486 389.872 157.578C393.104 155.67 396.674 154.716 400.583 154.716C404.491 154.716 408.046 155.67 411.247 157.578C414.478 159.486 417.048 162.056 418.956 165.288C420.864 168.488 421.818 172.043 421.818 175.952C421.818 179.86 420.864 183.43 418.956 186.662C417.048 189.863 414.478 192.417 411.247 194.325C408.046 196.233 404.491 197.188 400.583 197.188ZM400.583 187.955C402.798 187.955 404.814 187.416 406.63 186.339C408.446 185.262 409.892 183.815 410.97 181.999C412.047 180.183 412.585 178.168 412.585 175.952C412.585 173.736 412.047 171.72 410.97 169.904C409.892 168.088 408.446 166.642 406.63 165.565C404.814 164.487 402.798 163.949 400.583 163.949C398.367 163.949 396.351 164.487 394.535 165.565C392.719 166.642 391.273 168.088 390.195 169.904C389.118 171.72 388.58 173.736 388.58 175.952C388.58 178.168 389.118 180.183 390.195 181.999C391.273 183.815 392.719 185.262 394.535 186.339C396.351 187.416 398.367 187.955 400.583 187.955Z" fill="black"/>
<path d="M314.197 247.923L312.918 250.636L312.928 250.641L312.938 250.646L314.197 247.923ZM302.886 238.551L300.402 240.233L300.408 240.242L302.886 238.551ZM298.87 224.886L301.87 224.904L301.87 224.884L301.87 224.863L298.87 224.886ZM301.224 213.807L303.937 215.089L303.941 215.079L301.224 213.807ZM307.78 205.266L309.685 207.584L309.688 207.581L307.78 205.266ZM317.151 200.881L317.679 203.834L320.151 203.392V200.881H317.151ZM317.151 200.327H320.151V198.004L317.902 197.422L317.151 200.327ZM306.349 192.71L303.868 194.396L303.874 194.405L306.349 192.71ZM302.379 179.276L305.378 179.294L305.379 179.275L305.378 179.256L302.379 179.276ZM306.026 166.396L308.54 168.031L308.54 168.031L306.026 166.396ZM316.182 157.44L314.833 154.76L314.825 154.764L316.182 157.44ZM355.837 166.396L353.322 168.031L353.327 168.038L353.332 168.046L355.837 166.396ZM359.623 179.276L362.623 179.294L362.623 179.275L362.623 179.256L359.623 179.276ZM355.514 192.71L353.042 191.01L353.039 191.014L355.514 192.71ZM344.85 200.327L344.085 197.426L341.85 198.016V200.327H344.85ZM344.85 200.881H341.85V203.388L344.318 203.833L344.85 200.881ZM354.083 205.266L352.15 207.56L352.157 207.567L352.165 207.573L354.083 205.266ZM360.638 213.807L357.931 215.099L357.936 215.109L360.638 213.807ZM363.131 224.886L366.131 224.904L366.131 224.884L366.131 224.863L363.131 224.886ZM358.977 238.551L356.501 236.856L356.498 236.861L358.977 238.551ZM347.666 247.923L348.938 250.64L348.945 250.636L347.666 247.923ZM342.08 239.059L340.859 236.319L340.859 236.319L342.08 239.059ZM349.282 233.196L346.79 231.525L346.79 231.525L349.282 233.196ZM351.867 224.332L354.867 224.36L354.867 224.333L354.867 224.307L351.867 224.332ZM349.097 214.869L346.597 216.526L346.597 216.526L349.097 214.869ZM341.665 208.406L340.313 211.084L340.323 211.089L341.665 208.406ZM320.198 208.406L318.867 205.717L318.857 205.722L320.198 208.406ZM312.766 214.869L310.265 213.211L310.259 213.221L310.252 213.231L312.766 214.869ZM310.134 224.332L313.134 224.36L313.134 224.333L313.134 224.307L310.134 224.332ZM312.581 233.196L310.075 234.846L310.082 234.857L310.089 234.867L312.581 233.196ZM319.829 239.059L321.04 236.314L321.04 236.314L319.829 239.059ZM340.003 194.233L338.636 191.562L338.63 191.565L338.624 191.569L340.003 194.233ZM346.235 188.555L348.785 190.136L348.785 190.136L346.235 188.555ZM348.543 180.014L351.543 180.043L351.543 180.014L351.543 179.985L348.543 180.014ZM346.281 171.658L343.726 173.231L343.731 173.238L343.735 173.245L346.281 171.658ZM340.141 166.119L338.787 168.796L338.8 168.802L338.812 168.808L340.141 166.119ZM321.722 166.119L323.038 168.814L323.051 168.808L323.063 168.802L321.722 166.119ZM315.582 171.658L318.142 173.221L318.147 173.214L318.151 173.207L315.582 171.658ZM313.458 180.014L316.458 180.042L316.458 180.014L316.458 179.985L313.458 180.014ZM315.628 188.555L313.064 190.112L313.071 190.124L313.078 190.136L315.628 188.555ZM331.001 248.293C325.016 248.293 319.857 247.233 315.455 245.199L312.938 250.646C318.261 253.105 324.305 254.293 331.001 254.293V248.293ZM315.476 245.209C311.072 243.133 307.739 240.341 305.365 236.861L300.408 240.242C303.451 244.702 307.657 248.157 312.918 250.636L315.476 245.209ZM305.371 236.869C303.022 233.4 301.843 229.444 301.87 224.904L295.87 224.868C295.836 230.546 297.334 235.701 300.402 240.233L305.371 236.869ZM301.87 224.863C301.842 221.282 302.542 218.039 303.937 215.089L298.512 212.525C296.706 216.346 295.836 220.489 295.87 224.909L301.87 224.863ZM303.941 215.079C305.362 212.046 307.278 209.563 309.685 207.584L305.875 202.949C302.742 205.525 300.287 208.735 298.508 212.534L303.941 215.079ZM309.688 207.581C312.106 205.589 314.758 204.356 317.679 203.834L316.624 197.927C312.651 198.637 309.055 200.328 305.872 202.951L309.688 207.581ZM320.151 200.881V200.327H314.151V200.881H320.151ZM317.902 197.422C314.091 196.437 311.098 194.334 308.824 191.014L303.874 194.405C306.955 198.903 311.164 201.878 316.4 203.231L317.902 197.422ZM308.83 191.023C306.513 187.614 305.351 183.737 305.378 179.294L299.379 179.257C299.344 184.847 300.83 189.926 303.868 194.396L308.83 191.023ZM305.378 179.256C305.351 175.003 306.419 171.293 308.54 168.031L303.511 164.76C300.708 169.069 299.344 173.945 299.379 179.295L305.378 179.256ZM308.54 168.031C310.695 164.719 313.667 162.079 317.539 160.115L314.825 154.764C310.079 157.171 306.281 160.501 303.511 164.76L308.54 168.031ZM317.531 160.119C321.397 158.173 325.863 157.162 331.001 157.162V151.162C325.058 151.162 319.646 152.336 314.833 154.76L317.531 160.119ZM331.001 157.162C336.071 157.162 340.489 158.17 344.324 160.115L347.038 154.764C342.255 152.339 336.887 151.162 331.001 151.162V157.162ZM344.324 160.115C348.196 162.079 351.168 164.719 353.322 168.031L358.352 164.76C355.582 160.501 351.783 157.171 347.038 154.764L344.324 160.115ZM353.332 168.046C355.486 171.317 356.596 175.038 356.623 179.295L362.623 179.256C362.589 173.911 361.174 169.045 358.343 164.746L353.332 168.046ZM356.623 179.257C356.596 183.704 355.393 187.591 353.042 191.01L357.986 194.409C361.052 189.95 362.589 184.88 362.623 179.294L356.623 179.257ZM353.039 191.014C350.754 194.351 347.795 196.447 344.085 197.426L345.616 203.227C350.769 201.868 354.92 198.886 357.989 194.405L353.039 191.014ZM341.85 200.327V200.881H347.85V200.327H341.85ZM344.318 203.833C347.201 204.353 349.799 205.579 352.15 207.56L356.016 202.972C352.889 200.337 349.332 198.64 345.382 197.928L344.318 203.833ZM352.165 207.573C354.55 209.556 356.475 212.049 357.931 215.099L363.346 212.514C361.54 208.732 359.094 205.531 356.001 202.96L352.165 207.573ZM357.936 215.109C359.362 218.07 360.104 221.322 360.131 224.909L366.131 224.863C366.097 220.449 365.177 216.315 363.341 212.505L357.936 215.109ZM360.131 224.868C360.104 229.412 358.883 233.377 356.501 236.856L361.452 240.246C364.548 235.724 366.097 230.578 366.131 224.904L360.131 224.868ZM356.498 236.861C354.124 240.341 350.791 243.133 346.387 245.209L348.945 250.636C354.206 248.157 358.412 244.702 361.455 240.242L356.498 236.861ZM346.395 245.205C342.06 247.234 336.953 248.293 331.001 248.293V254.293C337.667 254.293 343.67 253.105 348.938 250.64L346.395 245.205ZM331.001 244.136C335.595 244.136 339.723 243.393 343.301 241.799L340.859 236.319C338.22 237.494 334.963 238.136 331.001 238.136V244.136ZM343.301 241.799C346.862 240.213 349.73 237.914 351.773 234.867L346.79 231.525C345.449 233.525 343.516 235.135 340.859 236.319L343.301 241.799ZM351.773 234.867C353.829 231.802 354.832 228.262 354.867 224.36L348.867 224.305C348.841 227.174 348.12 229.542 346.79 231.525L351.773 234.867ZM354.867 224.307C354.832 220.208 353.762 216.476 351.598 213.211L346.597 216.526C348.064 218.739 348.841 221.317 348.867 224.358L354.867 224.307ZM351.598 213.211C349.472 210.005 346.582 207.51 343.006 205.722L340.323 211.089C343.026 212.44 345.091 214.254 346.597 216.526L351.598 213.211ZM343.017 205.728C339.431 203.917 335.401 203.051 331.001 203.051V209.051C334.602 209.051 337.682 209.755 340.313 211.083L343.017 205.728ZM331.001 203.051C326.572 203.051 322.505 203.916 318.867 205.717L321.529 211.094C324.231 209.756 327.366 209.051 331.001 209.051V203.051ZM318.857 205.722C315.281 207.51 312.391 210.005 310.265 213.211L315.266 216.526C316.772 214.254 318.837 212.44 321.54 211.089L318.857 205.722ZM310.252 213.231C308.115 216.51 307.099 220.254 307.134 224.358L313.134 224.307C313.108 221.27 313.846 218.706 315.279 216.507L310.252 213.231ZM307.134 224.305C307.099 228.212 308.047 231.766 310.075 234.846L315.086 231.546C313.791 229.579 313.108 227.224 313.134 224.36L307.134 224.305ZM310.089 234.867C312.138 237.922 315.028 240.22 318.618 241.804L321.04 236.314C318.351 235.128 316.409 233.518 315.072 231.525L310.089 234.867ZM318.618 241.804C322.223 243.394 326.378 244.136 331.001 244.136V238.136C327.006 238.136 323.713 237.494 321.04 236.314L318.618 241.804ZM331.001 199.264C334.794 199.264 338.28 198.503 341.382 196.897L338.624 191.569C336.494 192.671 333.978 193.264 331.001 193.264V199.264ZM341.369 196.904C344.482 195.311 346.977 193.05 348.785 190.136L343.686 186.973C342.477 188.922 340.817 190.447 338.636 191.562L341.369 196.904ZM348.785 190.136C350.621 187.175 351.508 183.775 351.543 180.043L345.543 179.986C345.517 182.778 344.865 185.071 343.686 186.973L348.785 190.136ZM351.543 179.985C351.508 176.316 350.637 172.974 348.827 170.071L343.735 173.245C344.88 175.082 345.517 177.311 345.543 180.043L351.543 179.985ZM348.836 170.086C347.053 167.188 344.573 164.962 341.47 163.429L338.812 168.808C340.942 169.86 342.555 171.328 343.726 173.231L348.836 170.086ZM341.496 163.442C338.388 161.87 334.862 161.134 331.001 161.134V167.134C334.095 167.134 336.662 167.721 338.787 168.796L341.496 163.442ZM331.001 161.134C327.086 161.134 323.517 161.867 320.38 163.435L323.063 168.802C325.219 167.724 327.837 167.134 331.001 167.134V161.134ZM320.405 163.423C317.267 164.956 314.773 167.188 313.012 170.11L318.151 173.207C319.284 171.327 320.883 169.867 323.038 168.814L320.405 163.423ZM313.021 170.095C311.24 173.014 310.423 176.369 310.458 180.043L316.458 179.985C316.432 177.258 317.031 175.042 318.142 173.221L313.021 170.095ZM310.458 179.986C310.423 183.723 311.256 187.136 313.064 190.112L318.192 186.997C317.045 185.11 316.432 182.83 316.458 180.042L310.458 179.986ZM313.078 190.136C314.886 193.05 317.381 195.311 320.494 196.904L323.227 191.562C321.046 190.447 319.386 188.922 318.177 186.973L313.078 190.136ZM320.494 196.904C323.626 198.506 327.154 199.264 331.001 199.264V193.264C327.953 193.264 325.388 192.668 323.227 191.562L320.494 196.904ZM389.872 194.325L388.336 196.902L388.347 196.909L389.872 194.325ZM382.209 186.662L379.626 188.187L379.632 188.198L382.209 186.662ZM382.209 165.288L384.786 166.824L384.792 166.813L382.209 165.288ZM389.872 157.578L388.347 154.995L388.336 155.001L389.872 157.578ZM411.247 157.578L409.71 160.155L409.721 160.161L411.247 157.578ZM418.956 165.288L416.373 166.813L416.379 166.824L418.956 165.288ZM418.956 186.662L421.533 188.198L421.539 188.187L418.956 186.662ZM411.247 194.325L409.721 191.742L409.71 191.748L411.247 194.325ZM406.63 186.339L408.161 188.919L408.161 188.919L406.63 186.339ZM410.97 181.999L413.55 183.53L413.55 183.53L410.97 181.999ZM410.97 169.904L413.55 168.374L413.55 168.374L410.97 169.904ZM406.63 165.565L408.161 162.984L408.161 162.984L406.63 165.565ZM394.535 165.565L393.004 162.984L393.004 162.984L394.535 165.565ZM390.195 169.904L387.615 168.374L387.615 168.374L390.195 169.904ZM390.195 181.999L387.615 183.53L387.615 183.53L390.195 181.999ZM400.583 194.188C397.187 194.188 394.148 193.366 391.398 191.742L388.347 196.909C392.06 199.101 396.161 200.188 400.583 200.188V194.188ZM391.409 191.748C388.636 190.095 386.439 187.899 384.786 185.126L379.632 188.198C381.795 191.827 384.707 194.739 388.336 196.902L391.409 191.748ZM384.792 185.137C383.169 182.387 382.347 179.347 382.347 175.952H376.347C376.347 180.374 377.433 184.474 379.626 188.187L384.792 185.137ZM382.347 175.952C382.347 172.556 383.168 169.537 384.786 166.824L379.632 163.751C377.433 167.44 376.347 171.53 376.347 175.952H382.347ZM384.792 166.813C386.447 164.011 388.643 161.804 391.409 160.155L388.336 155.001C384.701 157.169 381.787 160.101 379.626 163.762L384.792 166.813ZM391.398 160.161C394.148 158.538 397.187 157.716 400.583 157.716V151.716C396.161 151.716 392.06 152.802 388.347 154.995L391.398 160.161ZM400.583 157.716C403.978 157.716 406.997 158.538 409.71 160.155L412.783 155.001C409.094 152.802 405.004 151.716 400.583 151.716V157.716ZM409.721 160.161C412.516 161.812 414.722 164.018 416.373 166.813L421.539 163.762C419.374 160.094 416.44 157.161 412.772 154.995L409.721 160.161ZM416.379 166.824C417.997 169.537 418.818 172.556 418.818 175.952H424.818C424.818 171.53 423.732 167.44 421.533 163.751L416.379 166.824ZM418.818 175.952C418.818 179.347 417.997 182.387 416.373 185.137L421.539 188.187C423.732 184.474 424.818 180.374 424.818 175.952H418.818ZM416.379 185.126C414.73 187.892 412.523 190.087 409.721 191.742L412.772 196.909C416.433 194.747 419.366 191.834 421.533 188.198L416.379 185.126ZM409.71 191.748C406.997 193.366 403.978 194.188 400.583 194.188V200.188C405.004 200.188 409.094 199.101 412.783 196.902L409.71 191.748ZM400.583 190.955C403.309 190.955 405.858 190.285 408.161 188.919L405.1 183.759C403.77 184.547 402.288 184.955 400.583 184.955V190.955ZM408.161 188.919C410.409 187.585 412.216 185.778 413.55 183.53L408.389 180.469C407.569 181.852 406.483 182.938 405.1 183.759L408.161 188.919ZM413.55 183.53C414.916 181.227 415.585 178.678 415.585 175.952H409.585C409.585 177.657 409.178 179.14 408.389 180.469L413.55 183.53ZM415.585 175.952C415.585 173.225 414.916 170.676 413.55 168.374L408.389 171.435C409.178 172.764 409.585 174.247 409.585 175.952H415.585ZM413.55 168.374C412.216 166.125 410.409 164.318 408.161 162.984L405.1 168.145C406.483 168.966 407.569 170.051 408.389 171.435L413.55 168.374ZM408.161 162.984C405.858 161.619 403.309 160.949 400.583 160.949V166.949C402.288 166.949 403.77 167.356 405.1 168.145L408.161 162.984ZM400.583 160.949C397.856 160.949 395.307 161.619 393.004 162.984L396.066 168.145C397.395 167.356 398.877 166.949 400.583 166.949V160.949ZM393.004 162.984C390.756 164.318 388.949 166.125 387.615 168.374L392.776 171.435C393.596 170.051 394.682 168.966 396.066 168.145L393.004 162.984ZM387.615 168.374C386.249 170.676 385.58 173.225 385.58 175.952H391.58C391.58 174.247 391.987 172.764 392.776 171.435L387.615 168.374ZM385.58 175.952C385.58 178.678 386.249 181.227 387.615 183.53L392.776 180.469C391.987 179.14 391.58 177.657 391.58 175.952H385.58ZM387.615 183.53C388.949 185.778 390.756 187.585 393.004 188.919L396.066 183.759C394.682 182.938 393.596 181.852 392.776 180.469L387.615 183.53ZM393.004 188.919C395.307 190.285 397.856 190.955 400.583 190.955V184.955C398.877 184.955 397.395 184.547 396.066 183.759L393.004 188.919Z" fill="black"/>
<path d="M298.851 314H293.311L309.334 270.364H314.789L330.811 314H325.272L312.232 277.267H311.891L298.851 314ZM300.897 296.955H323.226V301.642H300.897V296.955ZM341.955 294.312V314H336.926V281.273H341.784V286.386H342.211C342.978 284.724 344.142 283.389 345.705 282.381C347.267 281.358 349.284 280.847 351.756 280.847C353.972 280.847 355.911 281.301 357.573 282.21C359.235 283.105 360.527 284.469 361.451 286.301C362.374 288.119 362.836 290.42 362.836 293.205V314H357.807V293.545C357.807 290.974 357.14 288.972 355.804 287.537C354.469 286.088 352.637 285.364 350.307 285.364C348.702 285.364 347.267 285.712 346.003 286.408C344.753 287.104 343.766 288.119 343.042 289.455C342.317 290.79 341.955 292.409 341.955 294.312ZM385.32 314.682C382.365 314.682 379.773 313.979 377.543 312.572C375.327 311.166 373.594 309.199 372.344 306.67C371.108 304.142 370.49 301.187 370.49 297.807C370.49 294.398 371.108 291.422 372.344 288.879C373.594 286.337 375.327 284.362 377.543 282.956C379.773 281.55 382.365 280.847 385.32 280.847C388.274 280.847 390.859 281.55 393.075 282.956C395.305 284.362 397.038 286.337 398.274 288.879C399.524 291.422 400.149 294.398 400.149 297.807C400.149 301.187 399.524 304.142 398.274 306.67C397.038 309.199 395.305 311.166 393.075 312.572C390.859 313.979 388.274 314.682 385.32 314.682ZM385.32 310.165C387.564 310.165 389.411 309.589 390.859 308.439C392.308 307.288 393.381 305.776 394.077 303.901C394.773 302.026 395.121 299.994 395.121 297.807C395.121 295.619 394.773 293.581 394.077 291.692C393.381 289.803 392.308 288.276 390.859 287.111C389.411 285.946 387.564 285.364 385.32 285.364C383.075 285.364 381.229 285.946 379.78 287.111C378.331 288.276 377.259 289.803 376.562 291.692C375.866 293.581 375.518 295.619 375.518 297.807C375.518 299.994 375.866 302.026 376.562 303.901C377.259 305.776 378.331 307.288 379.78 308.439C381.229 309.589 383.075 310.165 385.32 310.165Z" fill="black"/>
<path d="M298.851 314V315H299.557L299.794 314.335L298.851 314ZM293.311 314L292.373 313.655L291.879 315H293.311V314ZM309.334 270.364V269.364H308.636L308.395 270.019L309.334 270.364ZM314.789 270.364L315.727 270.019L315.487 269.364H314.789V270.364ZM330.811 314V315H332.244L331.75 313.655L330.811 314ZM325.272 314L324.329 314.335L324.566 315H325.272V314ZM312.232 277.267L313.174 276.933L312.938 276.267H312.232V277.267ZM311.891 277.267V276.267H311.185L310.949 276.933L311.891 277.267ZM300.897 296.955V295.955H299.897V296.955H300.897ZM323.226 296.955H324.226V295.955H323.226V296.955ZM323.226 301.642V302.642H324.226V301.642H323.226ZM300.897 301.642H299.897V302.642H300.897V301.642ZM298.851 313H293.311V315H298.851V313ZM294.25 314.345L310.273 270.708L308.395 270.019L292.373 313.655L294.25 314.345ZM309.334 271.364H314.789V269.364H309.334V271.364ZM313.85 270.708L329.873 314.345L331.75 313.655L315.727 270.019L313.85 270.708ZM330.811 313H325.272V315H330.811V313ZM326.214 313.665L313.174 276.933L311.29 277.602L324.329 314.335L326.214 313.665ZM312.232 276.267H311.891V278.267H312.232V276.267ZM310.949 276.933L297.909 313.665L299.794 314.335L312.833 277.602L310.949 276.933ZM300.897 297.955H323.226V295.955H300.897V297.955ZM322.226 296.955V301.642H324.226V296.955H322.226ZM323.226 300.642H300.897V302.642H323.226V300.642ZM301.897 301.642V296.955H299.897V301.642H301.897ZM341.955 314V315H342.955V314H341.955ZM336.926 314H335.926V315H336.926V314ZM336.926 281.273V280.273H335.926V281.273H336.926ZM341.784 281.273H342.784V280.273H341.784V281.273ZM341.784 286.386H340.784V287.386H341.784V286.386ZM342.211 286.386V287.386H342.85L343.119 286.805L342.211 286.386ZM345.705 282.381L346.247 283.221L346.253 283.217L345.705 282.381ZM357.573 282.21L357.093 283.088L357.099 283.091L357.573 282.21ZM361.451 286.301L360.558 286.751L360.559 286.754L361.451 286.301ZM362.836 314V315H363.836V314H362.836ZM357.807 314H356.807V315H357.807V314ZM355.804 287.537L355.069 288.215L355.072 288.218L355.804 287.537ZM346.003 286.408L345.521 285.532L345.517 285.534L346.003 286.408ZM343.042 289.455L342.163 288.978L342.163 288.978L343.042 289.455ZM340.955 294.312V314H342.955V294.312H340.955ZM341.955 313H336.926V315H341.955V313ZM337.926 314V281.273H335.926V314H337.926ZM336.926 282.273H341.784V280.273H336.926V282.273ZM340.784 281.273V286.386H342.784V281.273H340.784ZM341.784 287.386H342.211V285.386H341.784V287.386ZM343.119 286.805C343.805 285.319 344.841 284.128 346.247 283.221L345.163 281.54C343.443 282.65 342.15 284.13 341.303 285.967L343.119 286.805ZM346.253 283.217C347.607 282.331 349.417 281.847 351.756 281.847V279.847C349.152 279.847 346.927 280.385 345.157 281.544L346.253 283.217ZM351.756 281.847C353.833 281.847 355.601 282.272 357.093 283.088L358.053 281.333C356.22 280.331 354.111 279.847 351.756 279.847V281.847ZM357.099 283.091C358.564 283.88 359.718 285.085 360.558 286.751L362.344 285.851C361.337 283.852 359.905 282.33 358.047 281.33L357.099 283.091ZM360.559 286.754C361.39 288.39 361.836 290.523 361.836 293.205H363.836C363.836 290.318 363.358 287.849 362.342 285.848L360.559 286.754ZM361.836 293.205V314H363.836V293.205H361.836ZM362.836 313H357.807V315H362.836V313ZM358.807 314V293.545H356.807V314H358.807ZM358.807 293.545C358.807 290.803 358.092 288.527 356.536 286.856L355.072 288.218C356.187 289.416 356.807 291.146 356.807 293.545H358.807ZM356.54 286.859C354.981 285.167 352.861 284.364 350.307 284.364V286.364C352.413 286.364 353.958 287.009 355.069 288.215L356.54 286.859ZM350.307 284.364C348.553 284.364 346.949 284.745 345.521 285.532L346.485 287.284C347.586 286.678 348.851 286.364 350.307 286.364V284.364ZM345.517 285.534C344.09 286.328 342.972 287.486 342.163 288.978L343.921 289.931C344.56 288.752 345.416 287.879 346.49 287.281L345.517 285.534ZM342.163 288.978C341.341 290.492 340.955 292.284 340.955 294.312H342.955C342.955 292.534 343.293 291.088 343.921 289.931L342.163 288.978ZM377.543 312.572L377.007 313.417L377.009 313.418L377.543 312.572ZM372.344 306.67L371.445 307.11L371.447 307.114L372.344 306.67ZM372.344 288.879L371.446 288.438L371.444 288.442L372.344 288.879ZM377.543 282.956L377.009 282.11L377.007 282.112L377.543 282.956ZM393.075 282.956L392.539 283.8L392.542 283.802L393.075 282.956ZM398.274 288.879L397.375 289.316L397.377 289.32L398.274 288.879ZM398.274 306.67L397.378 306.227L397.376 306.231L398.274 306.67ZM393.075 312.572L392.542 311.727L392.539 311.728L393.075 312.572ZM390.859 308.439L390.237 307.656L390.237 307.656L390.859 308.439ZM394.077 303.901L395.014 304.249L395.014 304.249L394.077 303.901ZM394.077 291.692L395.015 291.346L395.015 291.346L394.077 291.692ZM390.859 287.111L391.486 286.331L391.486 286.331L390.859 287.111ZM379.78 287.111L379.153 286.331L379.153 286.331L379.78 287.111ZM376.562 291.692L375.624 291.346L375.624 291.346L376.562 291.692ZM376.562 303.901L375.625 304.249L375.625 304.249L376.562 303.901ZM379.78 308.439L380.402 307.656L380.402 307.656L379.78 308.439ZM385.32 313.682C382.53 313.682 380.128 313.02 378.076 311.727L377.009 313.418C379.418 314.937 382.2 315.682 385.32 315.682V313.682ZM378.078 311.728C376.029 310.427 374.415 308.604 373.24 306.227L371.447 307.114C372.772 309.794 374.625 311.905 377.007 313.417L378.078 311.728ZM373.242 306.231C372.085 303.864 371.49 301.066 371.49 297.807H369.49C369.49 301.309 370.131 304.42 371.445 307.11L373.242 306.231ZM371.49 297.807C371.49 294.518 372.086 291.698 373.243 289.316L371.444 288.442C370.13 291.146 369.49 294.277 369.49 297.807H371.49ZM373.241 289.32C374.417 286.929 376.03 285.1 378.078 283.8L377.007 282.112C374.623 283.624 372.771 285.744 371.446 288.438L373.241 289.32ZM378.076 283.802C380.128 282.508 382.53 281.847 385.32 281.847V279.847C382.2 279.847 379.418 280.591 377.009 282.11L378.076 283.802ZM385.32 281.847C388.109 281.847 390.503 282.508 392.539 283.8L393.611 282.112C391.215 280.591 388.439 279.847 385.32 279.847V281.847ZM392.542 283.802C394.603 285.101 396.214 286.929 397.375 289.316L399.174 288.442C397.862 285.744 396.008 283.623 393.609 282.11L392.542 283.802ZM397.377 289.32C398.547 291.701 399.149 294.52 399.149 297.807H401.149C401.149 294.275 400.501 291.143 399.172 288.438L397.377 289.32ZM399.149 297.807C399.149 301.064 398.547 303.861 397.378 306.227L399.171 307.114C400.501 304.423 401.149 301.311 401.149 297.807H399.149ZM397.376 306.231C396.216 308.605 394.604 310.426 392.542 311.727L393.609 313.418C396.007 311.906 397.861 309.793 399.173 307.11L397.376 306.231ZM392.539 311.728C390.503 313.02 388.109 313.682 385.32 313.682V315.682C388.439 315.682 391.215 314.937 393.611 313.417L392.539 311.728ZM385.32 311.165C387.74 311.165 389.82 310.541 391.481 309.222L390.237 307.656C389.001 308.638 387.388 309.165 385.32 309.165V311.165ZM391.481 309.222C393.085 307.949 394.26 306.28 395.014 304.249L393.139 303.553C392.501 305.271 391.532 306.628 390.237 307.656L391.481 309.222ZM395.014 304.249C395.755 302.252 396.121 300.102 396.121 297.807H394.121C394.121 299.887 393.79 301.799 393.139 303.553L395.014 304.249ZM396.121 297.807C396.121 295.512 395.755 293.355 395.015 291.346L393.138 292.037C393.79 293.807 394.121 295.727 394.121 297.807H396.121ZM395.015 291.346C394.262 289.301 393.088 287.619 391.486 286.331L390.233 287.89C391.529 288.932 392.5 290.304 393.138 292.037L395.015 291.346ZM391.486 286.331C389.825 284.996 387.743 284.364 385.32 284.364V286.364C387.385 286.364 388.996 286.896 390.233 287.89L391.486 286.331ZM385.32 284.364C382.896 284.364 380.814 284.996 379.153 286.331L380.406 287.89C381.643 286.896 383.254 286.364 385.32 286.364V284.364ZM379.153 286.331C377.551 287.619 376.377 289.301 375.624 291.346L377.501 292.037C378.14 290.304 379.111 288.932 380.406 287.89L379.153 286.331ZM375.624 291.346C374.884 293.355 374.518 295.512 374.518 297.807H376.518C376.518 295.727 376.849 293.807 377.501 292.037L375.624 291.346ZM374.518 297.807C374.518 300.102 374.884 302.252 375.625 304.249L377.5 303.553C376.849 301.799 376.518 299.887 376.518 297.807H374.518ZM375.625 304.249C376.379 306.28 377.555 307.949 379.158 309.222L380.402 307.656C379.107 306.628 378.138 305.271 377.5 303.553L375.625 304.249ZM379.158 309.222C380.819 310.541 382.899 311.165 385.32 311.165V309.165C383.251 309.165 381.638 308.638 380.402 307.656L379.158 309.222Z" fill="black"/>
<defs>
<filter id="filter0_d_1_28" x="197" y="72" width="312" height="313" filterUnits="userSpaceOnUse" color-interpolation-filters="sRGB">
<feFlood flood-opacity="0" result="BackgroundImageFix"/>
<feColorMatrix in="SourceAlpha" type="matrix" values="0 0 0 0 0 0 0 0 0 0 0 0 0 0 0 0 0 0 127 0" result="hardAlpha"/>
<feOffset dx="4" dy="5"/>
<feGaussianBlur stdDeviation="2.5"/>
<feComposite in2="hardAlpha" operator="out"/>
<feColorMatrix type="matrix" values="0 0 0 0 0 0 0 0 0 0 0 0 0 0 0 0 0 0 1 0"/>
<feBlend mode="normal" in2="BackgroundImageFix" result="effect1_dropShadow_1_28"/>
<feBlend mode="normal" in="SourceGraphic" in2="effect1_dropShadow_1_28" result="shape"/>
</filter>
<linearGradient id="paint0_linear_1_28" x1="451.301" y1="97" x2="520.665" y2="223.115" gradientUnits="userSpaceOnUse">
<stop offset="0.0361446" stop-color="#8C1DCC"/>
<stop offset="1" stop-color="white" stop-opacity="0"/>
</linearGradient>
<linearGradient id="paint1_linear_1_28" x1="440.277" y1="300" x2="529.916" y2="430.213" gradientUnits="userSpaceOnUse">
<stop offset="0.0361446" stop-color="#8C1DCC"/>
<stop offset="1" stop-color="white" stop-opacity="0"/>
</linearGradient>
<linearGradient id="paint2_linear_1_28" x1="512.651" y1="256" x2="545.783" y2="318.048" gradientUnits="userSpaceOnUse">
<stop offset="0.0361446" stop-color="#8C1DCC"/>
<stop offset="1" stop-color="white" stop-opacity="0"/>
</linearGradient>
<linearGradient id="paint3_linear_1_28" x1="255.602" y1="143.928" x2="89.1163" y2="12.0906" gradientUnits="userSpaceOnUse">
<stop offset="0.0361446" stop-color="#8C1DCC"/>
<stop offset="1" stop-color="white" stop-opacity="0"/>
</linearGradient>
<linearGradient id="paint4_linear_1_28" x1="145.964" y1="281" x2="214.106" y2="410.915" gradientUnits="userSpaceOnUse">
<stop offset="0.0361446" stop-color="#8C1DCC"/>
<stop offset="1" stop-color="white" stop-opacity="0"/>
</linearGradient>
<linearGradient id="paint5_linear_1_28" x1="247.855" y1="315" x2="352.482" y2="506.491" gradientUnits="userSpaceOnUse">
<stop offset="0.0361446" stop-color="#8C1DCC"/>
<stop offset="1" stop-color="white" stop-opacity="0"/>
</linearGradient>
<linearGradient id="paint6_linear_1_28" x1="373.082" y1="25.2041" x2="600.931" y2="222.857" gradientUnits="userSpaceOnUse">
<stop stop-color="#8C1DCC"/>
<stop offset="1" stop-color="white" stop-opacity="0"/>
</linearGradient>
<linearGradient id="paint7_linear_1_28" x1="249.598" y1="107.02" x2="642.568" y2="542.718" gradientUnits="userSpaceOnUse">
<stop stop-color="#8C1DCC"/>
<stop offset="1" stop-color="white" stop-opacity="0"/>
</linearGradient>
</defs>
</svg>
