<svg width="677" height="444" viewBox="0 0 677 444" fill="none" xmlns="http://www.w3.org/2000/svg">
<rect width="677" height="444" fill="white"/>
<ellipse cx="475" cy="149" rx="50" ry="52" fill="url(#paint0_linear_1_39)"/>
<circle cx="462" cy="347" r="46" fill="url(#paint1_linear_1_39)"/>
<ellipse cx="524.5" cy="281" rx="25.5" ry="25" fill="url(#paint2_linear_1_39)"/>
<circle cx="226" cy="110" r="63" fill="url(#paint3_linear_1_39)"/>
<ellipse cx="163.5" cy="317" rx="35.5" ry="36" fill="url(#paint4_linear_1_39)"/>
<circle cx="276.5" cy="374.5" r="59.5" fill="url(#paint5_linear_1_39)"/>
<circle cx="434" cy="85" r="74" fill="url(#paint6_linear_1_39)"/>
<g filter="url(#filter0_d_1_39)">
<ellipse cx="348.5" cy="224" rx="150.5" ry="151" fill="white"/>
<path d="M489 224C489 301.903 426.065 365 348.5 365C270.935 365 208 301.903 208 224C208 146.097 270.935 83 348.5 83C426.065 83 489 146.097 489 224Z" stroke="url(#paint7_linear_1_39)" stroke-width="20"/>
</g>
<path d="M330.308 154.162C334.186 154.193 338.064 154.931 341.942 156.378C345.82 157.824 349.359 160.225 352.56 163.58C355.76 166.903 358.33 171.443 360.269 177.198C362.208 182.953 363.178 190.17 363.178 198.849C363.178 207.251 362.377 214.715 360.777 221.239C359.207 227.733 356.93 233.211 353.945 237.674C350.99 242.137 347.389 245.522 343.142 247.83C338.926 250.138 334.155 251.293 328.831 251.293C323.537 251.293 318.813 250.246 314.658 248.153C310.534 246.03 307.149 243.091 304.502 239.336C301.886 235.55 300.209 231.165 299.47 226.179H310.734C311.75 230.518 313.766 234.104 316.782 236.935C319.829 239.736 323.845 241.136 328.831 241.136C336.125 241.136 341.88 237.951 346.097 231.58C350.344 225.21 352.467 216.207 352.467 204.574H351.729C350.005 207.159 347.959 209.39 345.589 211.268C343.219 213.145 340.588 214.592 337.695 215.607C334.802 216.623 331.724 217.131 328.462 217.131C323.045 217.131 318.075 215.792 313.55 213.114C309.057 210.406 305.456 206.697 302.748 201.989C300.07 197.249 298.732 191.832 298.732 185.739C298.732 179.953 300.024 174.659 302.609 169.858C305.225 165.026 308.888 161.179 313.597 158.317C318.336 155.455 323.907 154.07 330.308 154.162ZM330.308 164.318C326.43 164.318 322.937 165.288 319.829 167.227C316.751 169.135 314.304 171.72 312.489 174.982C310.704 178.214 309.811 181.799 309.811 185.739C309.811 189.678 310.673 193.263 312.396 196.495C314.151 199.696 316.536 202.25 319.552 204.158C322.599 206.036 326.061 206.974 329.939 206.974C332.863 206.974 335.586 206.405 338.11 205.266C340.634 204.097 342.834 202.512 344.712 200.511C346.62 198.48 348.112 196.187 349.19 193.633C350.267 191.048 350.805 188.355 350.805 185.554C350.805 181.861 349.913 178.398 348.128 175.167C346.374 171.935 343.942 169.319 340.834 167.319C337.756 165.318 334.248 164.318 330.308 164.318ZM401.09 197.188C397.182 197.188 393.612 196.233 390.38 194.325C387.179 192.417 384.625 189.863 382.717 186.662C380.809 183.43 379.855 179.86 379.855 175.952C379.855 172.043 380.809 168.488 382.717 165.288C384.625 162.056 387.179 159.486 390.38 157.578C393.612 155.67 397.182 154.716 401.09 154.716C404.999 154.716 408.554 155.67 411.754 157.578C414.986 159.486 417.556 162.056 419.464 165.288C421.372 168.488 422.326 172.043 422.326 175.952C422.326 179.86 421.372 183.43 419.464 186.662C417.556 189.863 414.986 192.417 411.754 194.325C408.554 196.233 404.999 197.188 401.09 197.188ZM401.09 187.955C403.306 187.955 405.322 187.416 407.138 186.339C408.954 185.262 410.4 183.815 411.477 181.999C412.555 180.183 413.093 178.168 413.093 175.952C413.093 173.736 412.555 171.72 411.477 169.904C410.4 168.088 408.954 166.642 407.138 165.565C405.322 164.487 403.306 163.949 401.09 163.949C398.874 163.949 396.859 164.487 395.043 165.565C393.227 166.642 391.78 168.088 390.703 169.904C389.626 171.72 389.088 173.736 389.088 175.952C389.088 178.168 389.626 180.183 390.703 181.999C391.78 183.815 393.227 185.262 395.043 186.339C396.859 187.416 398.874 187.955 401.09 187.955Z" fill="black"/>
<path d="M330.308 154.162L330.265 157.162L330.275 157.162L330.284 157.162L330.308 154.162ZM341.942 156.378L342.99 153.567L342.99 153.567L341.942 156.378ZM352.56 163.58L350.389 165.651L350.399 165.66L352.56 163.58ZM360.269 177.198L357.426 178.156L357.426 178.156L360.269 177.198ZM360.777 221.239L357.863 220.525L357.861 220.535L360.777 221.239ZM353.945 237.674L351.451 236.006L351.447 236.012L351.443 236.018L353.945 237.674ZM343.142 247.83L341.71 245.194L341.701 245.199L343.142 247.83ZM314.658 248.153L313.285 250.821L313.297 250.827L313.309 250.833L314.658 248.153ZM304.502 239.336L302.034 241.041L302.042 241.053L302.05 241.064L304.502 239.336ZM299.47 226.179V223.179H295.993L296.503 226.619L299.47 226.179ZM310.734 226.179L313.655 225.495L313.113 223.179H310.734V226.179ZM316.782 236.935L314.729 239.123L314.74 239.133L314.752 239.144L316.782 236.935ZM346.097 231.58L343.6 229.916L343.595 229.925L346.097 231.58ZM352.467 204.574H355.467V201.574H352.467V204.574ZM351.729 204.574V201.574H350.123L349.233 202.91L351.729 204.574ZM313.55 213.114L312.002 215.684L312.012 215.69L312.022 215.696L313.55 213.114ZM302.748 201.989L300.136 203.464L300.142 203.474L300.147 203.484L302.748 201.989ZM302.609 169.858L299.971 168.43L299.968 168.436L302.609 169.858ZM313.597 158.317L312.046 155.749L312.038 155.753L313.597 158.317ZM319.829 167.227L321.41 169.776L321.417 169.772L319.829 167.227ZM312.489 174.982L309.867 173.523L309.863 173.532L312.489 174.982ZM312.396 196.495L309.749 197.907L309.757 197.922L309.766 197.937L312.396 196.495ZM319.552 204.158L317.948 206.694L317.963 206.703L317.978 206.712L319.552 204.158ZM338.11 205.266L339.344 208.001L339.358 207.995L339.371 207.988L338.11 205.266ZM344.712 200.511L342.525 198.457L342.524 198.458L344.712 200.511ZM349.19 193.633L351.954 194.798L351.959 194.787L349.19 193.633ZM348.128 175.167L345.491 176.598L345.497 176.608L345.502 176.617L348.128 175.167ZM340.834 167.319L339.199 169.834L339.21 169.842L340.834 167.319ZM330.284 157.162C333.789 157.19 337.321 157.856 340.893 159.189L342.99 153.567C338.807 152.006 334.583 151.196 330.332 151.162L330.284 157.162ZM340.893 159.189C344.297 160.458 347.464 162.584 350.389 165.65L354.73 161.509C351.254 157.865 347.342 155.19 342.99 153.567L340.893 159.189ZM350.399 165.66C353.211 168.581 355.586 172.694 357.426 178.156L363.112 176.24C361.075 170.192 358.31 165.226 354.721 161.499L350.399 165.66ZM357.426 178.156C359.227 183.501 360.178 190.368 360.178 198.849H366.178C366.178 189.972 365.189 182.406 363.112 176.24L357.426 178.156ZM360.178 198.849C360.178 207.068 359.394 214.284 357.863 220.525L363.691 221.954C365.361 215.146 366.178 207.435 366.178 198.849H360.178ZM357.861 220.535C356.355 226.766 354.199 231.899 351.451 236.006L356.438 239.342C359.661 234.524 362.06 228.701 363.693 221.944L357.861 220.535ZM351.443 236.018C348.73 240.116 345.481 243.145 341.71 245.194L344.575 250.466C349.298 247.899 353.25 244.157 356.446 239.33L351.443 236.018ZM341.701 245.199C337.973 247.24 333.707 248.293 328.831 248.293V254.293C334.603 254.293 339.878 253.037 344.583 250.462L341.701 245.199ZM328.831 248.293C323.941 248.293 319.69 247.329 316.008 245.474L313.309 250.833C317.937 253.164 323.134 254.293 328.831 254.293V248.293ZM316.032 245.486C312.333 243.582 309.319 240.963 306.954 237.607L302.05 241.064C304.978 245.218 308.735 248.478 313.285 250.821L316.032 245.486ZM306.97 237.63C304.64 234.258 303.116 230.314 302.438 225.739L296.503 226.619C297.302 232.015 299.133 236.843 302.034 241.041L306.97 237.63ZM299.47 229.179H310.734V223.179H299.47V229.179ZM307.813 226.863C308.953 231.731 311.248 235.855 314.729 239.123L318.835 234.748C316.284 232.353 314.547 229.306 313.655 225.495L307.813 226.863ZM314.752 239.144C318.461 242.554 323.256 244.136 328.831 244.136V238.136C324.435 238.136 321.196 236.918 318.812 234.727L314.752 239.144ZM328.831 244.136C337.187 244.136 343.858 240.399 348.598 233.236L343.595 229.925C339.903 235.503 335.063 238.136 328.831 238.136V244.136ZM348.593 233.244C353.298 226.186 355.467 216.512 355.467 204.574H349.467C349.467 215.902 347.39 224.233 343.6 229.916L348.593 233.244ZM352.467 201.574H351.729V207.574H352.467V201.574ZM349.233 202.91C347.678 205.241 345.843 207.239 343.726 208.916L347.452 213.619C350.074 211.542 352.332 209.077 354.225 206.238L349.233 202.91ZM343.726 208.916C341.621 210.584 339.284 211.87 336.701 212.777L338.688 218.438C341.891 217.314 344.817 215.706 347.452 213.619L343.726 208.916ZM336.701 212.777C334.147 213.673 331.407 214.131 328.462 214.131V220.131C332.041 220.131 335.456 219.573 338.688 218.438L336.701 212.777ZM328.462 214.131C323.565 214.131 319.125 212.928 315.078 210.533L312.022 215.696C317.024 218.656 322.524 220.131 328.462 220.131V214.131ZM315.099 210.545C311.058 208.109 307.812 204.777 305.348 200.493L300.147 203.484C303.1 208.618 307.057 212.703 312.002 215.684L315.099 210.545ZM305.36 200.513C302.966 196.275 301.732 191.378 301.732 185.739H295.732C295.732 192.286 297.175 198.223 300.136 203.464L305.36 200.513ZM301.732 185.739C301.732 180.418 302.915 175.618 305.251 171.28L299.968 168.436C297.133 173.701 295.732 179.487 295.732 185.739H301.732ZM305.248 171.286C307.61 166.923 310.899 163.467 315.155 160.88L312.038 155.753C306.877 158.891 302.841 163.129 299.971 168.43L305.248 171.286ZM315.147 160.885C319.335 158.356 324.335 157.076 330.265 157.162L330.352 151.162C323.478 151.063 317.337 152.553 312.046 155.749L315.147 160.885ZM330.308 161.318C325.903 161.318 321.854 162.427 318.241 164.681L321.417 169.772C324.02 168.148 326.957 167.318 330.308 167.318V161.318ZM318.248 164.677C314.723 166.863 311.923 169.829 309.867 173.523L315.11 176.441C316.685 173.611 318.78 171.407 321.41 169.776L318.248 164.677ZM309.863 173.532C307.816 177.237 306.811 181.327 306.811 185.739H312.811C312.811 182.271 313.591 179.19 315.115 176.433L309.863 173.532ZM306.811 185.739C306.811 190.132 307.777 194.208 309.749 197.907L315.043 195.083C313.569 192.319 312.811 189.224 312.811 185.739H306.811ZM309.766 197.937C311.758 201.573 314.492 204.507 317.948 206.694L321.156 201.623C318.579 199.993 316.543 197.819 315.027 195.053L309.766 197.937ZM317.978 206.712C321.538 208.906 325.554 209.974 329.939 209.974V203.974C326.569 203.974 323.66 203.166 321.126 201.604L317.978 206.712ZM329.939 209.974C333.264 209.974 336.411 209.324 339.344 208.001L336.876 202.532C334.762 203.486 332.462 203.974 329.939 203.974V209.974ZM339.371 207.988C342.239 206.659 344.755 204.849 346.899 202.564L342.524 198.458C340.913 200.175 339.029 201.534 336.849 202.544L339.371 207.988ZM346.898 202.565C349.049 200.276 350.738 197.683 351.954 194.798L346.425 192.467C345.487 194.692 344.191 196.684 342.525 198.457L346.898 202.565ZM351.959 194.787C353.188 191.836 353.805 188.751 353.805 185.554H347.805C347.805 187.959 347.345 190.259 346.42 192.479L351.959 194.787ZM353.805 185.554C353.805 181.354 352.784 177.392 350.754 173.716L345.502 176.617C347.041 179.405 347.805 182.368 347.805 185.554H353.805ZM350.764 173.736C348.768 170.058 345.987 167.068 342.457 164.796L339.21 169.842C341.897 171.571 343.979 173.812 345.491 176.598L350.764 173.736ZM342.469 164.804C338.869 162.463 334.784 161.318 330.308 161.318V167.318C333.712 167.318 336.644 168.173 339.199 169.834L342.469 164.804ZM390.38 194.325L388.844 196.902L388.855 196.909L390.38 194.325ZM382.717 186.662L380.134 188.187L380.14 188.198L382.717 186.662ZM382.717 165.288L385.294 166.824L385.3 166.813L382.717 165.288ZM390.38 157.578L388.855 154.995L388.844 155.001L390.38 157.578ZM411.754 157.578L410.218 160.155L410.229 160.161L411.754 157.578ZM419.464 165.288L416.881 166.813L416.887 166.824L419.464 165.288ZM419.464 186.662L422.041 188.198L422.047 188.187L419.464 186.662ZM411.754 194.325L410.229 191.742L410.218 191.748L411.754 194.325ZM407.138 186.339L408.669 188.919L408.669 188.919L407.138 186.339ZM411.477 181.999L414.058 183.53L414.058 183.53L411.477 181.999ZM411.477 169.904L414.058 168.374L414.058 168.374L411.477 169.904ZM407.138 165.565L408.669 162.984L408.669 162.984L407.138 165.565ZM395.043 165.565L393.512 162.984L393.512 162.984L395.043 165.565ZM390.703 169.904L388.123 168.374L388.123 168.374L390.703 169.904ZM390.703 181.999L388.123 183.53L388.123 183.53L390.703 181.999ZM401.09 194.188C397.695 194.188 394.655 193.366 391.906 191.742L388.855 196.909C392.568 199.101 396.668 200.188 401.09 200.188V194.188ZM391.916 191.748C389.143 190.095 386.947 187.899 385.294 185.126L380.14 188.198C382.303 191.827 385.215 194.739 388.844 196.902L391.916 191.748ZM385.3 185.137C383.676 182.387 382.855 179.347 382.855 175.952H376.855C376.855 180.374 377.941 184.474 380.134 188.187L385.3 185.137ZM382.855 175.952C382.855 172.556 383.676 169.537 385.294 166.824L380.14 163.751C377.941 167.44 376.855 171.53 376.855 175.952H382.855ZM385.3 166.813C386.955 164.011 389.15 161.804 391.916 160.155L388.844 155.001C385.208 157.169 382.295 160.101 380.134 163.762L385.3 166.813ZM391.906 160.161C394.655 158.538 397.695 157.716 401.09 157.716V151.716C396.668 151.716 392.568 152.802 388.855 154.995L391.906 160.161ZM401.09 157.716C404.486 157.716 407.505 158.538 410.218 160.155L413.291 155.001C409.602 152.802 405.512 151.716 401.09 151.716V157.716ZM410.229 160.161C413.024 161.812 415.23 164.018 416.881 166.813L422.047 163.762C419.881 160.094 416.948 157.161 413.28 154.995L410.229 160.161ZM416.887 166.824C418.505 169.537 419.326 172.556 419.326 175.952H425.326C425.326 171.53 424.24 167.44 422.041 163.751L416.887 166.824ZM419.326 175.952C419.326 179.347 418.504 182.387 416.881 185.137L422.047 188.187C424.24 184.474 425.326 180.374 425.326 175.952H419.326ZM416.887 185.126C415.238 187.892 413.031 190.087 410.229 191.742L413.28 196.909C416.941 194.747 419.873 191.834 422.041 188.198L416.887 185.126ZM410.218 191.748C407.505 193.366 404.486 194.188 401.09 194.188V200.188C405.512 200.188 409.602 199.101 413.291 196.902L410.218 191.748ZM401.09 190.955C403.817 190.955 406.366 190.285 408.669 188.919L405.607 183.759C404.278 184.547 402.795 184.955 401.09 184.955V190.955ZM408.669 188.919C410.917 187.585 412.724 185.778 414.058 183.53L408.897 180.469C408.077 181.852 406.991 182.938 405.607 183.759L408.669 188.919ZM414.058 183.53C415.423 181.227 416.093 178.678 416.093 175.952H410.093C410.093 177.657 409.686 179.14 408.897 180.469L414.058 183.53ZM416.093 175.952C416.093 173.225 415.423 170.676 414.058 168.374L408.897 171.435C409.686 172.764 410.093 174.247 410.093 175.952H416.093ZM414.058 168.374C412.724 166.125 410.917 164.318 408.669 162.984L405.607 168.145C406.991 168.966 408.077 170.051 408.897 171.435L414.058 168.374ZM408.669 162.984C406.366 161.619 403.817 160.949 401.09 160.949V166.949C402.795 166.949 404.278 167.356 405.607 168.145L408.669 162.984ZM401.09 160.949C398.364 160.949 395.815 161.619 393.512 162.984L396.573 168.145C397.903 167.356 399.385 166.949 401.09 166.949V160.949ZM393.512 162.984C391.264 164.318 389.457 166.125 388.123 168.374L393.283 171.435C394.104 170.051 395.19 168.966 396.573 168.145L393.512 162.984ZM388.123 168.374C386.757 170.676 386.088 173.225 386.088 175.952H392.088C392.088 174.247 392.495 172.764 393.283 171.435L388.123 168.374ZM386.088 175.952C386.088 178.678 386.757 181.227 388.123 183.53L393.283 180.469C392.495 179.14 392.088 177.657 392.088 175.952H386.088ZM388.123 183.53C389.457 185.778 391.264 187.585 393.512 188.919L396.573 183.759C395.19 182.938 394.104 181.852 393.283 180.469L388.123 183.53ZM393.512 188.919C395.815 190.285 398.364 190.955 401.09 190.955V184.955C399.385 184.955 397.903 184.547 396.573 183.759L393.512 188.919Z" fill="black"/>
<path d="M298.851 314H293.311L309.334 270.364H314.789L330.811 314H325.272L312.232 277.267H311.891L298.851 314ZM300.897 296.955H323.226V301.642H300.897V296.955ZM341.955 294.312V314H336.926V281.273H341.784V286.386H342.211C342.978 284.724 344.142 283.389 345.705 282.381C347.267 281.358 349.284 280.847 351.756 280.847C353.972 280.847 355.911 281.301 357.573 282.21C359.235 283.105 360.527 284.469 361.451 286.301C362.374 288.119 362.836 290.42 362.836 293.205V314H357.807V293.545C357.807 290.974 357.14 288.972 355.804 287.537C354.469 286.088 352.637 285.364 350.307 285.364C348.702 285.364 347.267 285.712 346.003 286.408C344.753 287.104 343.766 288.119 343.042 289.455C342.317 290.79 341.955 292.409 341.955 294.312ZM385.32 314.682C382.365 314.682 379.773 313.979 377.543 312.572C375.327 311.166 373.594 309.199 372.344 306.67C371.108 304.142 370.49 301.187 370.49 297.807C370.49 294.398 371.108 291.422 372.344 288.879C373.594 286.337 375.327 284.362 377.543 282.956C379.773 281.55 382.365 280.847 385.32 280.847C388.274 280.847 390.859 281.55 393.075 282.956C395.305 284.362 397.038 286.337 398.274 288.879C399.524 291.422 400.149 294.398 400.149 297.807C400.149 301.187 399.524 304.142 398.274 306.67C397.038 309.199 395.305 311.166 393.075 312.572C390.859 313.979 388.274 314.682 385.32 314.682ZM385.32 310.165C387.564 310.165 389.411 309.589 390.859 308.439C392.308 307.288 393.381 305.776 394.077 303.901C394.773 302.026 395.121 299.994 395.121 297.807C395.121 295.619 394.773 293.581 394.077 291.692C393.381 289.803 392.308 288.276 390.859 287.111C389.411 285.946 387.564 285.364 385.32 285.364C383.075 285.364 381.229 285.946 379.78 287.111C378.331 288.276 377.259 289.803 376.562 291.692C375.866 293.581 375.518 295.619 375.518 297.807C375.518 299.994 375.866 302.026 376.562 303.901C377.259 305.776 378.331 307.288 379.78 308.439C381.229 309.589 383.075 310.165 385.32 310.165Z" fill="black"/>
<path d="M298.851 314V315H299.557L299.794 314.335L298.851 314ZM293.311 314L292.373 313.655L291.879 315H293.311V314ZM309.334 270.364V269.364H308.636L308.395 270.019L309.334 270.364ZM314.789 270.364L315.727 270.019L315.487 269.364H314.789V270.364ZM330.811 314V315H332.244L331.75 313.655L330.811 314ZM325.272 314L324.329 314.335L324.566 315H325.272V314ZM312.232 277.267L313.174 276.933L312.938 276.267H312.232V277.267ZM311.891 277.267V276.267H311.185L310.949 276.933L311.891 277.267ZM300.897 296.955V295.955H299.897V296.955H300.897ZM323.226 296.955H324.226V295.955H323.226V296.955ZM323.226 301.642V302.642H324.226V301.642H323.226ZM300.897 301.642H299.897V302.642H300.897V301.642ZM298.851 313H293.311V315H298.851V313ZM294.25 314.345L310.273 270.708L308.395 270.019L292.373 313.655L294.25 314.345ZM309.334 271.364H314.789V269.364H309.334V271.364ZM313.85 270.708L329.873 314.345L331.75 313.655L315.727 270.019L313.85 270.708ZM330.811 313H325.272V315H330.811V313ZM326.214 313.665L313.174 276.933L311.29 277.602L324.329 314.335L326.214 313.665ZM312.232 276.267H311.891V278.267H312.232V276.267ZM310.949 276.933L297.909 313.665L299.794 314.335L312.833 277.602L310.949 276.933ZM300.897 297.955H323.226V295.955H300.897V297.955ZM322.226 296.955V301.642H324.226V296.955H322.226ZM323.226 300.642H300.897V302.642H323.226V300.642ZM301.897 301.642V296.955H299.897V301.642H301.897ZM341.955 314V315H342.955V314H341.955ZM336.926 314H335.926V315H336.926V314ZM336.926 281.273V280.273H335.926V281.273H336.926ZM341.784 281.273H342.784V280.273H341.784V281.273ZM341.784 286.386H340.784V287.386H341.784V286.386ZM342.211 286.386V287.386H342.85L343.119 286.805L342.211 286.386ZM345.705 282.381L346.247 283.221L346.253 283.217L345.705 282.381ZM357.573 282.21L357.093 283.088L357.099 283.091L357.573 282.21ZM361.451 286.301L360.558 286.751L360.559 286.754L361.451 286.301ZM362.836 314V315H363.836V314H362.836ZM357.807 314H356.807V315H357.807V314ZM355.804 287.537L355.069 288.215L355.072 288.218L355.804 287.537ZM346.003 286.408L345.521 285.532L345.517 285.534L346.003 286.408ZM343.042 289.455L342.163 288.978L342.163 288.978L343.042 289.455ZM340.955 294.312V314H342.955V294.312H340.955ZM341.955 313H336.926V315H341.955V313ZM337.926 314V281.273H335.926V314H337.926ZM336.926 282.273H341.784V280.273H336.926V282.273ZM340.784 281.273V286.386H342.784V281.273H340.784ZM341.784 287.386H342.211V285.386H341.784V287.386ZM343.119 286.805C343.805 285.319 344.841 284.128 346.247 283.221L345.163 281.54C343.443 282.65 342.15 284.13 341.303 285.967L343.119 286.805ZM346.253 283.217C347.607 282.331 349.417 281.847 351.756 281.847V279.847C349.152 279.847 346.927 280.385 345.157 281.544L346.253 283.217ZM351.756 281.847C353.833 281.847 355.601 282.272 357.093 283.088L358.053 281.333C356.22 280.331 354.111 279.847 351.756 279.847V281.847ZM357.099 283.091C358.564 283.88 359.718 285.085 360.558 286.751L362.344 285.851C361.337 283.852 359.905 282.33 358.047 281.33L357.099 283.091ZM360.559 286.754C361.39 288.39 361.836 290.523 361.836 293.205H363.836C363.836 290.318 363.358 287.849 362.342 285.848L360.559 286.754ZM361.836 293.205V314H363.836V293.205H361.836ZM362.836 313H357.807V315H362.836V313ZM358.807 314V293.545H356.807V314H358.807ZM358.807 293.545C358.807 290.803 358.092 288.527 356.536 286.856L355.072 288.218C356.187 289.416 356.807 291.146 356.807 293.545H358.807ZM356.54 286.859C354.981 285.167 352.861 284.364 350.307 284.364V286.364C352.413 286.364 353.958 287.009 355.069 288.215L356.54 286.859ZM350.307 284.364C348.553 284.364 346.949 284.745 345.521 285.532L346.485 287.284C347.586 286.678 348.851 286.364 350.307 286.364V284.364ZM345.517 285.534C344.09 286.328 342.972 287.486 342.163 288.978L343.921 289.931C344.56 288.752 345.416 287.879 346.49 287.281L345.517 285.534ZM342.163 288.978C341.341 290.492 340.955 292.284 340.955 294.312H342.955C342.955 292.534 343.293 291.088 343.921 289.931L342.163 288.978ZM377.543 312.572L377.007 313.417L377.009 313.418L377.543 312.572ZM372.344 306.67L371.445 307.11L371.447 307.114L372.344 306.67ZM372.344 288.879L371.446 288.438L371.444 288.442L372.344 288.879ZM377.543 282.956L377.009 282.11L377.007 282.112L377.543 282.956ZM393.075 282.956L392.539 283.8L392.542 283.802L393.075 282.956ZM398.274 288.879L397.375 289.316L397.377 289.32L398.274 288.879ZM398.274 306.67L397.378 306.227L397.376 306.231L398.274 306.67ZM393.075 312.572L392.542 311.727L392.539 311.728L393.075 312.572ZM390.859 308.439L390.237 307.656L390.237 307.656L390.859 308.439ZM394.077 303.901L395.014 304.249L395.014 304.249L394.077 303.901ZM394.077 291.692L395.015 291.346L395.015 291.346L394.077 291.692ZM390.859 287.111L391.486 286.331L391.486 286.331L390.859 287.111ZM379.78 287.111L379.153 286.331L379.153 286.331L379.78 287.111ZM376.562 291.692L375.624 291.346L375.624 291.346L376.562 291.692ZM376.562 303.901L375.625 304.249L375.625 304.249L376.562 303.901ZM379.78 308.439L380.402 307.656L380.402 307.656L379.78 308.439ZM385.32 313.682C382.53 313.682 380.128 313.02 378.076 311.727L377.009 313.418C379.418 314.937 382.2 315.682 385.32 315.682V313.682ZM378.078 311.728C376.029 310.427 374.415 308.604 373.24 306.227L371.447 307.114C372.772 309.794 374.625 311.905 377.007 313.417L378.078 311.728ZM373.242 306.231C372.085 303.864 371.49 301.066 371.49 297.807H369.49C369.49 301.309 370.131 304.42 371.445 307.11L373.242 306.231ZM371.49 297.807C371.49 294.518 372.086 291.698 373.243 289.316L371.444 288.442C370.13 291.146 369.49 294.277 369.49 297.807H371.49ZM373.241 289.32C374.417 286.929 376.03 285.1 378.078 283.8L377.007 282.112C374.623 283.624 372.771 285.744 371.446 288.438L373.241 289.32ZM378.076 283.802C380.128 282.508 382.53 281.847 385.32 281.847V279.847C382.2 279.847 379.418 280.591 377.009 282.11L378.076 283.802ZM385.32 281.847C388.109 281.847 390.503 282.508 392.539 283.8L393.611 282.112C391.215 280.591 388.439 279.847 385.32 279.847V281.847ZM392.542 283.802C394.603 285.101 396.214 286.929 397.375 289.316L399.174 288.442C397.862 285.744 396.008 283.623 393.609 282.11L392.542 283.802ZM397.377 289.32C398.547 291.701 399.149 294.52 399.149 297.807H401.149C401.149 294.275 400.501 291.143 399.172 288.438L397.377 289.32ZM399.149 297.807C399.149 301.064 398.547 303.861 397.378 306.227L399.171 307.114C400.501 304.423 401.149 301.311 401.149 297.807H399.149ZM397.376 306.231C396.216 308.605 394.604 310.426 392.542 311.727L393.609 313.418C396.007 311.906 397.861 309.793 399.173 307.11L397.376 306.231ZM392.539 311.728C390.503 313.02 388.109 313.682 385.32 313.682V315.682C388.439 315.682 391.215 314.937 393.611 313.417L392.539 311.728ZM385.32 311.165C387.74 311.165 389.82 310.541 391.481 309.222L390.237 307.656C389.001 308.638 387.388 309.165 385.32 309.165V311.165ZM391.481 309.222C393.085 307.949 394.26 306.28 395.014 304.249L393.139 303.553C392.501 305.271 391.532 306.628 390.237 307.656L391.481 309.222ZM395.014 304.249C395.755 302.252 396.121 300.102 396.121 297.807H394.121C394.121 299.887 393.79 301.799 393.139 303.553L395.014 304.249ZM396.121 297.807C396.121 295.512 395.755 293.355 395.015 291.346L393.138 292.037C393.79 293.807 394.121 295.727 394.121 297.807H396.121ZM395.015 291.346C394.262 289.301 393.088 287.619 391.486 286.331L390.233 287.89C391.529 288.932 392.5 290.304 393.138 292.037L395.015 291.346ZM391.486 286.331C389.825 284.996 387.743 284.364 385.32 284.364V286.364C387.385 286.364 388.996 286.896 390.233 287.89L391.486 286.331ZM385.32 284.364C382.896 284.364 380.814 284.996 379.153 286.331L380.406 287.89C381.643 286.896 383.254 286.364 385.32 286.364V284.364ZM379.153 286.331C377.551 287.619 376.377 289.301 375.624 291.346L377.501 292.037C378.14 290.304 379.111 288.932 380.406 287.89L379.153 286.331ZM375.624 291.346C374.884 293.355 374.518 295.512 374.518 297.807H376.518C376.518 295.727 376.849 293.807 377.501 292.037L375.624 291.346ZM374.518 297.807C374.518 300.102 374.884 302.252 375.625 304.249L377.5 303.553C376.849 301.799 376.518 299.887 376.518 297.807H374.518ZM375.625 304.249C376.379 306.28 377.555 307.949 379.158 309.222L380.402 307.656C379.107 306.628 378.138 305.271 377.5 303.553L375.625 304.249ZM379.158 309.222C380.819 310.541 382.899 311.165 385.32 311.165V309.165C383.251 309.165 381.638 308.638 380.402 307.656L379.158 309.222Z" fill="black"/>
<defs>
<filter id="filter0_d_1_39" x="197" y="73" width="311" height="312" filterUnits="userSpaceOnUse" color-interpolation-filters="sRGB">
<feFlood flood-opacity="0" result="BackgroundImageFix"/>
<feColorMatrix in="SourceAlpha" type="matrix" values="0 0 0 0 0 0 0 0 0 0 0 0 0 0 0 0 0 0 127 0" result="hardAlpha"/>
<feOffset dx="4" dy="5"/>
<feGaussianBlur stdDeviation="2.5"/>
<feComposite in2="hardAlpha" operator="out"/>
<feColorMatrix type="matrix" values="0 0 0 0 0 0 0 0 0 0 0 0 0 0 0 0 0 0 1 0"/>
<feBlend mode="normal" in2="BackgroundImageFix" result="effect1_dropShadow_1_39"/>
<feBlend mode="normal" in="SourceGraphic" in2="effect1_dropShadow_1_39" result="shape"/>
</filter>
<linearGradient id="paint0_linear_1_39" x1="450.301" y1="97" x2="520.699" y2="223.765" gradientUnits="userSpaceOnUse">
<stop offset="0.0361446" stop-color="#CC3181"/>
<stop offset="1" stop-color="white" stop-opacity="0"/>
</linearGradient>
<linearGradient id="paint1_linear_1_39" x1="439.277" y1="301" x2="527.607" y2="430.705" gradientUnits="userSpaceOnUse">
<stop offset="0.0361446" stop-color="#CC3181"/>
<stop offset="1" stop-color="white" stop-opacity="0"/>
</linearGradient>
<linearGradient id="paint2_linear_1_39" x1="511.904" y1="256" x2="544.669" y2="318.587" gradientUnits="userSpaceOnUse">
<stop offset="0.0361446" stop-color="#CC3181"/>
<stop offset="1" stop-color="white" stop-opacity="0"/>
</linearGradient>
<linearGradient id="paint3_linear_1_39" x1="255.602" y1="144.157" x2="90.1325" y2="12.0843" gradientUnits="userSpaceOnUse">
<stop offset="0.0361446" stop-color="#CC3181"/>
<stop offset="1" stop-color="white" stop-opacity="0"/>
</linearGradient>
<linearGradient id="paint4_linear_1_39" x1="145.964" y1="281" x2="215.613" y2="411.943" gradientUnits="userSpaceOnUse">
<stop offset="0.0361446" stop-color="#CC3181"/>
<stop offset="1" stop-color="white" stop-opacity="0"/>
</linearGradient>
<linearGradient id="paint5_linear_1_39" x1="247.108" y1="315" x2="351.256" y2="507.231" gradientUnits="userSpaceOnUse">
<stop offset="0.0361446" stop-color="#CC3181"/>
<stop offset="1" stop-color="white" stop-opacity="0"/>
</linearGradient>
<linearGradient id="paint6_linear_1_39" x1="372.082" y1="26.102" x2="598.612" y2="223.939" gradientUnits="userSpaceOnUse">
<stop stop-color="#CC3181"/>
<stop offset="1" stop-color="white" stop-opacity="0"/>
</linearGradient>
<linearGradient id="paint7_linear_1_39" x1="249.427" y1="107.905" x2="641.101" y2="542.161" gradientUnits="userSpaceOnUse">
<stop stop-color="#CC3181"/>
<stop offset="1" stop-color="white" stop-opacity="0"/>
</linearGradient>
</defs>
</svg>
