<?xml version="1.0" standalone="no"?>
<!DOCTYPE svg PUBLIC "-//W3C//DTD SVG 20010904//EN"
 "http://www.w3.org/TR/2001/REC-SVG-20010904/DTD/svg10.dtd">
<svg version="1.0" xmlns="http://www.w3.org/2000/svg"
 width="1080.000000pt" height="240.000000pt" viewBox="0 0 1080.000000 240.000000"
 preserveAspectRatio="xMidYMid meet">

<g transform="translate(0.000000,240.000000) scale(0.100000,-0.100000)"
fill="#000000" stroke="none">
<path d="M0 1200 l0 -1200 3795 0 c2087 0 3795 3 3795 7 0 4 -4 20 -10 37 -61
190 -104 324 -139 441 -24 77 -47 149 -51 160 -4 11 -24 72 -44 135 -19 63
-69 221 -110 350 -42 129 -92 287 -112 350 -19 63 -44 140 -54 170 -10 30 -48
150 -85 265 -37 116 -87 272 -112 348 l-45 137 -3414 0 -3414 0 0 -1200z
m2739 253 c-18 -21 -38 -41 -44 -45 -13 -10 -85 -10 -85 0 0 4 11 24 25 45 25
35 28 37 82 37 l57 0 -35 -37z m1871 -102 c42 -30 55 -68 54 -157 -1 -131 -56
-214 -142 -214 -82 0 -125 59 -123 170 1 106 36 185 94 214 37 19 80 14 117
-13z m-2146 -11 c-1 -14 -3 -74 -5 -135 l-4 -110 65 0 65 0 3 -51 3 -51 -62
-7 c-34 -3 -89 -6 -121 -6 l-60 0 6 143 c4 78 9 166 12 195 l6 53 46 -3 c43
-3 47 -5 46 -28z m250 -92 c-3 -68 -7 -154 -8 -193 l-1 -70 -54 -3 -54 -3 7
163 c4 90 9 178 12 196 6 31 8 32 56 32 l49 0 -7 -122z m129 110 c9 -7 27 -39
40 -72 l24 -59 7 72 7 72 42 -3 42 -3 0 -52 c-1 -29 -2 -116 -3 -193 l-2 -140
-49 0 -49 0 -33 91 -34 91 -5 -88 -5 -89 -54 -3 -53 -3 6 68 c3 37 8 118 12
178 4 61 11 118 16 128 10 20 66 23 91 5z m425 -24 c18 -21 22 -36 20 -73 l-3
-46 -47 -3 -48 -3 0 36 c0 42 -13 43 -43 3 -27 -37 -37 -165 -13 -174 9 -3 24
-3 34 1 16 8 16 8 0 12 -20 5 -25 52 -8 84 8 15 22 19 61 19 43 0 51 -3 61
-26 16 -35 -5 -111 -41 -148 -55 -55 -165 -45 -198 17 -18 36 -20 150 -2 205
16 51 56 101 93 118 46 21 106 11 134 -22z m148 22 c3 -7 1 -66 -5 -130 -6
-64 -8 -123 -4 -132 3 -9 15 -14 31 -12 33 4 39 26 42 138 1 47 5 99 9 115 6
27 10 30 46 30 l40 0 -1 -135 c0 -155 -12 -197 -66 -230 -56 -34 -166 -23
-184 19 -17 42 -21 103 -12 210 6 64 15 122 20 129 14 16 77 16 84 -2z m413
-5 c24 -24 33 -56 64 -229 27 -149 28 -145 -44 -140 -42 3 -44 5 -47 36 -2 22
-8 32 -20 32 -39 0 -61 -14 -71 -41 -9 -27 -14 -29 -62 -29 l-51 0 6 33 c9 48
53 181 88 265 31 74 47 90 96 91 12 1 31 -8 41 -18z m508 -12 c53 -51 50 -154
-7 -202 -16 -14 -52 -31 -79 -38 l-50 -13 -3 -50 -3 -51 -48 -3 -48 -3 7 173
c3 95 10 177 14 182 13 14 122 35 159 31 19 -2 45 -14 58 -26z m600 -3 c33
-39 32 -110 -3 -162 l-26 -38 26 -54 c26 -51 26 -55 9 -68 -36 -26 -66 -39
-70 -29 -15 41 -61 110 -75 113 -16 3 -18 -5 -18 -57 l0 -61 -44 0 c-25 0 -47
3 -49 8 -6 11 19 352 27 359 11 11 96 22 150 18 40 -2 55 -8 73 -29z m328 -11
c0 -40 0 -40 -42 -43 l-43 -3 -1 -80 c-1 -43 -3 -83 -4 -89 -1 -5 -3 -37 -4
-70 l-1 -60 -52 0 -51 0 6 144 c4 109 3 144 -6 141 -7 -2 -27 -6 -44 -9 l-33
-5 0 54 c0 64 -3 63 165 61 l110 -1 0 -40z m122 37 c10 -6 10 -35 2 -131 -6
-67 -8 -129 -5 -137 8 -20 52 -18 61 4 4 9 10 70 12 134 6 130 12 141 65 136
l33 -3 -1 -132 c-2 -113 -5 -138 -23 -177 -26 -53 -68 -76 -140 -76 -65 0 -96
27 -106 92 -9 57 13 281 28 290 16 10 59 10 74 0z m402 -7 c36 -18 55 -64 47
-110 -7 -36 -7 -36 -54 -33 -44 3 -46 5 -47 32 0 39 -20 44 -41 11 -11 -18
-19 -54 -22 -106 l-5 -79 26 0 c32 0 44 16 18 23 -13 3 -18 11 -16 23 16 79
12 74 65 74 65 0 85 -26 71 -89 -19 -87 -70 -126 -153 -119 -27 3 -57 13 -68
23 -60 54 -46 239 23 314 44 47 106 62 156 36z m168 7 c8 -5 9 -38 1 -130 -5
-67 -7 -129 -4 -137 8 -21 52 -19 61 3 4 9 10 70 12 134 6 130 12 141 65 136
l33 -3 -1 -132 c-2 -113 -5 -138 -23 -177 -26 -53 -68 -76 -140 -76 -65 0 -96
27 -106 92 -9 57 13 281 28 290 15 10 59 10 74 0z m463 -36 c0 -48 -11 -56
-76 -56 -60 0 -94 -11 -94 -31 0 -17 8 -19 65 -19 l65 0 0 -39 c0 -37 -2 -39
-37 -45 -21 -3 -50 -6 -65 -6 -23 0 -28 -4 -28 -26 0 -25 0 -25 78 -22 l77 3
0 -45 0 -45 -75 -8 c-41 -4 -99 -6 -129 -5 l-55 3 3 120 c2 66 6 149 9 185 l7
65 60 6 c33 3 90 6 128 7 l67 2 0 -44z m235 20 c13 -9 24 -29 28 -51 9 -55 1
-66 -47 -63 -37 3 -41 6 -44 31 -2 16 -8 27 -15 24 -20 -6 -19 -45 1 -62 89
-75 102 -92 102 -135 0 -34 -6 -48 -34 -76 -29 -29 -41 -34 -83 -34 -26 0 -67
9 -91 20 l-43 19 17 33 c9 18 18 34 19 36 2 2 17 -4 34 -12 44 -23 71 -21 71
7 -1 15 -16 33 -53 57 -40 28 -54 44 -61 72 -27 108 104 196 199 134z m271 10
c25 -18 37 -57 63 -206 12 -63 24 -127 27 -142 6 -28 5 -28 -49 -28 -55 0 -55
0 -61 35 -7 36 -18 41 -63 29 -14 -4 -24 -17 -28 -35 -6 -27 -10 -29 -55 -29
-27 0 -51 4 -54 9 -8 12 33 148 79 265 39 99 53 114 100 115 11 1 30 -5 41
-13z m-5666 -306 c106 -21 472 -90 477 -90 12 0 35 -72 36 -109 1 -71 -8 -87
-61 -106 -26 -10 -51 -21 -55 -25 -4 -4 18 -14 50 -23 l58 -17 -3 -100 c-3
-79 -1 -100 10 -100 10 -1 9 -4 -2 -13 -11 -8 -16 -30 -16 -74 1 -43 -4 -67
-14 -76 -16 -15 -430 -180 -437 -174 -2 2 32 17 74 34 74 29 78 32 87 68 6 25
4 56 -3 91 -15 64 -21 66 -124 32 -53 -17 -66 -25 -61 -37 23 -53 26 -101 12
-145 -11 -32 -12 -47 -4 -49 6 -3 0 -8 -14 -11 -16 -5 -145 16 -340 53 -172
34 -317 61 -322 61 -4 0 -8 49 -8 110 l0 109 57 17 57 17 -41 16 c-23 9 -45
20 -50 24 -4 5 -8 94 -8 198 l0 189 50 15 c28 8 140 41 250 74 110 33 211 60
225 60 14 0 68 -8 120 -19z"/>
<path d="M4519 1268 c-7 -13 -13 -61 -13 -108 -1 -79 1 -85 19 -85 15 0 23 11
32 45 13 50 16 130 7 154 -9 23 -31 20 -45 -6z"/>
<path d="M2630 1335 c0 -8 2 -15 4 -15 2 0 6 7 10 15 3 8 1 15 -4 15 -6 0 -10
-7 -10 -15z"/>
<path d="M3761 1179 c-14 -40 -14 -39 4 -39 10 0 15 11 15 35 0 43 -5 44 -19
4z"/>
<path d="M3847 1053 c-3 -5 1 -14 9 -21 12 -10 14 -10 14 2 0 17 -16 30 -23
19z"/>
<path d="M4234 1273 c-17 -3 -23 -13 -27 -46 -3 -23 -4 -43 -3 -44 2 -2 17 2
34 8 56 19 52 91 -4 82z"/>
<path d="M4122 1020 c0 -19 2 -27 5 -17 2 9 2 25 0 35 -3 9 -5 1 -5 -18z"/>
<path d="M4808 1273 c-27 -7 -25 -73 1 -73 21 0 64 47 58 64 -4 12 -33 17 -59
9z"/>
<path d="M6862 1180 c-9 -36 -8 -40 8 -40 16 0 18 6 13 38 -8 49 -9 49 -21 2z"/>
<path d="M6950 1056 c0 -8 5 -18 10 -21 6 -3 10 1 10 9 0 8 -4 18 -10 21 -5 3
-10 -1 -10 -9z"/>
<path d="M8721 2367 c43 -32 151 -106 229 -157 21 -14 78 -52 126 -84 52 -35
90 -54 92 -47 2 6 10 17 17 25 11 10 12 22 4 49 -8 29 -25 45 -100 96 -50 34
-94 61 -99 61 -4 0 -10 3 -12 8 -1 4 -29 24 -60 45 -56 36 -60 37 -149 37
l-92 0 44 -33z"/>
<path d="M9495 2121 c4 -41 11 -86 15 -100 8 -30 2 -54 -11 -45 -20 12 -19
-27 1 -75 22 -51 50 -85 50 -62 0 25 -24 106 -33 112 -5 4 -5 9 1 13 10 6 16
-11 57 -161 10 -35 22 -63 27 -63 5 0 7 8 4 18 -3 9 -28 109 -56 222 -28 113
-54 207 -57 210 -3 3 -2 -28 2 -69z"/>
<path d="M9641 2154 c0 -11 3 -14 6 -6 3 7 2 16 -1 19 -3 4 -6 -2 -5 -13z"/>
<path d="M9768 2162 c-9 -2 -15 -9 -13 -15 5 -14 27 -263 30 -327 1 -25 6 -45
11 -45 11 0 10 98 -2 265 -8 110 -11 125 -26 122z"/>
<path d="M9693 2152 c-19 -12 -26 -122 -13 -188 37 -187 51 -234 71 -234 10 0
19 3 19 8 0 36 -52 408 -58 414 -4 4 -12 4 -19 0z"/>
<path d="M9256 2088 c3 -13 13 -38 20 -57 24 -57 15 -59 -10 -3 -12 29 -27 53
-32 52 -12 -3 -12 -4 67 -186 l70 -160 40 -3 c23 -1 39 2 36 6 -3 4 -30 69
-61 143 -54 128 -111 230 -129 230 -5 0 -5 -10 -1 -22z m64 -173 c0 -5 -5 -3
-10 5 -5 8 -10 20 -10 25 0 6 5 3 10 -5 5 -8 10 -19 10 -25z"/>
<path d="M9604 2035 c4 -16 9 -43 11 -60 14 -85 48 -235 54 -236 3 0 14 -2 24
-4 23 -4 22 10 -9 157 -32 156 -33 160 -49 155 -7 -3 -18 0 -25 6 -9 9 -11 6
-6 -18z"/>
<path d="M9215 2003 c4 -10 9 -25 12 -35 3 -9 26 -69 52 -134 45 -114 65 -142
77 -110 6 17 -124 296 -139 296 -5 0 -6 -8 -2 -17z"/>
<path d="M9873 1885 c0 -33 2 -45 4 -27 2 18 2 45 0 60 -2 15 -4 0 -4 -33z"/>
<path d="M10130 1890 c0 -5 5 -10 11 -10 5 0 7 5 4 10 -3 6 -8 10 -11 10 -2 0
-4 -4 -4 -10z"/>
<path d="M10279 1895 c-1 -5 -2 -19 -3 -30 -1 -26 -36 -32 -53 -9 -12 17 -13
16 -13 -4 0 -18 6 -22 30 -22 25 0 30 -4 30 -25 0 -24 2 -25 40 -19 28 5 40 3
40 -5 0 -7 -4 -9 -10 -6 -5 3 -7 0 -4 -8 3 -8 1 -18 -5 -22 -6 -3 -11 0 -11 8
0 10 -7 13 -19 10 -13 -3 -31 6 -53 26 -18 17 -39 31 -46 31 -7 0 -17 12 -23
28 -9 22 -12 24 -19 11 -12 -21 -1 -59 17 -59 7 0 23 -8 34 -19 17 -15 18 -20
5 -30 -8 -7 -17 -8 -20 -3 -8 13 -55 12 -63 -1 -3 -5 2 -16 12 -24 17 -12 17
-13 2 -13 -9 0 -17 5 -17 10 0 18 -39 11 -61 -11 -11 -11 -27 -18 -35 -15 -8
3 -14 -1 -14 -9 0 -21 22 -30 34 -13 6 9 27 18 46 22 31 6 33 5 18 -7 -22 -17
-23 -27 -3 -27 8 0 15 5 15 10 0 6 7 10 15 10 20 0 19 -16 -1 -24 -12 -5 1
-15 45 -37 63 -31 72 -43 45 -53 -19 -7 -8 -28 14 -25 36 3 52 -2 52 -16 0
-17 35 -21 45 -5 3 6 12 10 20 10 17 0 76 -55 68 -64 -12 -11 -36 -6 -48 11
-8 11 -18 14 -31 9 -18 -8 -18 -8 1 -16 11 -4 30 -20 42 -34 27 -31 43 -33 50
-5 4 12 11 18 20 15 8 -3 17 -6 19 -6 13 0 1 -20 -16 -25 -17 -6 -18 -8 -6
-21 20 -19 33 -18 46 6 6 11 16 17 22 14 8 -5 7 -10 -3 -18 -23 -17 -11 -46
18 -46 16 0 27 -7 30 -20 3 -11 11 -20 17 -20 6 0 19 -9 29 -20 9 -11 23 -20
30 -20 7 0 22 -8 33 -17 10 -10 40 -25 67 -34 l47 -17 0 274 0 273 -32 3 c-29
3 -33 7 -36 36 l-3 32 -88 0 c-67 0 -92 4 -101 15 -9 11 -35 15 -101 15 -72 0
-89 3 -89 15 0 8 -7 16 -15 17 -8 0 -21 1 -27 2 -7 1 -16 6 -20 11 -5 7 -8 7
-9 0z m-29 -155 c0 -5 -4 -10 -10 -10 -5 0 -10 5 -10 10 0 6 5 10 10 10 6 0
10 -4 10 -10z m90 -190 c0 -5 -4 -10 -9 -10 -6 0 -13 5 -16 10 -3 6 1 10 9 10
9 0 16 -4 16 -10z m112 -12 c2 -14 12 -24 28 -28 24 -6 42 -40 21 -40 -6 0
-11 5 -11 10 0 6 -7 10 -15 10 -9 0 -18 6 -21 14 -3 8 -16 17 -30 20 -32 8
-32 36 0 36 18 0 26 -6 28 -22z m88 -12 c0 -11 -19 -15 -25 -6 -3 5 1 10 9 10
9 0 16 -2 16 -4z m210 -172 c0 -2 -9 -4 -20 -4 -11 0 -20 4 -20 9 0 5 9 7 20
4 11 -3 20 -7 20 -9z m-110 -24 c0 -5 -7 -10 -15 -10 -8 0 -15 5 -15 10 0 6 7
10 15 10 8 0 15 -4 15 -10z m60 -40 c0 -11 -4 -20 -10 -20 -5 0 -10 9 -10 20
0 11 5 20 10 20 6 0 10 -9 10 -20z m58 -7 c-2 -10 -14 -19 -26 -21 -23 -4 -23
-3 -5 16 23 25 35 27 31 5z"/>
<path d="M10230 1860 c0 -5 9 -10 20 -10 11 0 20 5 20 10 0 6 -9 10 -20 10
-11 0 -20 -4 -20 -10z"/>
<path d="M10010 1740 c0 -6 11 -8 28 -4 39 10 40 14 4 14 -18 0 -32 -5 -32
-10z"/>
<path d="M9966 1731 c-4 -7 -5 -15 -2 -18 9 -9 19 4 14 18 -4 11 -6 11 -12 0z"/>
<path d="M9920 1651 l0 -60 78 -52 c42 -29 91 -60 107 -69 17 -10 59 -36 95
-59 36 -22 87 -53 114 -69 27 -15 57 -34 66 -42 16 -15 51 -35 119 -71 18 -10
41 -24 50 -32 9 -8 69 -46 134 -85 l117 -71 0 60 c0 37 -4 59 -11 59 -7 0 -52
27 -101 60 -50 33 -94 60 -98 60 -4 0 -10 7 -14 15 -3 8 -12 15 -21 15 -16 0
-119 64 -145 90 -8 9 -34 24 -57 35 -24 11 -43 23 -43 28 0 4 -7 7 -15 7 -7 0
-18 6 -22 13 -4 6 -21 19 -38 27 -16 8 -34 21 -38 27 -4 7 -15 13 -22 13 -8 0
-15 5 -15 10 0 6 -7 10 -15 10 -8 0 -15 5 -15 10 0 6 -9 10 -20 10 -11 0 -20
4 -20 8 0 4 -25 21 -56 37 -31 16 -59 35 -61 42 -3 7 -11 13 -19 13 -8 0 -14
5 -14 10 0 6 -4 10 -10 10 -6 0 -10 -26 -10 -59z"/>
<path d="M9680 1381 c-48 -16 -85 -40 -125 -80 -38 -40 -41 -41 -87 -35 -33 5
-48 3 -48 -5 0 -23 -23 -10 -66 38 -37 42 -51 50 -103 61 -110 23 -217 -23
-260 -113 -12 -25 -29 -51 -37 -57 -18 -16 -18 -44 1 -60 8 -7 20 -31 26 -54
18 -68 47 -115 87 -140 35 -24 41 -25 117 -15 107 13 123 21 172 85 l41 55 7
-31 c4 -16 4 -39 0 -50 -8 -24 -2 -25 30 -4 18 12 28 13 44 5 25 -14 91 -14
91 -1 0 7 6 7 19 0 35 -18 45 -11 21 15 -13 14 -25 35 -27 48 -1 12 -7 40 -13
62 -13 48 -8 131 8 162 33 60 124 98 216 91 106 -9 164 -57 174 -143 4 -40 2
-44 -27 -59 -22 -12 -31 -24 -31 -42 0 -21 3 -24 21 -19 18 6 20 4 14 -17 -9
-29 -53 -88 -71 -95 -17 -6 -19 -23 -3 -23 27 0 71 46 99 105 17 36 44 73 60
85 21 15 30 29 29 48 0 24 -1 25 -9 7 -5 -11 -9 -15 -9 -8 -1 7 -13 25 -28 41
-16 16 -36 43 -45 60 -25 46 -105 83 -192 88 -39 2 -82 0 -96 -5z m-378 -77
c21 -13 45 -35 54 -49 30 -46 16 -170 -26 -225 l-19 -25 0 83 c1 46 -2 86 -5
89 -3 4 -6 -5 -6 -19 0 -42 14 -42 -187 3 -86 19 -93 22 -93 45 0 15 15 41 38
65 64 69 167 83 244 33z m130 -139 c-2 -14 -6 -25 -8 -25 -2 0 -4 11 -4 25 0
14 4 25 9 25 4 0 6 -11 3 -25z m-264 -76 l132 -22 0 -38 c0 -45 -26 -74 -81
-91 -92 -27 -181 34 -204 140 -8 39 -17 38 153 11z"/>
<path d="M9577 912 c-9 -21 -19 -55 -22 -75 -4 -20 -11 -37 -16 -37 -9 0 -7
15 13 94 5 21 7 40 4 43 -9 10 -149 -15 -156 -28 -5 -6 -13 -38 -20 -70 -7
-33 -17 -59 -21 -59 -5 0 -9 6 -9 13 1 13 17 90 26 120 4 12 0 17 -15 17 -19
0 -27 -15 -45 -85 -3 -11 -3 1 0 28 5 47 5 47 -24 47 -16 0 -50 -3 -75 -6 -46
-7 -46 -7 -56 -56 -6 -27 -11 -65 -11 -85 0 -29 -3 -34 -12 -25 -9 9 -9 27 -1
74 6 35 9 64 8 66 -2 2 -36 0 -78 -4 l-74 -7 -12 -51 c-6 -28 -13 -64 -15 -81
-2 -23 -3 -21 -4 10 -1 22 3 59 7 83 5 23 5 44 2 47 -4 2 -29 1 -56 -3 -47 -7
-50 -9 -62 -47 -11 -33 -12 -35 -9 -8 4 21 1 33 -9 37 -19 7 -26 -6 -41 -78
l-13 -61 3 63 2 63 -65 -7 c-36 -3 -69 -8 -73 -10 -4 -3 -10 -25 -14 -50 -4
-32 -10 -42 -17 -35 -7 7 -7 24 0 56 6 25 7 45 2 45 -18 0 -29 -42 -29 -108
l0 -70 31 -6 c17 -3 47 -6 65 -6 32 0 33 -1 23 -27 -16 -40 -15 -203 0 -212
18 -11 -5 -90 -32 -112 -16 -13 -19 -24 -14 -54 3 -20 14 -43 23 -49 14 -11
15 -16 4 -36 -13 -24 -8 -77 11 -137 l11 -33 413 0 414 0 -5 63 c-3 34 -7 73
-10 87 -5 24 -5 24 10 5 13 -18 24 -20 133 -18 65 2 152 7 193 13 41 5 210 17
375 26 165 8 306 18 314 20 12 4 12 8 -3 22 -15 15 -60 18 -429 25 -227 4
-426 10 -444 13 -26 4 -34 11 -44 42 -6 20 -14 42 -18 47 -3 6 -4 18 -3 28 2
10 -3 17 -12 17 -18 0 -19 6 -6 35 8 18 9 18 9 -4 1 -20 4 -22 13 -13 9 9 10
19 1 43 -11 27 -10 31 9 38 33 12 8 20 -69 22 -65 2 -72 4 -82 26 -6 13 -11
62 -11 110 0 75 2 84 16 79 17 -7 131 -14 664 -41 162 -9 302 -16 310 -17 29
-2 50 2 50 11 0 13 -69 20 -305 31 -340 16 -586 33 -574 41 16 10 3 40 -14 33
-30 -11 -27 90 4 147 7 15 6 19 -5 19 -7 0 -21 -17 -29 -38z m-650 -64 c-3 -8
-6 -5 -6 6 -1 11 2 17 5 13 3 -3 4 -12 1 -19z m280 -30 c-3 -7 -5 -2 -5 12 0
14 2 19 5 13 2 -7 2 -19 0 -25z m-290 -65 c-2 -16 -4 -5 -4 22 0 28 2 40 4 28
2 -13 2 -35 0 -50z m390 35 c-3 -7 -5 -2 -5 12 0 14 2 19 5 13 2 -7 2 -19 0
-25z m-110 -25 c-3 -10 -5 -4 -5 12 0 17 2 24 5 18 2 -7 2 -21 0 -30z m351
-10 c-16 -2 -40 -2 -55 0 -16 2 -3 4 27 4 30 0 43 -2 28 -4z m-643 -340 c-3
-10 -11 -40 -18 -68 -12 -53 -26 -72 -39 -52 -24 37 7 137 43 137 16 0 20 -4
14 -17z m24 -5 c-7 -12 -15 -47 -19 -78 l-7 -55 -2 48 c-1 42 20 107 35 107 2
0 -1 -10 -7 -22z m116 -10 l-6 -33 15 33 c10 22 22 32 37 32 14 0 19 -5 16
-14 -3 -8 -9 -32 -13 -53 -4 -21 -11 -41 -17 -45 -11 -7 -30 9 -40 32 -3 9 -6
2 -7 -15 -1 -16 -4 -24 -7 -17 -5 13 16 112 24 112 2 0 2 -15 -2 -32z m151 -5
c-3 -21 -6 -49 -6 -63 0 -18 -3 -21 -9 -11 -5 7 -14 10 -20 7 -7 -5 -11 6 -11
33 0 53 8 71 32 71 18 0 20 -4 14 -37z m99 -5 c-8 -51 -22 -69 -35 -48 -22 34
-8 90 22 90 18 0 19 -4 13 -42z m105 11 c0 -31 -20 -51 -39 -40 -21 13 -5 67
19 67 15 0 20 -7 20 -27z m-598 -26 c-29 -81 -62 -80 -41 1 9 38 15 46 35 46
l23 0 -17 -47z"/>
<path d="M9670 940 c0 -13 11 -13 30 0 12 8 11 10 -7 10 -13 0 -23 -4 -23 -10z"/>
<path d="M9732 945 c8 -8 304 -42 523 -60 44 -4 110 -14 147 -22 64 -14 94
-11 83 7 -7 11 -46 17 -280 40 -115 11 -249 24 -296 30 -92 11 -186 13 -177 5z"/>
<path d="M9661 496 c8 -8 72 -12 482 -27 253 -9 341 -9 349 -1 18 18 0 27 -26
13 -15 -9 -41 -11 -72 -7 -27 3 -159 8 -294 11 -135 3 -290 8 -345 11 -55 4
-97 3 -94 0z"/>
<path d="M9645 469 c-4 -6 -5 -12 -3 -14 2 -2 199 -8 438 -13 369 -8 441 -12
474 -27 46 -20 58 -13 20 11 -29 19 -108 24 -658 38 -126 3 -232 8 -234 11 -9
9 -31 5 -37 -6z"/>
<path d="M10730 65 l-64 -65 67 0 67 0 0 65 c0 36 -1 65 -3 65 -1 0 -32 -29
-67 -65z"/>
</g>
</svg>
